<?xml version="1.0" encoding="UTF-8"?><svg xmlns="http://www.w3.org/2000/svg" xmlns:xlink="http://www.w3.org/1999/xlink" fill-opacity="1" color-rendering="auto" color-interpolation="auto" text-rendering="auto" stroke="black" stroke-linecap="square" width="654" stroke-miterlimit="10" shape-rendering="auto" stroke-opacity="1" fill="black" stroke-dasharray="none" font-weight="normal" stroke-width="1" height="1970" font-family="'Dialog'" font-style="normal" stroke-linejoin="miter" font-size="12px" stroke-dashoffset="0" image-rendering="auto">
  <!--Generated by ySVG 2.5-->
  <defs id="genericDefs"/>
  <g>
    <defs id="defs1">
      <linearGradient x1="-1146.7622" gradientUnits="userSpaceOnUse" x2="-1002.7622" y1="-592.8152" y2="-525.8152" id="linearGradient1" spreadMethod="reflect">
        <stop stop-opacity="1" stop-color="rgb(232,238,247)" offset="0%"/>
        <stop stop-opacity="1" stop-color="rgb(183,201,227)" offset="100%"/>
      </linearGradient>
      <linearGradient x1="-1146.7622" gradientUnits="userSpaceOnUse" x2="-1002.7622" y1="-495.8152" y2="-428.8152" id="linearGradient2" spreadMethod="reflect">
        <stop stop-opacity="1" stop-color="rgb(232,238,247)" offset="0%"/>
        <stop stop-opacity="1" stop-color="rgb(183,201,227)" offset="100%"/>
      </linearGradient>
      <linearGradient x1="-1146.7622" gradientUnits="userSpaceOnUse" x2="-1002.7622" y1="-398.8152" y2="-331.8152" id="linearGradient3" spreadMethod="reflect">
        <stop stop-opacity="1" stop-color="rgb(232,238,247)" offset="0%"/>
        <stop stop-opacity="1" stop-color="rgb(183,201,227)" offset="100%"/>
      </linearGradient>
      <linearGradient x1="-1146.7622" gradientUnits="userSpaceOnUse" x2="-1002.7622" y1="-292.8152" y2="-225.8152" id="linearGradient4" spreadMethod="reflect">
        <stop stop-opacity="1" stop-color="rgb(232,238,247)" offset="0%"/>
        <stop stop-opacity="1" stop-color="rgb(183,201,227)" offset="100%"/>
      </linearGradient>
      <linearGradient x1="-1146.7622" gradientUnits="userSpaceOnUse" x2="-1002.7622" y1="-103.4871" y2="-36.4871" id="linearGradient5" spreadMethod="reflect">
        <stop stop-opacity="1" stop-color="rgb(232,238,247)" offset="0%"/>
        <stop stop-opacity="1" stop-color="rgb(183,201,227)" offset="100%"/>
      </linearGradient>
      <linearGradient x1="-1146.7622" gradientUnits="userSpaceOnUse" x2="-1002.7622" y1="77.7942" y2="144.7942" id="linearGradient6" spreadMethod="reflect">
        <stop stop-opacity="1" stop-color="rgb(232,238,247)" offset="0%"/>
        <stop stop-opacity="1" stop-color="rgb(183,201,227)" offset="100%"/>
      </linearGradient>
      <linearGradient x1="-1146.7622" gradientUnits="userSpaceOnUse" x2="-1002.7622" y1="344.4348" y2="411.4348" id="linearGradient7" spreadMethod="reflect">
        <stop stop-opacity="1" stop-color="rgb(232,238,247)" offset="0%"/>
        <stop stop-opacity="1" stop-color="rgb(183,201,227)" offset="100%"/>
      </linearGradient>
      <linearGradient x1="-1146.7622" gradientUnits="userSpaceOnUse" x2="-1002.7622" y1="444.3411" y2="511.3411" id="linearGradient8" spreadMethod="reflect">
        <stop stop-opacity="1" stop-color="rgb(232,238,247)" offset="0%"/>
        <stop stop-opacity="1" stop-color="rgb(183,201,227)" offset="100%"/>
      </linearGradient>
      <linearGradient x1="-1146.7622" gradientUnits="userSpaceOnUse" x2="-1002.7622" y1="-13.3464" y2="53.6536" id="linearGradient9" spreadMethod="reflect">
        <stop stop-opacity="1" stop-color="rgb(232,238,247)" offset="0%"/>
        <stop stop-opacity="1" stop-color="rgb(183,201,227)" offset="100%"/>
      </linearGradient>
      <linearGradient x1="-1156.1372" gradientUnits="userSpaceOnUse" x2="-993.3872" y1="174.7942" y2="241.7942" id="linearGradient10" spreadMethod="reflect">
        <stop stop-opacity="1" stop-color="rgb(232,238,247)" offset="0%"/>
        <stop stop-opacity="1" stop-color="rgb(183,201,227)" offset="100%"/>
      </linearGradient>
      <linearGradient x1="-1393.6997" gradientUnits="userSpaceOnUse" x2="-1249.6997" y1="237.3879" y2="304.3879" id="linearGradient11" spreadMethod="reflect">
        <stop stop-opacity="1" stop-color="rgb(232,238,247)" offset="0%"/>
        <stop stop-opacity="1" stop-color="rgb(183,201,227)" offset="100%"/>
      </linearGradient>
      <linearGradient x1="-924.4497" gradientUnits="userSpaceOnUse" x2="-780.4497" y1="237.3879" y2="304.3879" id="linearGradient12" spreadMethod="reflect">
        <stop stop-opacity="1" stop-color="rgb(232,238,247)" offset="0%"/>
        <stop stop-opacity="1" stop-color="rgb(183,201,227)" offset="100%"/>
      </linearGradient>
      <linearGradient x1="-1146.7622" gradientUnits="userSpaceOnUse" x2="-1002.7622" y1="541.3411" y2="608.3411" id="linearGradient13" spreadMethod="reflect">
        <stop stop-opacity="1" stop-color="rgb(232,238,247)" offset="0%"/>
        <stop stop-opacity="1" stop-color="rgb(183,201,227)" offset="100%"/>
      </linearGradient>
      <linearGradient x1="-1146.7622" gradientUnits="userSpaceOnUse" x2="-1002.7622" y1="651.2473" y2="718.2473" id="linearGradient14" spreadMethod="reflect">
        <stop stop-opacity="1" stop-color="rgb(232,238,247)" offset="0%"/>
        <stop stop-opacity="1" stop-color="rgb(183,201,227)" offset="100%"/>
      </linearGradient>
      <linearGradient x1="-1156.1372" gradientUnits="userSpaceOnUse" x2="-993.3872" y1="761.1536" y2="828.1536" id="linearGradient15" spreadMethod="reflect">
        <stop stop-opacity="1" stop-color="rgb(232,238,247)" offset="0%"/>
        <stop stop-opacity="1" stop-color="rgb(183,201,227)" offset="100%"/>
      </linearGradient>
      <linearGradient x1="-1146.7622" gradientUnits="userSpaceOnUse" x2="-1002.7622" y1="1045.2424" y2="1112.2424" id="linearGradient16" spreadMethod="reflect">
        <stop stop-opacity="1" stop-color="rgb(232,238,247)" offset="0%"/>
        <stop stop-opacity="1" stop-color="rgb(183,201,227)" offset="100%"/>
      </linearGradient>
      <linearGradient x1="-1146.7622" gradientUnits="userSpaceOnUse" x2="-1002.7622" y1="1279.0386" y2="1346.0386" id="linearGradient17" spreadMethod="reflect">
        <stop stop-opacity="1" stop-color="rgb(232,238,247)" offset="0%"/>
        <stop stop-opacity="1" stop-color="rgb(183,201,227)" offset="100%"/>
      </linearGradient>
      <linearGradient x1="-1146.7622" gradientUnits="userSpaceOnUse" x2="-1002.7622" y1="-203.6277" y2="-136.6277" id="linearGradient18" spreadMethod="reflect">
        <stop stop-opacity="1" stop-color="rgb(232,238,247)" offset="0%"/>
        <stop stop-opacity="1" stop-color="rgb(183,201,227)" offset="100%"/>
      </linearGradient>
      <linearGradient x1="-1403.0747" gradientUnits="userSpaceOnUse" x2="-1240.3247" y1="848.788" y2="932.7333" id="linearGradient19" spreadMethod="reflect">
        <stop stop-opacity="1" stop-color="rgb(232,238,247)" offset="0%"/>
        <stop stop-opacity="1" stop-color="rgb(183,201,227)" offset="100%"/>
      </linearGradient>
      <linearGradient x1="-1146.7622" gradientUnits="userSpaceOnUse" x2="-1002.7622" y1="1162.1405" y2="1229.1405" id="linearGradient20" spreadMethod="reflect">
        <stop stop-opacity="1" stop-color="rgb(232,238,247)" offset="0%"/>
        <stop stop-opacity="1" stop-color="rgb(183,201,227)" offset="100%"/>
      </linearGradient>
      <clipPath clipPathUnits="userSpaceOnUse" id="clipPath1">
        <path d="M0 0 L654 0 L654 1970 L0 1970 L0 0 Z"/>
      </clipPath>
      <clipPath clipPathUnits="userSpaceOnUse" id="clipPath2">
        <path d="M-1419 -608 L-765 -608 L-765 1362 L-1419 1362 L-1419 -608 Z"/>
      </clipPath>
    </defs>
    <g fill="white" text-rendering="geometricPrecision" shape-rendering="geometricPrecision" transform="translate(1419,608)" stroke="white">
      <rect x="-1419" width="654" height="1970" y="-608" clip-path="url(#clipPath2)" stroke="none"/>
    </g>
    <g fill="url(#linearGradient1)" text-rendering="geometricPrecision" shape-rendering="geometricPrecision" transform="matrix(1,0,0,1,1419,608)" stroke="url(#linearGradient1)">
      <rect x="-1146.7622" y="-592.8152" clip-path="url(#clipPath2)" width="144" rx="33.5" ry="33.5" height="67" stroke="none"/>
    </g>
    <g text-rendering="geometricPrecision" stroke-miterlimit="1.45" shape-rendering="geometricPrecision" transform="matrix(1,0,0,1,1419,608)" stroke-linecap="butt">
      <rect x="-1146.7622" y="-592.8152" clip-path="url(#clipPath2)" fill="none" width="144" rx="33.5" ry="33.5" height="67"/>
      <text x="-1097.6782" xml:space="preserve" y="-555.1609" clip-path="url(#clipPath2)" font-family="sans-serif" stroke="none">Начало</text>
    </g>
    <g fill="url(#linearGradient2)" text-rendering="geometricPrecision" shape-rendering="geometricPrecision" transform="matrix(1,0,0,1,1419,608)" stroke="url(#linearGradient2)">
      <path d="M-1136.7622 -495.8152 L-1012.7622 -495.8152 L-1002.7622 -485.8152 L-1002.7622 -428.8152 L-1146.7622 -428.8152 L-1146.7622 -485.8152 Z" stroke="none" clip-path="url(#clipPath2)"/>
    </g>
    <g text-rendering="geometricPrecision" stroke-miterlimit="1.45" shape-rendering="geometricPrecision" transform="matrix(1,0,0,1,1419,608)" stroke-linecap="butt">
      <path fill="none" d="M-1136.7622 -495.8152 L-1012.7622 -495.8152 L-1002.7622 -485.8152 L-1002.7622 -428.8152 L-1146.7622 -428.8152 L-1146.7622 -485.8152 Z" clip-path="url(#clipPath2)"/>
      <text x="-1123.5386" xml:space="preserve" y="-479.114" clip-path="url(#clipPath2)" font-family="sans-serif" stroke="none">Подсчёт кол-ва</text>
      <text x="-1104.7358" xml:space="preserve" y="-465.1453" clip-path="url(#clipPath2)" font-family="sans-serif" stroke="none">символов</text>
      <text x="-1137.0298" xml:space="preserve" y="-451.1765" clip-path="url(#clipPath2)" font-family="sans-serif" stroke="none">Пока не встетиться</text>
      <text x="-1083.8999" xml:space="preserve" y="-437.2078" clip-path="url(#clipPath2)" font-family="sans-serif" stroke="none">'\0'</text>
    </g>
    <g fill="url(#linearGradient3)" text-rendering="geometricPrecision" shape-rendering="geometricPrecision" transform="matrix(1,0,0,1,1419,608)" stroke="url(#linearGradient3)">
      <path d="M-1146.7622 -398.8152 L-1002.7622 -398.8152 L-1002.7622 -331.8152 L-1146.7622 -331.8152 Z" stroke="none" clip-path="url(#clipPath2)"/>
    </g>
    <g text-rendering="geometricPrecision" stroke-miterlimit="1.45" shape-rendering="geometricPrecision" transform="matrix(1,0,0,1,1419,608)" stroke-linecap="butt">
      <path fill="none" d="M-1146.7622 -398.8152 L-1002.7622 -398.8152 L-1002.7622 -331.8152 L-1146.7622 -331.8152 Z" clip-path="url(#clipPath2)"/>
      <text x="-1134.5454" xml:space="preserve" y="-368.1453" clip-path="url(#clipPath2)" font-family="sans-serif" stroke="none">Увеличение кол-ва</text>
      <text x="-1104.7358" xml:space="preserve" y="-354.1765" clip-path="url(#clipPath2)" font-family="sans-serif" stroke="none">символов</text>
    </g>
    <g fill="url(#linearGradient4)" text-rendering="geometricPrecision" shape-rendering="geometricPrecision" transform="matrix(1,0,0,1,1419,608)" stroke="url(#linearGradient4)">
      <path d="M-1146.7622 -292.8152 L-1002.7622 -292.8152 L-1002.7622 -235.8152 L-1012.7622 -225.8152 L-1136.7622 -225.8152 L-1146.7622 -235.8152 Z" stroke="none" clip-path="url(#clipPath2)"/>
    </g>
    <g text-rendering="geometricPrecision" stroke-miterlimit="1.45" shape-rendering="geometricPrecision" transform="matrix(1,0,0,1,1419,608)" stroke-linecap="butt">
      <path fill="none" d="M-1146.7622 -292.8152 L-1002.7622 -292.8152 L-1002.7622 -235.8152 L-1012.7622 -225.8152 L-1136.7622 -225.8152 L-1146.7622 -235.8152 Z" clip-path="url(#clipPath2)"/>
      <text x="-1123.5386" xml:space="preserve" y="-262.1453" clip-path="url(#clipPath2)" font-family="sans-serif" stroke="none">Подсчёт кол-ва</text>
      <text x="-1104.7358" xml:space="preserve" y="-248.1765" clip-path="url(#clipPath2)" font-family="sans-serif" stroke="none">символов</text>
    </g>
    <g fill="url(#linearGradient5)" text-rendering="geometricPrecision" shape-rendering="geometricPrecision" transform="matrix(1,0,0,1,1419,608)" stroke="url(#linearGradient5)">
      <path d="M-1136.7622 -103.4871 L-1012.7622 -103.4871 L-1002.7622 -93.4871 L-1002.7622 -36.4871 L-1146.7622 -36.4871 L-1146.7622 -93.4871 Z" stroke="none" clip-path="url(#clipPath2)"/>
    </g>
    <g text-rendering="geometricPrecision" stroke-miterlimit="1.45" shape-rendering="geometricPrecision" transform="matrix(1,0,0,1,1419,608)" stroke-linecap="butt">
      <path fill="none" d="M-1136.7622 -103.4871 L-1012.7622 -103.4871 L-1002.7622 -93.4871 L-1002.7622 -36.4871 L-1146.7622 -36.4871 L-1146.7622 -93.4871 Z" clip-path="url(#clipPath2)"/>
      <text x="-1097.4497" xml:space="preserve" y="-93.7703" clip-path="url(#clipPath2)" font-family="sans-serif" stroke="none">Строки</text>
      <text x="-1111.7729" xml:space="preserve" y="-79.8015" clip-path="url(#clipPath2)" font-family="sans-serif" stroke="none">Пока номер</text>
      <text x="-1103.4937" xml:space="preserve" y="-65.8328" clip-path="url(#clipPath2)" font-family="sans-serif" stroke="none">строки &lt;</text>
      <text x="-1112.9419" xml:space="preserve" y="-51.864" clip-path="url(#clipPath2)" font-family="sans-serif" stroke="none">количества </text>
      <text x="-1094.5669" xml:space="preserve" y="-37.8953" clip-path="url(#clipPath2)" font-family="sans-serif" stroke="none">строк.</text>
    </g>
    <g fill="url(#linearGradient6)" text-rendering="geometricPrecision" shape-rendering="geometricPrecision" transform="matrix(1,0,0,1,1419,608)" stroke="url(#linearGradient6)">
      <path d="M-1136.7622 77.7942 L-1012.7622 77.7942 L-1002.7622 87.7942 L-1002.7622 144.7942 L-1146.7622 144.7942 L-1146.7622 87.7942 Z" stroke="none" clip-path="url(#clipPath2)"/>
    </g>
    <g text-rendering="geometricPrecision" stroke-miterlimit="1.45" shape-rendering="geometricPrecision" transform="matrix(1,0,0,1,1419,608)" stroke-linecap="butt">
      <path fill="none" d="M-1136.7622 77.7942 L-1012.7622 77.7942 L-1002.7622 87.7942 L-1002.7622 144.7942 L-1146.7622 144.7942 L-1146.7622 87.7942 Z" clip-path="url(#clipPath2)"/>
      <text x="-1102.4741" xml:space="preserve" y="94.4954" clip-path="url(#clipPath2)" font-family="sans-serif" stroke="none">Столбцы</text>
      <text x="-1139.4409" xml:space="preserve" y="108.4641" clip-path="url(#clipPath2)" font-family="sans-serif" stroke="none">Пока номер столбца</text>
      <text x="-1117.9692" xml:space="preserve" y="122.4329" clip-path="url(#clipPath2)" font-family="sans-serif" stroke="none">&lt; количества</text>
      <text x="-1104.0532" xml:space="preserve" y="136.4016" clip-path="url(#clipPath2)" font-family="sans-serif" stroke="none">столбцов</text>
    </g>
    <g fill="url(#linearGradient7)" text-rendering="geometricPrecision" shape-rendering="geometricPrecision" transform="matrix(1,0,0,1,1419,608)" stroke="url(#linearGradient7)">
      <path d="M-1146.7622 344.4348 L-1002.7622 344.4348 L-1002.7622 401.4348 L-1012.7622 411.4348 L-1136.7622 411.4348 L-1146.7622 401.4348 Z" stroke="none" clip-path="url(#clipPath2)"/>
    </g>
    <g text-rendering="geometricPrecision" stroke-miterlimit="1.45" shape-rendering="geometricPrecision" transform="matrix(1,0,0,1,1419,608)" stroke-linecap="butt">
      <path fill="none" d="M-1146.7622 344.4348 L-1002.7622 344.4348 L-1002.7622 401.4348 L-1012.7622 411.4348 L-1136.7622 411.4348 L-1146.7622 401.4348 Z" clip-path="url(#clipPath2)"/>
      <text x="-1102.4741" xml:space="preserve" y="382.0891" clip-path="url(#clipPath2)" font-family="sans-serif" stroke="none">Столбцы</text>
    </g>
    <g fill="url(#linearGradient8)" text-rendering="geometricPrecision" shape-rendering="geometricPrecision" transform="matrix(1,0,0,1,1419,608)" stroke="url(#linearGradient8)">
      <path d="M-1146.7622 444.3411 L-1002.7622 444.3411 L-1002.7622 501.3411 L-1012.7622 511.3411 L-1136.7622 511.3411 L-1146.7622 501.3411 Z" stroke="none" clip-path="url(#clipPath2)"/>
    </g>
    <g text-rendering="geometricPrecision" stroke-miterlimit="1.45" shape-rendering="geometricPrecision" transform="matrix(1,0,0,1,1419,608)" stroke-linecap="butt">
      <path fill="none" d="M-1146.7622 444.3411 L-1002.7622 444.3411 L-1002.7622 501.3411 L-1012.7622 511.3411 L-1136.7622 511.3411 L-1146.7622 501.3411 Z" clip-path="url(#clipPath2)"/>
      <text x="-1097.4497" xml:space="preserve" y="481.9954" clip-path="url(#clipPath2)" font-family="sans-serif" stroke="none">Строки</text>
    </g>
    <g fill="url(#linearGradient9)" text-rendering="geometricPrecision" shape-rendering="geometricPrecision" transform="matrix(1,0,0,1,1419,608)" stroke="url(#linearGradient9)">
      <path d="M-1146.7622 -13.3464 L-1002.7622 -13.3464 L-1002.7622 53.6536 L-1146.7622 53.6536 Z" stroke="none" clip-path="url(#clipPath2)"/>
    </g>
    <g text-rendering="geometricPrecision" stroke-miterlimit="1.45" shape-rendering="geometricPrecision" transform="matrix(1,0,0,1,1419,608)" stroke-linecap="butt">
      <path fill="none" d="M-1146.7622 -13.3464 L-1002.7622 -13.3464 L-1002.7622 53.6536 L-1146.7622 53.6536 Z" clip-path="url(#clipPath2)"/>
      <text x="-1113.3989" xml:space="preserve" y="3.3547" clip-path="url(#clipPath2)" font-family="sans-serif" stroke="none">Вычисление</text>
      <text x="-1135.2749" xml:space="preserve" y="17.3235" clip-path="url(#clipPath2)" font-family="sans-serif" stroke="none">позиции элемента </text>
      <text x="-1143.4458" xml:space="preserve" y="31.2922" clip-path="url(#clipPath2)" font-family="sans-serif" stroke="none">строки для внесения </text>
      <text x="-1102.4419" xml:space="preserve" y="45.261" clip-path="url(#clipPath2)" font-family="sans-serif" stroke="none">в массив</text>
    </g>
    <g fill="url(#linearGradient10)" text-rendering="geometricPrecision" shape-rendering="geometricPrecision" transform="matrix(1,0,0,1,1419,608)" stroke="url(#linearGradient10)">
      <path d="M-1074.7622 174.7942 L-993.3872 208.2942 L-1074.7622 241.7942 L-1156.1372 208.2942 Z" stroke="none" clip-path="url(#clipPath2)"/>
    </g>
    <g text-rendering="geometricPrecision" stroke-miterlimit="1.45" shape-rendering="geometricPrecision" transform="matrix(1,0,0,1,1419,608)" stroke-linecap="butt">
      <path fill="none" d="M-1074.7622 174.7942 L-993.3872 208.2942 L-1074.7622 241.7942 L-1156.1372 208.2942 Z" clip-path="url(#clipPath2)"/>
      <text x="-1108.7993" font-size="8px" y="197.095" clip-path="url(#clipPath2)" font-family="sans-serif" stroke="none" xml:space="preserve">Элемент строки</text>
      <text x="-1123.8677" font-size="8px" y="206.4075" clip-path="url(#clipPath2)" font-family="sans-serif" stroke="none" xml:space="preserve">существует и является</text>
      <text x="-1123.2974" font-size="8px" y="215.72" clip-path="url(#clipPath2)" font-family="sans-serif" stroke="none" xml:space="preserve">прописной английской</text>
      <text x="-1089.4165" font-size="8px" y="225.0325" clip-path="url(#clipPath2)" font-family="sans-serif" stroke="none" xml:space="preserve">буквой</text>
    </g>
    <g fill="url(#linearGradient11)" text-rendering="geometricPrecision" shape-rendering="geometricPrecision" transform="matrix(1,0,0,1,1419,608)" stroke="url(#linearGradient11)">
      <path d="M-1393.6997 237.3879 L-1249.6997 237.3879 L-1249.6997 304.3879 L-1393.6997 304.3879 Z" stroke="none" clip-path="url(#clipPath2)"/>
    </g>
    <g text-rendering="geometricPrecision" stroke-miterlimit="1.45" shape-rendering="geometricPrecision" transform="matrix(1,0,0,1,1419,608)" stroke-linecap="butt">
      <path fill="none" d="M-1393.6997 237.3879 L-1249.6997 237.3879 L-1249.6997 304.3879 L-1393.6997 304.3879 Z" clip-path="url(#clipPath2)"/>
      <text x="-1376.8716" xml:space="preserve" y="268.0579" clip-path="url(#clipPath2)" font-family="sans-serif" stroke="none">Элемент массива</text>
      <text x="-1395.9526" xml:space="preserve" y="282.0266" clip-path="url(#clipPath2)" font-family="sans-serif" stroke="none">равен элементу строки</text>
    </g>
    <g fill="url(#linearGradient12)" text-rendering="geometricPrecision" shape-rendering="geometricPrecision" transform="matrix(1,0,0,1,1419,608)" stroke="url(#linearGradient12)">
      <path d="M-924.4497 237.3879 L-780.4497 237.3879 L-780.4497 304.3879 L-924.4497 304.3879 Z" stroke="none" clip-path="url(#clipPath2)"/>
    </g>
    <g text-rendering="geometricPrecision" stroke-miterlimit="1.45" shape-rendering="geometricPrecision" transform="matrix(1,0,0,1,1419,608)" stroke-linecap="butt">
      <path fill="none" d="M-924.4497 237.3879 L-780.4497 237.3879 L-780.4497 304.3879 L-924.4497 304.3879 Z" clip-path="url(#clipPath2)"/>
      <text x="-907.6216" xml:space="preserve" y="268.0579" clip-path="url(#clipPath2)" font-family="sans-serif" stroke="none">Элемент массива</text>
      <text x="-881.5122" xml:space="preserve" y="282.0266" clip-path="url(#clipPath2)" font-family="sans-serif" stroke="none">равен "*"</text>
    </g>
    <g fill="url(#linearGradient13)" text-rendering="geometricPrecision" shape-rendering="geometricPrecision" transform="matrix(1,0,0,1,1419,608)" stroke="url(#linearGradient13)">
      <path d="M-1136.7622 541.3411 L-1012.7622 541.3411 L-1002.7622 551.3411 L-1002.7622 608.3411 L-1146.7622 608.3411 L-1146.7622 551.3411 Z" stroke="none" clip-path="url(#clipPath2)"/>
    </g>
    <g text-rendering="geometricPrecision" stroke-miterlimit="1.45" shape-rendering="geometricPrecision" transform="matrix(1,0,0,1,1419,608)" stroke-linecap="butt">
      <path fill="none" d="M-1136.7622 541.3411 L-1012.7622 541.3411 L-1002.7622 551.3411 L-1002.7622 608.3411 L-1146.7622 608.3411 L-1146.7622 551.3411 Z" clip-path="url(#clipPath2)"/>
      <text x="-1102.4741" xml:space="preserve" y="558.0422" clip-path="url(#clipPath2)" font-family="sans-serif" stroke="none">Столбцы</text>
      <text x="-1139.4409" xml:space="preserve" y="572.011" clip-path="url(#clipPath2)" font-family="sans-serif" stroke="none">Пока номер столбца</text>
      <text x="-1117.9692" xml:space="preserve" y="585.9797" clip-path="url(#clipPath2)" font-family="sans-serif" stroke="none">&lt; количества</text>
      <text x="-1104.0532" xml:space="preserve" y="599.9485" clip-path="url(#clipPath2)" font-family="sans-serif" stroke="none">столбцов</text>
    </g>
    <g fill="url(#linearGradient14)" text-rendering="geometricPrecision" shape-rendering="geometricPrecision" transform="matrix(1,0,0,1,1419,608)" stroke="url(#linearGradient14)">
      <path d="M-1136.7622 651.2473 L-1012.7622 651.2473 L-1002.7622 661.2473 L-1002.7622 718.2473 L-1146.7622 718.2473 L-1146.7622 661.2473 Z" stroke="none" clip-path="url(#clipPath2)"/>
    </g>
    <g text-rendering="geometricPrecision" stroke-miterlimit="1.45" shape-rendering="geometricPrecision" transform="matrix(1,0,0,1,1419,608)" stroke-linecap="butt">
      <path fill="none" d="M-1136.7622 651.2473 L-1012.7622 651.2473 L-1002.7622 661.2473 L-1002.7622 718.2473 L-1146.7622 718.2473 L-1146.7622 661.2473 Z" clip-path="url(#clipPath2)"/>
      <text x="-1097.4497" xml:space="preserve" y="660.9641" clip-path="url(#clipPath2)" font-family="sans-serif" stroke="none">Строки</text>
      <text x="-1111.7729" xml:space="preserve" y="674.9329" clip-path="url(#clipPath2)" font-family="sans-serif" stroke="none">Пока номер</text>
      <text x="-1103.4937" xml:space="preserve" y="688.9016" clip-path="url(#clipPath2)" font-family="sans-serif" stroke="none">строки &lt;</text>
      <text x="-1112.9419" xml:space="preserve" y="702.8704" clip-path="url(#clipPath2)" font-family="sans-serif" stroke="none">количества </text>
      <text x="-1094.5669" xml:space="preserve" y="716.8391" clip-path="url(#clipPath2)" font-family="sans-serif" stroke="none">строк.</text>
    </g>
    <g fill="url(#linearGradient15)" text-rendering="geometricPrecision" shape-rendering="geometricPrecision" transform="matrix(1,0,0,1,1419,608)" stroke="url(#linearGradient15)">
      <path d="M-1074.7622 761.1536 L-993.3872 794.6536 L-1074.7622 828.1536 L-1156.1372 794.6536 Z" stroke="none" clip-path="url(#clipPath2)"/>
    </g>
    <g text-rendering="geometricPrecision" stroke-miterlimit="1.45" shape-rendering="geometricPrecision" transform="matrix(1,0,0,1,1419,608)" stroke-linecap="butt">
      <path fill="none" d="M-1074.7622 761.1536 L-993.3872 794.6536 L-1074.7622 828.1536 L-1156.1372 794.6536 Z" clip-path="url(#clipPath2)"/>
      <text x="-1104.021" xml:space="preserve" y="784.8391" clip-path="url(#clipPath2)" font-family="sans-serif" stroke="none">Элемент </text>
      <text x="-1100.6753" xml:space="preserve" y="798.8079" clip-path="url(#clipPath2)" font-family="sans-serif" stroke="none">массива</text>
      <text x="-1103.8247" xml:space="preserve" y="812.7766" clip-path="url(#clipPath2)" font-family="sans-serif" stroke="none">равен "*"</text>
    </g>
    <g fill="url(#linearGradient16)" text-rendering="geometricPrecision" shape-rendering="geometricPrecision" transform="matrix(1,0,0,1,1419,608)" stroke="url(#linearGradient16)">
      <path d="M-1146.7622 1045.2424 L-1002.7622 1045.2424 L-1002.7622 1102.2424 L-1012.7622 1112.2424 L-1136.7622 1112.2424 L-1146.7622 1102.2424 Z" stroke="none" clip-path="url(#clipPath2)"/>
    </g>
    <g text-rendering="geometricPrecision" stroke-miterlimit="1.45" shape-rendering="geometricPrecision" transform="matrix(1,0,0,1,1419,608)" stroke-linecap="butt">
      <path fill="none" d="M-1146.7622 1045.2424 L-1002.7622 1045.2424 L-1002.7622 1102.2424 L-1012.7622 1112.2424 L-1136.7622 1112.2424 L-1146.7622 1102.2424 Z" clip-path="url(#clipPath2)"/>
      <text x="-1097.4497" xml:space="preserve" y="1082.8967" clip-path="url(#clipPath2)" font-family="sans-serif" stroke="none">Строки</text>
    </g>
    <g fill="url(#linearGradient17)" text-rendering="geometricPrecision" shape-rendering="geometricPrecision" transform="matrix(1,0,0,1,1419,608)" stroke="url(#linearGradient17)">
      <rect x="-1146.7622" y="1279.0385" clip-path="url(#clipPath2)" width="144" rx="33.5" ry="33.5" height="67" stroke="none"/>
    </g>
    <g text-rendering="geometricPrecision" stroke-miterlimit="1.45" shape-rendering="geometricPrecision" transform="matrix(1,0,0,1,1419,608)" stroke-linecap="butt">
      <rect x="-1146.7622" y="1279.0385" clip-path="url(#clipPath2)" fill="none" width="144" rx="33.5" ry="33.5" height="67"/>
      <text x="-1094.3911" xml:space="preserve" y="1316.6929" clip-path="url(#clipPath2)" font-family="sans-serif" stroke="none">Конец</text>
    </g>
    <g fill="url(#linearGradient18)" text-rendering="geometricPrecision" shape-rendering="geometricPrecision" transform="matrix(1,0,0,1,1419,608)" stroke="url(#linearGradient18)">
      <path d="M-1146.7622 -203.6277 L-1002.7622 -203.6277 L-1002.7622 -136.6277 L-1146.7622 -136.6277 Z" stroke="none" clip-path="url(#clipPath2)"/>
    </g>
    <g text-rendering="geometricPrecision" stroke-miterlimit="1.45" shape-rendering="geometricPrecision" transform="matrix(1,0,0,1,1419,608)" stroke-linecap="butt">
      <path fill="none" d="M-1146.7622 -203.6277 L-1002.7622 -203.6277 L-1002.7622 -136.6277 L-1146.7622 -136.6277 Z" clip-path="url(#clipPath2)"/>
      <text x="-1095.6743" xml:space="preserve" y="-179.9421" clip-path="url(#clipPath2)" font-family="sans-serif" stroke="none">Поиск </text>
      <text x="-1112.9419" xml:space="preserve" y="-165.9734" clip-path="url(#clipPath2)" font-family="sans-serif" stroke="none">количества </text>
      <text x="-1092.6597" xml:space="preserve" y="-152.0046" clip-path="url(#clipPath2)" font-family="sans-serif" stroke="none">строк</text>
    </g>
    <g fill="url(#linearGradient19)" text-rendering="geometricPrecision" shape-rendering="geometricPrecision" transform="matrix(1,0,0,1,1419,608)" stroke="url(#linearGradient19)">
      <path d="M-1381.6687 848.788 L-1240.3247 848.788 L-1261.7307 932.7333 L-1403.0747 932.7333 Z" stroke="none" clip-path="url(#clipPath2)"/>
    </g>
    <g text-rendering="geometricPrecision" stroke-miterlimit="1.45" shape-rendering="geometricPrecision" transform="matrix(1,0,0,1,1419,608)" stroke-linecap="butt">
      <path fill="none" d="M-1381.6687 848.788 L-1240.3247 848.788 L-1261.7307 932.7333 L-1403.0747 932.7333 Z" clip-path="url(#clipPath2)"/>
      <text x="-1373.9478" xml:space="preserve" y="887.9305" clip-path="url(#clipPath2)" font-family="sans-serif" stroke="none">Вывод элемента</text>
      <text x="-1347.6128" xml:space="preserve" y="901.8993" clip-path="url(#clipPath2)" font-family="sans-serif" stroke="none">массива</text>
    </g>
    <g fill="url(#linearGradient20)" text-rendering="geometricPrecision" shape-rendering="geometricPrecision" transform="matrix(1,0,0,1,1419,608)" stroke="url(#linearGradient20)">
      <path d="M-1146.7622 1162.1405 L-1002.7622 1162.1405 L-1002.7622 1219.1405 L-1012.7622 1229.1405 L-1136.7622 1229.1405 L-1146.7622 1219.1405 Z" stroke="none" clip-path="url(#clipPath2)"/>
    </g>
    <g text-rendering="geometricPrecision" stroke-miterlimit="1.45" shape-rendering="geometricPrecision" transform="matrix(1,0,0,1,1419,608)" stroke-linecap="butt">
      <path fill="none" d="M-1146.7622 1162.1405 L-1002.7622 1162.1405 L-1002.7622 1219.1405 L-1012.7622 1229.1405 L-1136.7622 1229.1405 L-1146.7622 1219.1405 Z" clip-path="url(#clipPath2)"/>
      <text x="-1102.4741" xml:space="preserve" y="1199.7948" clip-path="url(#clipPath2)" font-family="sans-serif" stroke="none">Столбцы</text>
    </g>
    <g text-rendering="geometricPrecision" stroke-miterlimit="1.45" shape-rendering="geometricPrecision" transform="matrix(1,0,0,1,1419,608)" stroke-linecap="butt">
      <path fill="none" d="M-1074.7622 -525.8293 L-1074.7622 -503.84" clip-path="url(#clipPath2)"/>
    </g>
    <g text-rendering="geometricPrecision" stroke-miterlimit="1.45" shape-rendering="geometricPrecision" transform="matrix(1,0,0,1,1419,608)" stroke-linecap="butt">
      <path d="M-1074.7622 -495.84 L-1069.7622 -507.84 L-1074.7622 -504.84 L-1079.7622 -507.84 Z" stroke="none" clip-path="url(#clipPath2)"/>
      <path fill="none" d="M-1074.7622 -428.8293 L-1074.7622 -406.84" clip-path="url(#clipPath2)"/>
      <path d="M-1074.7622 -398.84 L-1069.7622 -410.84 L-1074.7622 -407.84 L-1079.7622 -410.84 Z" clip-path="url(#clipPath2)" stroke="none"/>
      <path fill="none" d="M-1074.7622 -331.802 L-1074.7622 -300.8333" clip-path="url(#clipPath2)"/>
      <path d="M-1074.7622 -292.8333 L-1069.7622 -304.8333 L-1074.7622 -301.8333 L-1079.7622 -304.8333 Z" clip-path="url(#clipPath2)" stroke="none"/>
      <path fill="none" d="M-1074.7622 411.4483 L-1074.7622 436.3529" clip-path="url(#clipPath2)"/>
      <path d="M-1074.7622 444.3529 L-1069.7622 432.3529 L-1074.7622 435.3529 L-1079.7622 432.3529 Z" clip-path="url(#clipPath2)" stroke="none"/>
      <path fill="none" d="M-1074.7622 -36.4924 L-1074.7622 -21.3417" clip-path="url(#clipPath2)"/>
      <path d="M-1074.7622 -13.3417 L-1069.7622 -25.3417 L-1074.7622 -22.3417 L-1079.7622 -25.3417 Z" clip-path="url(#clipPath2)" stroke="none"/>
      <path fill="none" d="M-1074.7622 53.6638 L-1074.7622 69.7796" clip-path="url(#clipPath2)"/>
      <path d="M-1074.7622 77.7796 L-1069.7622 65.7796 L-1074.7622 68.7796 L-1079.7622 65.7796 Z" clip-path="url(#clipPath2)" stroke="none"/>
      <path fill="none" d="M-1074.7622 144.78 L-1074.7622 166.7694" clip-path="url(#clipPath2)"/>
      <path d="M-1074.7622 174.7694 L-1069.7622 162.7694 L-1074.7622 165.7694 L-1079.7622 162.7694 Z" clip-path="url(#clipPath2)" stroke="none"/>
      <path fill="none" d="M-1156.1201 208.2942 L-1321.6997 208.2942 L-1321.6997 229.3599" clip-path="url(#clipPath2)"/>
      <path d="M-1321.6997 237.3599 L-1316.6997 225.3599 L-1321.6997 228.3599 L-1326.6997 225.3599 Z" clip-path="url(#clipPath2)" stroke="none"/>
      <text x="-1254.9648" xml:space="preserve" y="182.4485" clip-path="url(#clipPath2)" font-family="sans-serif" stroke="none">Да</text>
      <path fill="none" d="M-1321.6997 304.4038 L-1321.6997 324.3879 L-1074.7622 324.3879 L-1074.7622 336.4419" clip-path="url(#clipPath2)"/>
      <path d="M-1074.7622 344.4419 L-1069.7622 332.4419 L-1074.7622 335.4419 L-1079.7622 332.4419 Z" clip-path="url(#clipPath2)" stroke="none"/>
      <path fill="none" d="M-993.3761 208.2942 L-852.4497 208.2942 L-852.4497 229.3599" clip-path="url(#clipPath2)"/>
      <path d="M-852.4497 237.3599 L-847.4497 225.3599 L-852.4497 228.3599 L-857.4497 225.3599 Z" clip-path="url(#clipPath2)" stroke="none"/>
      <text x="-925.2676" xml:space="preserve" y="182.4485" clip-path="url(#clipPath2)" font-family="sans-serif" stroke="none">Нет</text>
      <path fill="none" d="M-852.4497 304.4038 L-852.4497 324.3879 L-1074.7622 324.3879 L-1074.7622 336.4357" clip-path="url(#clipPath2)"/>
      <path d="M-1074.7622 344.4357 L-1069.7622 332.4357 L-1074.7622 335.4357 L-1079.7622 332.4357 Z" clip-path="url(#clipPath2)" stroke="none"/>
      <path fill="none" d="M-1074.7622 511.3269 L-1074.7622 533.3163" clip-path="url(#clipPath2)"/>
      <path d="M-1074.7622 541.3163 L-1069.7622 529.3163 L-1074.7622 532.3163 L-1079.7622 529.3163 Z" clip-path="url(#clipPath2)" stroke="none"/>
      <path fill="none" d="M-1074.7622 608.355 L-1074.7622 643.2137" clip-path="url(#clipPath2)"/>
      <path d="M-1074.7622 651.2137 L-1069.7622 639.2137 L-1074.7622 642.2137 L-1079.7622 639.2137 Z" clip-path="url(#clipPath2)" stroke="none"/>
      <path fill="none" d="M-1074.7622 718.2612 L-1074.7622 753.12" clip-path="url(#clipPath2)"/>
      <path d="M-1074.7622 761.12 L-1069.7622 749.12 L-1074.7622 752.12 L-1079.7622 749.12 Z" clip-path="url(#clipPath2)" stroke="none"/>
      <path fill="none" d="M-993.3761 794.6536 L-852.4497 794.6536 L-852.4497 1002.9462 L-1074.7622 1002.9462 L-1074.7622 1037.2816" clip-path="url(#clipPath2)"/>
      <path d="M-1074.7622 1045.2816 L-1069.7622 1033.2816 L-1074.7622 1036.2816 L-1079.7622 1033.2816 Z" clip-path="url(#clipPath2)" stroke="none"/>
      <text x="-923.6006" xml:space="preserve" y="768.8079" clip-path="url(#clipPath2)" font-family="sans-serif" stroke="none">Да</text>
      <path fill="none" d="M-1074.7622 -225.8263 L-1074.7622 -211.6067" clip-path="url(#clipPath2)"/>
      <path d="M-1074.7622 -203.6067 L-1069.7622 -215.6067 L-1074.7622 -212.6067 L-1079.7622 -215.6067 Z" clip-path="url(#clipPath2)" stroke="none"/>
      <path fill="none" d="M-1074.7622 -136.6334 L-1074.7622 -111.4729" clip-path="url(#clipPath2)"/>
      <path d="M-1074.7622 -103.4729 L-1069.7622 -115.4729 L-1074.7622 -112.4729 L-1079.7622 -115.4729 Z" clip-path="url(#clipPath2)" stroke="none"/>
      <path fill="none" d="M-1156.1201 794.6536 L-1321.6997 794.6536 L-1321.6997 840.7607" clip-path="url(#clipPath2)"/>
      <path d="M-1321.6997 848.7607 L-1316.6997 836.7607 L-1321.6997 839.7607 L-1326.6997 836.7607 Z" clip-path="url(#clipPath2)" stroke="none"/>
      <text x="-1259.9658" xml:space="preserve" y="768.8079" clip-path="url(#clipPath2)" font-family="sans-serif" stroke="none">Нет</text>
      <path fill="none" d="M-1321.6997 932.748 L-1321.6997 1002.9462 L-1074.7622 1002.9462 L-1074.7622 1037.2802" clip-path="url(#clipPath2)"/>
      <path d="M-1074.7622 1045.2802 L-1069.7622 1033.2802 L-1074.7622 1036.2802 L-1079.7622 1033.2802 Z" clip-path="url(#clipPath2)" stroke="none"/>
      <path fill="none" d="M-1074.7622 1112.2194 L-1074.7622 1154.1172" clip-path="url(#clipPath2)"/>
      <path d="M-1074.7622 1162.1172 L-1069.7622 1150.1172 L-1074.7622 1153.1172 L-1079.7622 1150.1172 Z" clip-path="url(#clipPath2)" stroke="none"/>
      <path fill="none" d="M-1074.7622 1229.1174 L-1074.7622 1271.0153" clip-path="url(#clipPath2)"/>
      <path d="M-1074.7622 1279.0153 L-1069.7622 1267.0153 L-1074.7622 1270.0153 L-1079.7622 1267.0153 Z" clip-path="url(#clipPath2)" stroke="none"/>
    </g>
  </g>
</svg>
