<?xml version="1.0" encoding="UTF-8"?><svg xmlns="http://www.w3.org/2000/svg" xmlns:xlink="http://www.w3.org/1999/xlink" fill-opacity="1" color-rendering="auto" color-interpolation="auto" text-rendering="auto" stroke="black" stroke-linecap="square" width="355" stroke-miterlimit="10" shape-rendering="auto" stroke-opacity="1" fill="black" stroke-dasharray="none" font-weight="normal" stroke-width="1" height="817" font-family="'Dialog'" font-style="normal" stroke-linejoin="miter" font-size="12px" stroke-dashoffset="0" image-rendering="auto">
  <!--Generated by ySVG 2.5-->
  <defs id="genericDefs"/>
  <g>
    <defs id="defs1">
      <linearGradient x1="-117.4511" gradientUnits="userSpaceOnUse" x2="115.0489" y1="117.0862" y2="210.8362" id="linearGradient1" spreadMethod="reflect">
        <stop stop-opacity="1" stop-color="rgb(232,238,247)" offset="0%"/>
        <stop stop-opacity="1" stop-color="rgb(183,201,227)" offset="100%"/>
      </linearGradient>
      <linearGradient x1="-117.4511" gradientUnits="userSpaceOnUse" x2="115.0489" y1="243.6487" y2="323.6487" id="linearGradient2" spreadMethod="reflect">
        <stop stop-opacity="1" stop-color="rgb(232,238,247)" offset="0%"/>
        <stop stop-opacity="1" stop-color="rgb(183,201,227)" offset="100%"/>
      </linearGradient>
      <linearGradient x1="-117.4511" gradientUnits="userSpaceOnUse" x2="115.0489" y1="356.4612" y2="436.4612" id="linearGradient3" spreadMethod="reflect">
        <stop stop-opacity="1" stop-color="rgb(232,238,247)" offset="0%"/>
        <stop stop-opacity="1" stop-color="rgb(183,201,227)" offset="100%"/>
      </linearGradient>
      <linearGradient x1="-117.4511" gradientUnits="userSpaceOnUse" x2="115.0489" y1="472.0862" y2="552.0862" id="linearGradient4" spreadMethod="reflect">
        <stop stop-opacity="1" stop-color="rgb(232,238,247)" offset="0%"/>
        <stop stop-opacity="1" stop-color="rgb(183,201,227)" offset="100%"/>
      </linearGradient>
      <linearGradient x1="-117.4511" gradientUnits="userSpaceOnUse" x2="115.0489" y1="582.0862" y2="662.0862" id="linearGradient5" spreadMethod="reflect">
        <stop stop-opacity="1" stop-color="rgb(232,238,247)" offset="0%"/>
        <stop stop-opacity="1" stop-color="rgb(183,201,227)" offset="100%"/>
      </linearGradient>
      <linearGradient x1="-117.4511" gradientUnits="userSpaceOnUse" x2="115.0489" y1="695.8362" y2="775.8362" id="linearGradient6" spreadMethod="reflect">
        <stop stop-opacity="1" stop-color="rgb(232,238,247)" offset="0%"/>
        <stop stop-opacity="1" stop-color="rgb(183,201,227)" offset="100%"/>
      </linearGradient>
      <linearGradient x1="-117.4511" gradientUnits="userSpaceOnUse" x2="115.0489" y1="809.5862" y2="903.3362" id="linearGradient7" spreadMethod="reflect">
        <stop stop-opacity="1" stop-color="rgb(232,238,247)" offset="0%"/>
        <stop stop-opacity="1" stop-color="rgb(183,201,227)" offset="100%"/>
      </linearGradient>
      <clipPath clipPathUnits="userSpaceOnUse" id="clipPath1">
        <path d="M0 0 L355 0 L355 817 L0 817 L0 0 Z"/>
      </clipPath>
      <clipPath clipPathUnits="userSpaceOnUse" id="clipPath2">
        <path d="M-133 102 L222 102 L222 919 L-133 919 L-133 102 Z"/>
      </clipPath>
    </defs>
    <g fill="white" text-rendering="geometricPrecision" shape-rendering="geometricPrecision" transform="translate(133,-102)" stroke="white">
      <rect x="-133" width="355" height="817" y="102" clip-path="url(#clipPath2)" stroke="none"/>
    </g>
    <g fill="url(#linearGradient1)" text-rendering="geometricPrecision" shape-rendering="geometricPrecision" transform="matrix(1,0,0,1,133,-102)" stroke="url(#linearGradient1)">
      <rect x="-117.4511" y="117.0862" clip-path="url(#clipPath2)" width="232.5" rx="46.875" ry="46.875" height="93.75" stroke="none"/>
    </g>
    <g text-rendering="geometricPrecision" stroke-miterlimit="1.45" shape-rendering="geometricPrecision" transform="matrix(1,0,0,1,133,-102)" stroke-linecap="butt">
      <rect x="-117.4511" y="117.0862" clip-path="url(#clipPath2)" fill="none" width="232.5" rx="46.875" ry="46.875" height="93.75"/>
      <text x="-31.7558" font-size="16px" y="169.5003" clip-path="url(#clipPath2)" font-family="sans-serif" stroke="none" xml:space="preserve">Начало</text>
    </g>
    <g fill="url(#linearGradient2)" text-rendering="geometricPrecision" shape-rendering="geometricPrecision" transform="matrix(1,0,0,1,133,-102)" stroke="url(#linearGradient2)">
      <path d="M-97.0511 243.6487 L115.0489 243.6487 L94.6489 323.6487 L-117.4511 323.6487 Z" stroke="none" clip-path="url(#clipPath2)"/>
    </g>
    <g text-rendering="geometricPrecision" stroke-miterlimit="1.45" shape-rendering="geometricPrecision" transform="matrix(1,0,0,1,133,-102)" stroke-linecap="butt">
      <path fill="none" d="M-97.0511 243.6487 L115.0489 243.6487 L94.6489 323.6487 L-117.4511 323.6487 Z" clip-path="url(#clipPath2)"/>
      <text x="-50.6815" font-size="16px" y="289.1878" clip-path="url(#clipPath2)" font-family="sans-serif" stroke="none" xml:space="preserve">Ввод ключа</text>
    </g>
    <g fill="url(#linearGradient3)" text-rendering="geometricPrecision" shape-rendering="geometricPrecision" transform="matrix(1,0,0,1,133,-102)" stroke="url(#linearGradient3)">
      <path d="M-1.2011 356.4612 L115.0489 396.4612 L-1.2011 436.4612 L-117.4511 396.4612 Z" stroke="none" clip-path="url(#clipPath2)"/>
    </g>
    <g text-rendering="geometricPrecision" stroke-miterlimit="1.45" shape-rendering="geometricPrecision" transform="matrix(1,0,0,1,133,-102)" stroke-linecap="butt">
      <path fill="none" d="M-1.2011 356.4612 L115.0489 396.4612 L-1.2011 436.4612 L-117.4511 396.4612 Z" clip-path="url(#clipPath2)"/>
      <text x="-68.7333" xml:space="preserve" y="393.6311" clip-path="url(#clipPath2)" font-family="sans-serif" stroke="none">Проверка строки для</text>
      <text x="-76.4003" xml:space="preserve" y="407.5999" clip-path="url(#clipPath2)" font-family="sans-serif" stroke="none">шифрования пройдена </text>
    </g>
    <g fill="url(#linearGradient4)" text-rendering="geometricPrecision" shape-rendering="geometricPrecision" transform="matrix(1,0,0,1,133,-102)" stroke="url(#linearGradient4)">
      <path d="M-1.2011 472.0862 L115.0489 512.0862 L-1.2011 552.0862 L-117.4511 512.0862 Z" stroke="none" clip-path="url(#clipPath2)"/>
    </g>
    <g text-rendering="geometricPrecision" stroke-miterlimit="1.45" shape-rendering="geometricPrecision" transform="matrix(1,0,0,1,133,-102)" stroke-linecap="butt">
      <path fill="none" d="M-1.2011 472.0862 L115.0489 512.0862 L-1.2011 552.0862 L-117.4511 512.0862 Z" clip-path="url(#clipPath2)"/>
      <text x="-70.6405" xml:space="preserve" y="509.2561" clip-path="url(#clipPath2)" font-family="sans-serif" stroke="none">Проверка строки для </text>
      <text x="-77.6923" xml:space="preserve" y="523.2249" clip-path="url(#clipPath2)" font-family="sans-serif" stroke="none">расшифровки пройдена</text>
    </g>
    <g fill="url(#linearGradient5)" text-rendering="geometricPrecision" shape-rendering="geometricPrecision" transform="matrix(1,0,0,1,133,-102)" stroke="url(#linearGradient5)">
      <rect x="-117.4511" width="232.5" height="80" y="582.0862" clip-path="url(#clipPath2)" stroke="none"/>
    </g>
    <g text-rendering="geometricPrecision" stroke-miterlimit="1.45" shape-rendering="geometricPrecision" transform="matrix(1,0,0,1,133,-102)" stroke-linecap="butt">
      <rect fill="none" x="-117.4511" width="232.5" height="80" y="582.0862" clip-path="url(#clipPath2)"/>
      <path fill="none" d="M-107.4511 582.0862 L-107.4511 662.0862 M105.0489 582.0862 L105.0489 662.0862 M-107.4511 582.0862 Z" clip-path="url(#clipPath2)"/>
      <text x="-95.4628" font-size="16px" y="627.6253" clip-path="url(#clipPath2)" font-family="sans-serif" stroke="none" xml:space="preserve">Функций шифрования</text>
    </g>
    <g fill="url(#linearGradient6)" text-rendering="geometricPrecision" shape-rendering="geometricPrecision" transform="matrix(1,0,0,1,133,-102)" stroke="url(#linearGradient6)">
      <rect x="-117.4511" width="232.5" height="80" y="695.8362" clip-path="url(#clipPath2)" stroke="none"/>
    </g>
    <g text-rendering="geometricPrecision" stroke-miterlimit="1.45" shape-rendering="geometricPrecision" transform="matrix(1,0,0,1,133,-102)" stroke-linecap="butt">
      <rect fill="none" x="-117.4511" width="232.5" height="80" y="695.8362" clip-path="url(#clipPath2)"/>
      <path fill="none" d="M-107.4511 695.8362 L-107.4511 775.8362 M105.0489 695.8362 L105.0489 775.8362 M-107.4511 695.8362 Z" clip-path="url(#clipPath2)"/>
      <text x="-109.455" font-size="16px" y="741.3753" clip-path="url(#clipPath2)" font-family="sans-serif" stroke="none" xml:space="preserve">Функция расшифрования</text>
    </g>
    <g fill="url(#linearGradient7)" text-rendering="geometricPrecision" shape-rendering="geometricPrecision" transform="matrix(1,0,0,1,133,-102)" stroke="url(#linearGradient7)">
      <rect x="-117.4511" y="809.5862" clip-path="url(#clipPath2)" width="232.5" rx="46.875" ry="46.875" height="93.75" stroke="none"/>
    </g>
    <g text-rendering="geometricPrecision" stroke-miterlimit="1.45" shape-rendering="geometricPrecision" transform="matrix(1,0,0,1,133,-102)" stroke-linecap="butt">
      <rect x="-117.4511" y="809.5862" clip-path="url(#clipPath2)" fill="none" width="232.5" rx="46.875" ry="46.875" height="93.75"/>
      <text x="-27.3729" font-size="16px" y="862.0003" clip-path="url(#clipPath2)" font-family="sans-serif" stroke="none" xml:space="preserve">Конец</text>
    </g>
    <g text-rendering="geometricPrecision" stroke-miterlimit="1.45" shape-rendering="geometricPrecision" transform="matrix(1,0,0,1,133,-102)" stroke-linecap="butt">
      <path fill="none" d="M-1.2011 210.8603 L-1.2011 235.6648" clip-path="url(#clipPath2)"/>
    </g>
    <g text-rendering="geometricPrecision" stroke-miterlimit="1.45" shape-rendering="geometricPrecision" transform="matrix(1,0,0,1,133,-102)" stroke-linecap="butt">
      <path d="M-1.2011 243.6648 L3.7989 231.6648 L-1.2011 234.6648 L-6.2011 231.6648 Z" stroke="none" clip-path="url(#clipPath2)"/>
      <path fill="none" d="M-1.2011 323.6674 L-1.2011 348.4744" clip-path="url(#clipPath2)"/>
      <path d="M-1.2011 356.4744 L3.7989 344.4744 L-1.2011 347.4744 L-6.2011 344.4744 Z" clip-path="url(#clipPath2)" stroke="none"/>
      <path fill="none" d="M-1.2011 436.4614 L-1.2011 464.0952" clip-path="url(#clipPath2)"/>
      <path d="M-1.2011 472.0952 L3.7989 460.0952 L-1.2011 463.0952 L-6.2011 460.0952 Z" clip-path="url(#clipPath2)" stroke="none"/>
      <text x="-39.5653" xml:space="preserve" y="458.428" clip-path="url(#clipPath2)" font-family="sans-serif" stroke="none">Да</text>
      <path fill="none" d="M-1.2011 552.074 L-1.2011 574.0548" clip-path="url(#clipPath2)"/>
      <path d="M-1.2011 582.0548 L3.7989 570.0548 L-1.2011 573.0548 L-6.2011 570.0548 Z" clip-path="url(#clipPath2)" stroke="none"/>
      <text x="-39.5653" xml:space="preserve" y="571.2405" clip-path="url(#clipPath2)" font-family="sans-serif" stroke="none">Да</text>
      <path fill="none" d="M-1.2011 662.1042 L-1.2011 687.8381" clip-path="url(#clipPath2)"/>
      <path d="M-1.2011 695.8381 L3.7989 683.8381 L-1.2011 686.8381 L-6.2011 683.8381 Z" clip-path="url(#clipPath2)" stroke="none"/>
      <path fill="none" d="M-1.2011 775.858 L-1.2011 801.587" clip-path="url(#clipPath2)"/>
      <path d="M-1.2011 809.587 L3.7989 797.587 L-1.2011 800.587 L-6.2011 797.587 Z" clip-path="url(#clipPath2)" stroke="none"/>
      <path fill="none" d="M115.0364 396.4612 L206.2989 396.4612 L206.2989 792.7112 L-1.2011 792.7112 L-1.2011 801.5972" clip-path="url(#clipPath2)"/>
      <path d="M-1.2011 809.5972 L3.7989 797.5972 L-1.2011 800.5972 L-6.2011 797.5972 Z" clip-path="url(#clipPath2)" stroke="none"/>
      <text x="158.3248" xml:space="preserve" y="370.6155" clip-path="url(#clipPath2)" font-family="sans-serif" stroke="none">Нет</text>
      <path fill="none" d="M115.0364 512.0862 L206.2989 512.0862 L206.2989 792.7112 L-1.2011 792.7112 L-1.2011 801.6027" clip-path="url(#clipPath2)"/>
      <path d="M-1.2011 809.6027 L3.7989 797.6027 L-1.2011 800.6027 L-6.2011 797.6027 Z" clip-path="url(#clipPath2)" stroke="none"/>
      <text x="158.3248" xml:space="preserve" y="486.2405" clip-path="url(#clipPath2)" font-family="sans-serif" stroke="none">Нет</text>
    </g>
  </g>
</svg>
