<?xml version="1.0" encoding="UTF-8"?><svg xmlns="http://www.w3.org/2000/svg" xmlns:xlink="http://www.w3.org/1999/xlink" fill-opacity="1" color-rendering="auto" color-interpolation="auto" text-rendering="auto" stroke="black" stroke-linecap="square" width="381" stroke-miterlimit="10" shape-rendering="auto" stroke-opacity="1" fill="black" stroke-dasharray="none" font-weight="normal" stroke-width="1" height="632" font-family="'Dialog'" font-style="normal" stroke-linejoin="miter" font-size="12px" stroke-dashoffset="0" image-rendering="auto">
  <!--Generated by ySVG 2.5-->
  <defs id="genericDefs"/>
  <g>
    <defs id="defs1">
      <linearGradient x1="615.6" gradientUnits="userSpaceOnUse" x2="754" y1="93" y2="155.4" id="linearGradient1" spreadMethod="reflect">
        <stop stop-opacity="1" stop-color="rgb(232,238,247)" offset="0%"/>
        <stop stop-opacity="1" stop-color="rgb(183,201,227)" offset="100%"/>
      </linearGradient>
      <linearGradient x1="615.6" gradientUnits="userSpaceOnUse" x2="754" y1="185.4" y2="247.8" id="linearGradient2" spreadMethod="reflect">
        <stop stop-opacity="1" stop-color="rgb(232,238,247)" offset="0%"/>
        <stop stop-opacity="1" stop-color="rgb(183,201,227)" offset="100%"/>
      </linearGradient>
      <linearGradient x1="615.6" gradientUnits="userSpaceOnUse" x2="754" y1="446.2" y2="508.6" id="linearGradient3" spreadMethod="reflect">
        <stop stop-opacity="1" stop-color="rgb(232,238,247)" offset="0%"/>
        <stop stop-opacity="1" stop-color="rgb(183,201,227)" offset="100%"/>
      </linearGradient>
      <linearGradient x1="615.6" gradientUnits="userSpaceOnUse" x2="754" y1="275.8" y2="327.8" id="linearGradient4" spreadMethod="reflect">
        <stop stop-opacity="1" stop-color="rgb(232,238,247)" offset="0%"/>
        <stop stop-opacity="1" stop-color="rgb(183,201,227)" offset="100%"/>
      </linearGradient>
      <linearGradient x1="615.6" gradientUnits="userSpaceOnUse" x2="754" y1="355.8" y2="418.2" id="linearGradient5" spreadMethod="reflect">
        <stop stop-opacity="1" stop-color="rgb(232,238,247)" offset="0%"/>
        <stop stop-opacity="1" stop-color="rgb(183,201,227)" offset="100%"/>
      </linearGradient>
      <linearGradient x1="615.6" gradientUnits="userSpaceOnUse" x2="754" y1="540" y2="592" id="linearGradient6" spreadMethod="reflect">
        <stop stop-opacity="1" stop-color="rgb(232,238,247)" offset="0%"/>
        <stop stop-opacity="1" stop-color="rgb(183,201,227)" offset="100%"/>
      </linearGradient>
      <linearGradient x1="620.2" gradientUnits="userSpaceOnUse" x2="758.6" y1="631.8" y2="694.2" id="linearGradient7" spreadMethod="reflect">
        <stop stop-opacity="1" stop-color="rgb(232,238,247)" offset="0%"/>
        <stop stop-opacity="1" stop-color="rgb(183,201,227)" offset="100%"/>
      </linearGradient>
      <linearGradient x1="825.2" gradientUnits="userSpaceOnUse" x2="963.6" y1="524.6" y2="587" id="linearGradient8" spreadMethod="reflect">
        <stop stop-opacity="1" stop-color="rgb(232,238,247)" offset="0%"/>
        <stop stop-opacity="1" stop-color="rgb(183,201,227)" offset="100%"/>
      </linearGradient>
      <clipPath clipPathUnits="userSpaceOnUse" id="clipPath1">
        <path d="M0 0 L381 0 L381 632 L0 632 L0 0 Z"/>
      </clipPath>
      <clipPath clipPathUnits="userSpaceOnUse" id="clipPath2">
        <path d="M598 78 L979 78 L979 710 L598 710 L598 78 Z"/>
      </clipPath>
    </defs>
    <g fill="white" text-rendering="geometricPrecision" shape-rendering="geometricPrecision" transform="translate(-598,-78)" stroke="white">
      <rect x="598" width="381" height="632" y="78" clip-path="url(#clipPath2)" stroke="none"/>
    </g>
    <g fill="url(#linearGradient1)" text-rendering="geometricPrecision" shape-rendering="geometricPrecision" transform="matrix(1,0,0,1,-598,-78)" stroke="url(#linearGradient1)">
      <rect x="615.6" y="93" clip-path="url(#clipPath2)" width="138.4" rx="31.2" ry="31.2" height="62.4" stroke="none"/>
    </g>
    <g text-rendering="geometricPrecision" stroke-miterlimit="1.45" shape-rendering="geometricPrecision" transform="matrix(1,0,0,1,-598,-78)" stroke-linecap="butt">
      <rect x="615.6" y="93" clip-path="url(#clipPath2)" fill="none" width="138.4" rx="31.2" ry="31.2" height="62.4"/>
      <text x="661.884" xml:space="preserve" y="128.3543" clip-path="url(#clipPath2)" font-family="sans-serif" stroke="none">Начало</text>
    </g>
    <g fill="url(#linearGradient2)" text-rendering="geometricPrecision" shape-rendering="geometricPrecision" transform="matrix(1,0,0,1,-598,-78)" stroke="url(#linearGradient2)">
      <path d="M625.6 185.4 L744 185.4 L754 195.4 L754 247.8 L615.6 247.8 L615.6 195.4 Z" stroke="none" clip-path="url(#clipPath2)"/>
    </g>
    <g text-rendering="geometricPrecision" stroke-miterlimit="1.45" shape-rendering="geometricPrecision" transform="matrix(1,0,0,1,-598,-78)" stroke-linecap="butt">
      <path fill="none" d="M625.6 185.4 L744 185.4 L754 195.4 L754 247.8 L615.6 247.8 L615.6 195.4 Z" clip-path="url(#clipPath2)"/>
      <text x="654.4719" xml:space="preserve" y="213.7699" clip-path="url(#clipPath2)" font-family="sans-serif" stroke="none">Проверка</text>
      <text x="615.0236" xml:space="preserve" y="227.7387" clip-path="url(#clipPath2)" font-family="sans-serif" stroke="none">Пока не встетится'\0'.</text>
    </g>
    <g fill="url(#linearGradient3)" text-rendering="geometricPrecision" shape-rendering="geometricPrecision" transform="matrix(1,0,0,1,-598,-78)" stroke="url(#linearGradient3)">
      <path d="M615.6 446.2 L754 446.2 L754 498.6 L744 508.6 L625.6 508.6 L615.6 498.6 Z" stroke="none" clip-path="url(#clipPath2)"/>
    </g>
    <g text-rendering="geometricPrecision" stroke-miterlimit="1.45" shape-rendering="geometricPrecision" transform="matrix(1,0,0,1,-598,-78)" stroke-linecap="butt">
      <path fill="none" d="M615.6 446.2 L754 446.2 L754 498.6 L744 508.6 L625.6 508.6 L615.6 498.6 Z" clip-path="url(#clipPath2)"/>
      <text x="654.4719" xml:space="preserve" y="481.5543" clip-path="url(#clipPath2)" font-family="sans-serif" stroke="none">Проверка</text>
    </g>
    <g fill="url(#linearGradient4)" text-rendering="geometricPrecision" shape-rendering="geometricPrecision" transform="matrix(1,0,0,1,-598,-78)" stroke="url(#linearGradient4)">
      <path d="M684.8 275.8 L754 301.8 L684.8 327.8 L615.6 301.8 Z" stroke="none" clip-path="url(#clipPath2)"/>
    </g>
    <g text-rendering="geometricPrecision" stroke-miterlimit="1.45" shape-rendering="geometricPrecision" transform="matrix(1,0,0,1,-598,-78)" stroke-linecap="butt">
      <path fill="none" d="M684.8 275.8 L754 301.8 L684.8 327.8 L615.6 301.8 Z" clip-path="url(#clipPath2)"/>
      <text x="645.2687" font-size="8px" y="295.257" clip-path="url(#clipPath2)" font-family="sans-serif" stroke="none" xml:space="preserve">Символ прописная</text>
      <text x="643.6633" font-size="8px" y="304.5695" clip-path="url(#clipPath2)" font-family="sans-serif" stroke="none" xml:space="preserve">буква английского </text>
      <text x="664.1828" font-size="8px" y="313.882" clip-path="url(#clipPath2)" font-family="sans-serif" stroke="none" xml:space="preserve">алфавита</text>
    </g>
    <g fill="url(#linearGradient5)" text-rendering="geometricPrecision" shape-rendering="geometricPrecision" transform="matrix(1,0,0,1,-598,-78)" stroke="url(#linearGradient5)">
      <path d="M615.6 355.8 L754 355.8 L754 418.2 L615.6 418.2 Z" stroke="none" clip-path="url(#clipPath2)"/>
    </g>
    <g text-rendering="geometricPrecision" stroke-miterlimit="1.45" shape-rendering="geometricPrecision" transform="matrix(1,0,0,1,-598,-78)" stroke-linecap="butt">
      <path fill="none" d="M615.6 355.8 L754 355.8 L754 418.2 L615.6 418.2 Z" clip-path="url(#clipPath2)"/>
      <text x="616.7492" xml:space="preserve" y="391.1543" clip-path="url(#clipPath2)" font-family="sans-serif" stroke="none">Увеличение счётчика</text>
    </g>
    <g fill="url(#linearGradient6)" text-rendering="geometricPrecision" shape-rendering="geometricPrecision" transform="matrix(1,0,0,1,-598,-78)" stroke="url(#linearGradient6)">
      <path d="M684.8 540 L754 566 L684.8 592 L615.6 566 Z" stroke="none" clip-path="url(#clipPath2)"/>
    </g>
    <g text-rendering="geometricPrecision" stroke-miterlimit="1.45" shape-rendering="geometricPrecision" transform="matrix(1,0,0,1,-598,-78)" stroke-linecap="butt">
      <path fill="none" d="M684.8 540 L754 566 L684.8 592 L615.6 566 Z" clip-path="url(#clipPath2)"/>
      <text x="654.5578" font-size="8px" y="559.457" clip-path="url(#clipPath2)" font-family="sans-serif" stroke="none" xml:space="preserve">Ключ меньше </text>
      <text x="649.0363" font-size="8px" y="568.7695" clip-path="url(#clipPath2)" font-family="sans-serif" stroke="none" xml:space="preserve">половины длины</text>
      <text x="670.2687" font-size="8px" y="578.082" clip-path="url(#clipPath2)" font-family="sans-serif" stroke="none" xml:space="preserve">строки</text>
    </g>
    <g fill="url(#linearGradient7)" text-rendering="geometricPrecision" shape-rendering="geometricPrecision" transform="matrix(1,0,0,1,-598,-78)" stroke="url(#linearGradient7)">
      <rect x="620.2" y="631.8" clip-path="url(#clipPath2)" width="138.4" rx="31.2" ry="31.2" height="62.4" stroke="none"/>
    </g>
    <g text-rendering="geometricPrecision" stroke-miterlimit="1.45" shape-rendering="geometricPrecision" transform="matrix(1,0,0,1,-598,-78)" stroke-linecap="butt">
      <rect x="620.2" y="631.8" clip-path="url(#clipPath2)" fill="none" width="138.4" rx="31.2" ry="31.2" height="62.4"/>
      <text x="669.7711" xml:space="preserve" y="667.1543" clip-path="url(#clipPath2)" font-family="sans-serif" stroke="none">Конец</text>
    </g>
    <g fill="url(#linearGradient8)" text-rendering="geometricPrecision" shape-rendering="geometricPrecision" transform="matrix(1,0,0,1,-598,-78)" stroke="url(#linearGradient8)">
      <path d="M825.2 524.6 L963.6 524.6 L963.6 587 L825.2 587 Z" stroke="none" clip-path="url(#clipPath2)"/>
    </g>
    <g text-rendering="geometricPrecision" stroke-miterlimit="1.45" shape-rendering="geometricPrecision" transform="matrix(1,0,0,1,-598,-78)" stroke-linecap="butt">
      <path fill="none" d="M825.2 524.6 L963.6 524.6 L963.6 587 L825.2 587 Z" clip-path="url(#clipPath2)"/>
      <text x="848.9342" xml:space="preserve" y="552.9699" clip-path="url(#clipPath2)" font-family="sans-serif" stroke="none">Завершится с </text>
      <text x="865.7623" xml:space="preserve" y="566.9387" clip-path="url(#clipPath2)" font-family="sans-serif" stroke="none">кодом 'E'</text>
    </g>
    <g text-rendering="geometricPrecision" stroke-miterlimit="1.45" shape-rendering="geometricPrecision" transform="matrix(1,0,0,1,-598,-78)" stroke-linecap="butt">
      <path fill="none" d="M684.8 155.376 L684.8 177.42" clip-path="url(#clipPath2)"/>
    </g>
    <g text-rendering="geometricPrecision" stroke-miterlimit="1.45" shape-rendering="geometricPrecision" transform="matrix(1,0,0,1,-598,-78)" stroke-linecap="butt">
      <path d="M684.8 185.42 L689.8 173.42 L684.8 176.42 L679.8 173.42 Z" stroke="none" clip-path="url(#clipPath2)"/>
      <path fill="none" d="M684.8 247.7596 L684.8 267.8089" clip-path="url(#clipPath2)"/>
      <path d="M684.8 275.8089 L689.8 263.8089 L684.8 266.8089 L679.8 263.8089 Z" clip-path="url(#clipPath2)" stroke="none"/>
      <path fill="none" d="M684.8 327.801 L684.8 347.8107" clip-path="url(#clipPath2)"/>
      <path d="M684.8 355.8107 L689.8 343.8107 L684.8 346.8107 L679.8 343.8107 Z" clip-path="url(#clipPath2)" stroke="none"/>
      <text x="646.4357" xml:space="preserve" y="345.9543" clip-path="url(#clipPath2)" font-family="sans-serif" stroke="none">Да</text>
      <path fill="none" d="M684.8 418.2074 L684.8 438.2141" clip-path="url(#clipPath2)"/>
      <path d="M684.8 446.2141 L689.8 434.2141 L684.8 437.2141 L679.8 434.2141 Z" clip-path="url(#clipPath2)" stroke="none"/>
      <path fill="none" d="M684.8 508.5917 L684.8 532.0149" clip-path="url(#clipPath2)"/>
      <path d="M684.8 540.0149 L689.8 528.0149 L684.8 531.0149 L679.8 528.0149 Z" clip-path="url(#clipPath2)" stroke="none"/>
      <path fill="none" d="M684.8 592.0024 L684.8 623.8346" clip-path="url(#clipPath2)"/>
      <path d="M684.8 631.8346 L689.8 619.8346 L684.8 622.8346 L679.8 619.8346 Z" clip-path="url(#clipPath2)" stroke="none"/>
      <path fill="none" d="M754.0099 301.8 L894.4 301.8 L894.4 516.5771" clip-path="url(#clipPath2)"/>
      <path d="M894.4 524.5771 L899.4 512.5771 L894.4 515.5771 L889.4 512.5771 Z" clip-path="url(#clipPath2)" stroke="none"/>
      <path fill="none" d="M754.0323 566 L757.4 566 L757.4 566.6 L817.2144 566.6" clip-path="url(#clipPath2)"/>
      <path d="M825.2144 566.6 L813.2144 561.6 L816.2144 566.6 L813.2144 571.6 Z" clip-path="url(#clipPath2)" stroke="none"/>
      <text x="775.7018" xml:space="preserve" y="555.3543" clip-path="url(#clipPath2)" font-family="sans-serif" stroke="none">Нет</text>
      <path fill="none" d="M894.4 586.9977 L894.4 596.6 L684.8 596.6 L684.8 623.8301" clip-path="url(#clipPath2)"/>
      <path d="M684.8 631.8301 L689.8 619.8301 L684.8 622.8301 L679.8 619.8301 Z" clip-path="url(#clipPath2)" stroke="none"/>
      <text x="646.4357" xml:space="preserve" y="611.3621" clip-path="url(#clipPath2)" font-family="sans-serif" stroke="none">Да</text>
    </g>
  </g>
</svg>
