<?xml version="1.0" encoding="UTF-8"?><svg xmlns="http://www.w3.org/2000/svg" xmlns:xlink="http://www.w3.org/1999/xlink" fill-opacity="1" color-rendering="auto" color-interpolation="auto" text-rendering="auto" stroke="black" stroke-linecap="square" width="231" stroke-miterlimit="10" shape-rendering="auto" stroke-opacity="1" fill="black" stroke-dasharray="none" font-weight="normal" stroke-width="1" height="138" font-family="'Dialog'" font-style="normal" stroke-linejoin="miter" font-size="12px" stroke-dashoffset="0" image-rendering="auto">
  <!--Generated by ySVG 2.5-->
  <defs id="genericDefs"/>
  <g>
    <defs id="defs1">
      <clipPath clipPathUnits="userSpaceOnUse" id="clipPath1">
        <path d="M0 0 L231 0 L231 138 L0 138 L0 0 Z"/>
      </clipPath>
      <clipPath clipPathUnits="userSpaceOnUse" id="clipPath2">
        <path d="M453 58 L684 58 L684 196 L453 196 L453 58 Z"/>
      </clipPath>
      <clipPath clipPathUnits="userSpaceOnUse" id="clipPath3">
        <path d="M468 73 L468 105 L669 105 L669 73 Z"/>
      </clipPath>
      <clipPath clipPathUnits="userSpaceOnUse" id="clipPath4">
        <path d="M468 105 L468 137 L669 137 L669 105 Z"/>
      </clipPath>
      <clipPath clipPathUnits="userSpaceOnUse" id="clipPath5">
        <path d="M468 137 L468 181 L669 181 L669 137 Z"/>
      </clipPath>
    </defs>
    <g fill="white" text-rendering="geometricPrecision" shape-rendering="geometricPrecision" transform="translate(-453,-58)" stroke="white">
      <rect x="453" width="231" height="138" y="58" clip-path="url(#clipPath2)" stroke="none"/>
    </g>
    <g fill="rgb(255,204,0)" text-rendering="geometricPrecision" shape-rendering="geometricPrecision" transform="matrix(1,0,0,1,-453,-58)" stroke="rgb(255,204,0)">
      <rect x="469" width="199" height="30" y="74" clip-path="url(#clipPath2)" stroke="none"/>
      <rect x="468" y="73" clip-path="url(#clipPath2)" fill="yellow" width="1" height="32" stroke="none"/>
      <rect x="469" y="73" clip-path="url(#clipPath2)" fill="yellow" width="199" height="1" stroke="none"/>
      <rect x="469" y="104" clip-path="url(#clipPath2)" fill="rgb(178,142,0)" width="200" height="1" stroke="none"/>
      <rect x="668" y="73" clip-path="url(#clipPath2)" fill="rgb(178,142,0)" width="1" height="31" stroke="none"/>
    </g>
    <g font-size="13px" stroke-linecap="butt" transform="matrix(1,0,0,1,-453,-58)" text-rendering="geometricPrecision" font-family="sans-serif" shape-rendering="geometricPrecision" font-weight="bold" stroke-miterlimit="1.45">
      <text x="518.3123" xml:space="preserve" y="90.0669" clip-path="url(#clipPath3)" stroke="none">Perestanovka</text>
    </g>
    <g fill="rgb(255,204,0)" text-rendering="geometricPrecision" shape-rendering="geometricPrecision" transform="matrix(1,0,0,1,-453,-58)" stroke="rgb(255,204,0)">
      <rect x="469" width="199" height="30" y="106" clip-path="url(#clipPath2)" stroke="none"/>
      <rect x="468" y="105" clip-path="url(#clipPath2)" fill="yellow" width="1" height="32" stroke="none"/>
      <rect x="469" y="105" clip-path="url(#clipPath2)" fill="yellow" width="199" height="1" stroke="none"/>
      <rect x="469" y="136" clip-path="url(#clipPath2)" fill="rgb(178,142,0)" width="200" height="1" stroke="none"/>
      <rect x="668" y="105" clip-path="url(#clipPath2)" fill="rgb(178,142,0)" width="1" height="31" stroke="none"/>
    </g>
    <g font-size="13px" stroke-linecap="butt" transform="matrix(1,0,0,1,-453,-58)" text-rendering="geometricPrecision" font-family="sans-serif" shape-rendering="geometricPrecision" font-weight="bold" stroke-miterlimit="1.45">
      <text x="548.9175" xml:space="preserve" y="122.0669" clip-path="url(#clipPath4)" stroke="none">-k:int</text>
    </g>
    <g fill="rgb(255,204,0)" text-rendering="geometricPrecision" shape-rendering="geometricPrecision" transform="matrix(1,0,0,1,-453,-58)" stroke="rgb(255,204,0)">
      <rect x="469" width="199" height="42" y="138" clip-path="url(#clipPath2)" stroke="none"/>
      <rect x="468" y="137" clip-path="url(#clipPath2)" fill="yellow" width="1" height="44" stroke="none"/>
      <rect x="469" y="137" clip-path="url(#clipPath2)" fill="yellow" width="199" height="1" stroke="none"/>
      <rect x="469" y="180" clip-path="url(#clipPath2)" fill="rgb(178,142,0)" width="200" height="1" stroke="none"/>
      <rect x="668" y="137" clip-path="url(#clipPath2)" fill="rgb(178,142,0)" width="1" height="43" stroke="none"/>
    </g>
    <g font-size="10px" stroke-linecap="butt" transform="matrix(1,0,0,1,-453,-58)" text-rendering="geometricPrecision" font-family="sans-serif" shape-rendering="geometricPrecision" font-weight="bold" stroke-miterlimit="1.45">
      <text x="479.1055" xml:space="preserve" y="151.2822" clip-path="url(#clipPath5)" stroke="none">+shifr(m:const :string&amp; ):string</text>
      <text x="473.2656" xml:space="preserve" y="162.9229" clip-path="url(#clipPath5)" stroke="none">+rashifr(m:const :string&amp; ):string</text>
      <text x="491.0806" xml:space="preserve" y="174.5635" clip-path="url(#clipPath5)" stroke="none">+Perestanovka(k:const int)</text>
    </g>
  </g>
</svg>
