<?xml version="1.0" encoding="UTF-8"?><svg xmlns="http://www.w3.org/2000/svg" xmlns:xlink="http://www.w3.org/1999/xlink" fill-opacity="1" color-rendering="auto" color-interpolation="auto" text-rendering="auto" stroke="black" stroke-linecap="square" width="2028" stroke-miterlimit="10" shape-rendering="auto" stroke-opacity="1" fill="black" stroke-dasharray="none" font-weight="normal" stroke-width="1" height="442" font-family="'Dialog'" font-style="normal" stroke-linejoin="miter" font-size="12px" stroke-dashoffset="0" image-rendering="auto">
  <!--Generated by ySVG 2.5-->
  <defs id="genericDefs"/>
  <g>
    <defs id="defs1">
      <linearGradient x1="-369.2025" gradientUnits="userSpaceOnUse" x2="-72.5541" y1="-1809.791" y2="-1739.8934" id="linearGradient1" spreadMethod="reflect">
        <stop stop-opacity="1" stop-color="rgb(232,238,247)" offset="0%"/>
        <stop stop-opacity="1" stop-color="rgb(183,201,227)" offset="100%"/>
      </linearGradient>
      <linearGradient x1="-51.6507" gradientUnits="userSpaceOnUse" x2="219.3493" y1="-1809.791" y2="-1739.8934" id="linearGradient2" spreadMethod="reflect">
        <stop stop-opacity="1" stop-color="rgb(232,238,247)" offset="0%"/>
        <stop stop-opacity="1" stop-color="rgb(183,201,227)" offset="100%"/>
      </linearGradient>
      <linearGradient x1="240.2526" gradientUnits="userSpaceOnUse" x2="904.2678" y1="-1809.791" y2="-1739.8934" id="linearGradient3" spreadMethod="reflect">
        <stop stop-opacity="1" stop-color="rgb(232,238,247)" offset="0%"/>
        <stop stop-opacity="1" stop-color="rgb(183,201,227)" offset="100%"/>
      </linearGradient>
      <linearGradient x1="926.2427" gradientUnits="userSpaceOnUse" x2="1443.188" y1="-1809.791" y2="-1739.8934" id="linearGradient4" spreadMethod="reflect">
        <stop stop-opacity="1" stop-color="rgb(232,238,247)" offset="0%"/>
        <stop stop-opacity="1" stop-color="rgb(183,201,227)" offset="100%"/>
      </linearGradient>
      <linearGradient x1="-343.5541" gradientUnits="userSpaceOnUse" x2="-108.4346" y1="-2118.7593" y2="-2048.8618" id="linearGradient5" spreadMethod="reflect">
        <stop stop-opacity="1" stop-color="rgb(232,238,247)" offset="0%"/>
        <stop stop-opacity="1" stop-color="rgb(183,201,227)" offset="100%"/>
      </linearGradient>
      <linearGradient x1="-87.5541" gradientUnits="userSpaceOnUse" x2="182.5654" y1="-2118.7593" y2="-2048.8618" id="linearGradient6" spreadMethod="reflect">
        <stop stop-opacity="1" stop-color="rgb(232,238,247)" offset="0%"/>
        <stop stop-opacity="1" stop-color="rgb(183,201,227)" offset="100%"/>
      </linearGradient>
      <linearGradient x1="203.4459" gradientUnits="userSpaceOnUse" x2="809.4205" y1="-2118.7593" y2="-2048.8618" id="linearGradient7" spreadMethod="reflect">
        <stop stop-opacity="1" stop-color="rgb(232,238,247)" offset="0%"/>
        <stop stop-opacity="1" stop-color="rgb(183,201,227)" offset="100%"/>
      </linearGradient>
      <linearGradient x1="840.6354" gradientUnits="userSpaceOnUse" x2="1360.4686" y1="-2118.7593" y2="-2048.8618" id="linearGradient8" spreadMethod="reflect">
        <stop stop-opacity="1" stop-color="rgb(232,238,247)" offset="0%"/>
        <stop stop-opacity="1" stop-color="rgb(183,201,227)" offset="100%"/>
      </linearGradient>
      <clipPath clipPathUnits="userSpaceOnUse" id="clipPath1">
        <path d="M0 0 L2028 0 L2028 442 L0 442 L0 0 Z"/>
      </clipPath>
      <clipPath clipPathUnits="userSpaceOnUse" id="clipPath2">
        <path d="M-472 -2161 L1556 -2161 L1556 -1719 L-472 -1719 L-472 -2161 Z"/>
      </clipPath>
    </defs>
    <g fill="white" text-rendering="geometricPrecision" shape-rendering="geometricPrecision" transform="translate(472,2161)" stroke="white">
      <rect x="-472" width="2028" height="442" y="-2161" clip-path="url(#clipPath2)" stroke="none"/>
    </g>
    <g fill="rgb(255,204,0)" text-rendering="geometricPrecision" shape-rendering="geometricPrecision" transform="matrix(1,0,0,1,472,2161)" stroke="rgb(255,204,0)">
      <ellipse rx="33.8089" ry="34.9488" clip-path="url(#clipPath2)" cx="-422.9115" cy="-1774.8422" stroke="none"/>
    </g>
    <g text-rendering="geometricPrecision" stroke-miterlimit="1.45" shape-rendering="geometricPrecision" transform="matrix(1,0,0,1,472,2161)" stroke-linecap="butt">
      <ellipse rx="33.8089" fill="none" ry="34.9488" clip-path="url(#clipPath2)" cx="-422.9115" cy="-1774.8422"/>
      <text x="-442.2299" xml:space="preserve" y="-1823.6367" clip-path="url(#clipPath2)" font-family="sans-serif" stroke="none">rashifr</text>
    </g>
    <g fill="url(#linearGradient1)" text-rendering="geometricPrecision" shape-rendering="geometricPrecision" transform="matrix(1,0,0,1,472,2161)" stroke="url(#linearGradient1)">
      <rect x="-369.2025" y="-1809.791" clip-path="url(#clipPath2)" width="296.6484" rx="34.9488" ry="34.9488" height="69.8976" stroke="none"/>
    </g>
    <g text-rendering="geometricPrecision" stroke-miterlimit="1.45" shape-rendering="geometricPrecision" transform="matrix(1,0,0,1,472,2161)" stroke-linecap="butt">
      <rect x="-369.2025" y="-1809.791" clip-path="url(#clipPath2)" fill="none" width="296.6484" rx="34.9488" ry="34.9488" height="69.8976"/>
      <text x="-364.3226" font-size="13px" y="-1770.3417" clip-path="url(#clipPath2)" font-family="sans-serif" stroke="none" xml:space="preserve">Узнать длину расшифровываемой строки</text>
    </g>
    <g fill="url(#linearGradient2)" text-rendering="geometricPrecision" shape-rendering="geometricPrecision" transform="matrix(1,0,0,1,472,2161)" stroke="url(#linearGradient2)">
      <rect x="-51.6507" y="-1809.791" clip-path="url(#clipPath2)" width="271" rx="34.9488" ry="34.9488" height="69.8976" stroke="none"/>
    </g>
    <g text-rendering="geometricPrecision" stroke-miterlimit="1.45" shape-rendering="geometricPrecision" transform="matrix(1,0,0,1,472,2161)" stroke-linecap="butt">
      <rect x="-51.6507" y="-1809.791" clip-path="url(#clipPath2)" fill="none" width="271" rx="34.9488" ry="34.9488" height="69.8976"/>
      <text x="-44.8109" xml:space="preserve" y="-1777.6722" clip-path="url(#clipPath2)" font-family="sans-serif" stroke="none">Рассчитать количество строк таблицы и</text>
      <text x="-30.2562" xml:space="preserve" y="-1763.7035" clip-path="url(#clipPath2)" font-family="sans-serif" stroke="none">количество недостоющих символов</text>
    </g>
    <g fill="url(#linearGradient3)" text-rendering="geometricPrecision" shape-rendering="geometricPrecision" transform="matrix(1,0,0,1,472,2161)" stroke="url(#linearGradient3)">
      <rect x="240.2526" y="-1809.791" clip-path="url(#clipPath2)" width="664.0152" rx="34.9488" ry="34.9488" height="69.8976" stroke="none"/>
    </g>
    <g text-rendering="geometricPrecision" stroke-miterlimit="1.45" shape-rendering="geometricPrecision" transform="matrix(1,0,0,1,472,2161)" stroke-linecap="butt">
      <rect x="240.2526" y="-1809.791" clip-path="url(#clipPath2)" fill="none" width="664.0152" rx="34.9488" ry="34.9488" height="69.8976"/>
      <text x="241.2775" font-size="13px" y="-1770.3417" clip-path="url(#clipPath2)" font-family="sans-serif" stroke="none" xml:space="preserve">Записать символы расшифровываемой строки в двумерный массив сверху вниз слева направо </text>
    </g>
    <g fill="url(#linearGradient4)" text-rendering="geometricPrecision" shape-rendering="geometricPrecision" transform="matrix(1,0,0,1,472,2161)" stroke="url(#linearGradient4)">
      <rect x="926.2426" y="-1809.791" clip-path="url(#clipPath2)" width="516.9454" rx="34.9488" ry="34.9488" height="69.8976" stroke="none"/>
    </g>
    <g text-rendering="geometricPrecision" stroke-miterlimit="1.45" shape-rendering="geometricPrecision" transform="matrix(1,0,0,1,472,2161)" stroke-linecap="butt">
      <rect x="926.2426" y="-1809.791" clip-path="url(#clipPath2)" fill="none" width="516.9454" rx="34.9488" ry="34.9488" height="69.8976"/>
      <text x="926.6958" font-size="13px" y="-1770.3417" clip-path="url(#clipPath2)" font-family="sans-serif" stroke="none" xml:space="preserve">Прочитать символы из массива справа налево сверху вниз в новую строку</text>
    </g>
    <g text-rendering="geometricPrecision" stroke-miterlimit="1.45" shape-rendering="geometricPrecision" transform="matrix(1,0,0,1,472,2161)" stroke-linecap="butt">
      <circle fill="none" r="39.9488" clip-path="url(#clipPath2)" cx="1500.1437" cy="-1774.8422"/>
    </g>
    <g fill="rgb(255,204,0)" text-rendering="geometricPrecision" shape-rendering="geometricPrecision" transform="matrix(1,0,0,1,472,2161)" stroke="rgb(255,204,0)">
      <ellipse rx="34.9808" ry="34.9488" clip-path="url(#clipPath2)" cx="1500.1437" cy="-1774.8422" stroke="none"/>
    </g>
    <g text-rendering="geometricPrecision" stroke-miterlimit="1.45" shape-rendering="geometricPrecision" transform="matrix(1,0,0,1,472,2161)" stroke-linecap="butt">
      <ellipse rx="34.9808" fill="none" ry="34.9488" clip-path="url(#clipPath2)" cx="1500.1437" cy="-1774.8422"/>
    </g>
    <g fill="rgb(255,204,0)" text-rendering="geometricPrecision" shape-rendering="geometricPrecision" transform="matrix(1,0,0,1,472,2161)" stroke="rgb(255,204,0)">
      <ellipse rx="33.8089" ry="34.9488" clip-path="url(#clipPath2)" cx="-407.3629" cy="-2083.8105" stroke="none"/>
    </g>
    <g text-rendering="geometricPrecision" stroke-miterlimit="1.45" shape-rendering="geometricPrecision" transform="matrix(1,0,0,1,472,2161)" stroke-linecap="butt">
      <ellipse rx="33.8089" fill="none" ry="34.9488" clip-path="url(#clipPath2)" cx="-407.3629" cy="-2083.8105"/>
      <text x="-420.5377" xml:space="preserve" y="-2132.605" clip-path="url(#clipPath2)" font-family="sans-serif" stroke="none">shifr</text>
    </g>
    <g fill="url(#linearGradient5)" text-rendering="geometricPrecision" shape-rendering="geometricPrecision" transform="matrix(1,0,0,1,472,2161)" stroke="url(#linearGradient5)">
      <rect x="-343.5541" y="-2118.7593" clip-path="url(#clipPath2)" width="235.1194" rx="34.9488" ry="34.9488" height="69.8976" stroke="none"/>
    </g>
    <g text-rendering="geometricPrecision" stroke-miterlimit="1.45" shape-rendering="geometricPrecision" transform="matrix(1,0,0,1,472,2161)" stroke-linecap="butt">
      <rect x="-343.5541" y="-2118.7593" clip-path="url(#clipPath2)" fill="none" width="235.1194" rx="34.9488" ry="34.9488" height="69.8976"/>
      <text x="-340.8488" font-size="13px" y="-2079.3101" clip-path="url(#clipPath2)" font-family="sans-serif" stroke="none" xml:space="preserve">Узнать длину шифруемой строки</text>
    </g>
    <g fill="url(#linearGradient6)" text-rendering="geometricPrecision" shape-rendering="geometricPrecision" transform="matrix(1,0,0,1,472,2161)" stroke="url(#linearGradient6)">
      <rect x="-87.5541" y="-2118.7593" clip-path="url(#clipPath2)" width="270.1194" rx="34.9488" ry="34.9488" height="69.8976" stroke="none"/>
    </g>
    <g text-rendering="geometricPrecision" stroke-miterlimit="1.45" shape-rendering="geometricPrecision" transform="matrix(1,0,0,1,472,2161)" stroke-linecap="butt">
      <rect x="-87.5541" y="-2118.7593" clip-path="url(#clipPath2)" fill="none" width="270.1194" rx="34.9488" ry="34.9488" height="69.8976"/>
      <text x="-85.5856" font-size="13px" y="-2079.3101" clip-path="url(#clipPath2)" font-family="sans-serif" stroke="none" xml:space="preserve">Рассчитать количество строк таблицы</text>
    </g>
    <g fill="url(#linearGradient7)" text-rendering="geometricPrecision" shape-rendering="geometricPrecision" transform="matrix(1,0,0,1,472,2161)" stroke="url(#linearGradient7)">
      <rect x="203.4459" y="-2118.7593" clip-path="url(#clipPath2)" width="605.9746" rx="34.9488" ry="34.9488" height="69.8976" stroke="none"/>
    </g>
    <g text-rendering="geometricPrecision" stroke-miterlimit="1.45" shape-rendering="geometricPrecision" transform="matrix(1,0,0,1,472,2161)" stroke-linecap="butt">
      <rect x="203.4459" y="-2118.7593" clip-path="url(#clipPath2)" fill="none" width="605.9746" rx="34.9488" ry="34.9488" height="69.8976"/>
      <text x="206.1066" font-size="13px" y="-2079.3101" clip-path="url(#clipPath2)" font-family="sans-serif" stroke="none" xml:space="preserve">Записать символы шифруемой строки в двумерный массив слева направо сверху вниз</text>
    </g>
    <g fill="url(#linearGradient8)" text-rendering="geometricPrecision" shape-rendering="geometricPrecision" transform="matrix(1,0,0,1,472,2161)" stroke="url(#linearGradient8)">
      <rect x="840.6354" y="-2118.7593" clip-path="url(#clipPath2)" width="519.8332" rx="34.9488" ry="34.9488" height="69.8976" stroke="none"/>
    </g>
    <g text-rendering="geometricPrecision" stroke-miterlimit="1.45" shape-rendering="geometricPrecision" transform="matrix(1,0,0,1,472,2161)" stroke-linecap="butt">
      <rect x="840.6354" y="-2118.7593" clip-path="url(#clipPath2)" fill="none" width="519.8332" rx="34.9488" ry="34.9488" height="69.8976"/>
      <text x="842.5325" font-size="13px" y="-2079.3101" clip-path="url(#clipPath2)" font-family="sans-serif" stroke="none" xml:space="preserve">Прочитать символы из массива сверху вниз справа налево в новую строку</text>
    </g>
    <g text-rendering="geometricPrecision" stroke-miterlimit="1.45" shape-rendering="geometricPrecision" transform="matrix(1,0,0,1,472,2161)" stroke-linecap="butt">
      <circle fill="none" r="39.9488" clip-path="url(#clipPath2)" cx="1428.9478" cy="-2083.8105"/>
    </g>
    <g fill="rgb(255,204,0)" text-rendering="geometricPrecision" shape-rendering="geometricPrecision" transform="matrix(1,0,0,1,472,2161)" stroke="rgb(255,204,0)">
      <ellipse rx="33.8089" ry="34.9488" clip-path="url(#clipPath2)" cx="1428.9478" cy="-2083.8105" stroke="none"/>
    </g>
    <g text-rendering="geometricPrecision" stroke-miterlimit="1.45" shape-rendering="geometricPrecision" transform="matrix(1,0,0,1,472,2161)" stroke-linecap="butt">
      <ellipse rx="33.8089" fill="none" ry="34.9488" clip-path="url(#clipPath2)" cx="1428.9478" cy="-2083.8105"/>
      <path fill="none" d="M-389.1027 -1774.8422 L-377.1703 -1774.8422" clip-path="url(#clipPath2)"/>
      <path d="M-369.1703 -1774.8422 L-381.1703 -1779.8422 L-378.1703 -1774.8422 L-381.1703 -1769.8422 Z" clip-path="url(#clipPath2)" stroke="none"/>
      <path fill="none" d="M-72.5691 -1774.8422 L-59.6802 -1774.8422" clip-path="url(#clipPath2)"/>
      <path d="M-51.6802 -1774.8422 L-63.6802 -1779.8422 L-60.6802 -1774.8422 L-63.6802 -1769.8422 Z" clip-path="url(#clipPath2)" stroke="none"/>
      <path fill="none" d="M219.3368 -1774.8422 L232.2313 -1774.8422" clip-path="url(#clipPath2)"/>
      <path d="M240.2313 -1774.8422 L228.2313 -1779.8422 L231.2313 -1774.8422 L228.2313 -1769.8422 Z" clip-path="url(#clipPath2)" stroke="none"/>
      <path fill="none" d="M904.2435 -1774.8422 L918.2581 -1774.8422" clip-path="url(#clipPath2)"/>
      <path d="M926.2581 -1774.8422 L914.2581 -1779.8422 L917.2581 -1774.8422 L914.2581 -1769.8422 Z" clip-path="url(#clipPath2)" stroke="none"/>
      <path fill="none" d="M1443.1957 -1774.8422 L1452.1855 -1774.8422" clip-path="url(#clipPath2)"/>
      <path d="M1460.1855 -1774.8422 L1448.1855 -1779.8422 L1451.1855 -1774.8422 L1448.1855 -1769.8422 Z" clip-path="url(#clipPath2)" stroke="none"/>
      <path fill="none" d="M-373.5541 -2083.8105 L-351.545 -2083.8105" clip-path="url(#clipPath2)"/>
      <path d="M-343.545 -2083.8105 L-355.545 -2088.8105 L-352.545 -2083.8105 L-355.545 -2078.8105 Z" clip-path="url(#clipPath2)" stroke="none"/>
      <path fill="none" d="M-108.4414 -2083.8105 L-95.5393 -2083.8105" clip-path="url(#clipPath2)"/>
      <path d="M-87.5393 -2083.8105 L-99.5393 -2088.8105 L-96.5393 -2083.8105 L-99.5393 -2078.8105 Z" clip-path="url(#clipPath2)" stroke="none"/>
      <path fill="none" d="M182.5453 -2083.8105 L195.4604 -2083.8105" clip-path="url(#clipPath2)"/>
      <path d="M203.4604 -2083.8105 L191.4604 -2088.8105 L194.4604 -2083.8105 L191.4604 -2078.8105 Z" clip-path="url(#clipPath2)" stroke="none"/>
      <path fill="none" d="M809.4034 -2083.8105 L832.6436 -2083.8105" clip-path="url(#clipPath2)"/>
      <path d="M840.6436 -2083.8105 L828.6436 -2088.8105 L831.6436 -2083.8105 L828.6436 -2078.8105 Z" clip-path="url(#clipPath2)" stroke="none"/>
      <path fill="none" d="M1360.4385 -2083.8105 L1380.9729 -2083.8105" clip-path="url(#clipPath2)"/>
      <path d="M1388.9729 -2083.8105 L1376.9729 -2088.8105 L1379.9729 -2083.8105 L1376.9729 -2078.8105 Z" clip-path="url(#clipPath2)" stroke="none"/>
    </g>
  </g>
</svg>
