<?xml version="1.0" encoding="UTF-8"?><svg xmlns="http://www.w3.org/2000/svg" xmlns:xlink="http://www.w3.org/1999/xlink" fill-opacity="1" color-rendering="auto" color-interpolation="auto" text-rendering="auto" stroke="black" stroke-linecap="square" width="1429" stroke-miterlimit="10" shape-rendering="auto" stroke-opacity="1" fill="black" stroke-dasharray="none" font-weight="normal" stroke-width="1" height="1287" font-family="'Dialog'" font-style="normal" stroke-linejoin="miter" font-size="12px" stroke-dashoffset="0" image-rendering="auto">
  <!--Generated by ySVG 2.5-->
  <defs id="genericDefs"/>
  <g>
    <defs id="defs1">
      <linearGradient x1="556.7562" gradientUnits="userSpaceOnUse" x2="824.7562" y1="-530.825" y2="-439.825" id="linearGradient1" spreadMethod="reflect">
        <stop stop-opacity="1" stop-color="rgb(232,238,247)" offset="0%"/>
        <stop stop-opacity="1" stop-color="rgb(183,201,227)" offset="100%"/>
      </linearGradient>
      <linearGradient x1="554.5031" gradientUnits="userSpaceOnUse" x2="822.5031" y1="-373.625" y2="-282.625" id="linearGradient2" spreadMethod="reflect">
        <stop stop-opacity="1" stop-color="rgb(232,238,247)" offset="0%"/>
        <stop stop-opacity="1" stop-color="rgb(183,201,227)" offset="100%"/>
      </linearGradient>
      <linearGradient x1="87.3594" gradientUnits="userSpaceOnUse" x2="390.8594" y1="-248.2344" y2="-141.9844" id="linearGradient3" spreadMethod="reflect">
        <stop stop-opacity="1" stop-color="rgb(232,238,247)" offset="0%"/>
        <stop stop-opacity="1" stop-color="rgb(183,201,227)" offset="100%"/>
      </linearGradient>
      <linearGradient x1="556.7562" gradientUnits="userSpaceOnUse" x2="824.7562" y1="-667.3133" y2="-576.3133" id="linearGradient4" spreadMethod="reflect">
        <stop stop-opacity="1" stop-color="rgb(232,238,247)" offset="0%"/>
        <stop stop-opacity="1" stop-color="rgb(183,201,227)" offset="100%"/>
      </linearGradient>
      <linearGradient x1="-153.4598" gradientUnits="userSpaceOnUse" x2="44.9402" y1="-99.7617" y2="-15.7617" id="linearGradient5" spreadMethod="reflect">
        <stop stop-opacity="1" stop-color="rgb(232,238,247)" offset="0%"/>
        <stop stop-opacity="1" stop-color="rgb(183,201,227)" offset="100%"/>
      </linearGradient>
      <linearGradient x1="381.3594" gradientUnits="userSpaceOnUse" x2="684.8594" y1="-110.8867" y2="-4.6367" id="linearGradient6" spreadMethod="reflect">
        <stop stop-opacity="1" stop-color="rgb(232,238,247)" offset="0%"/>
        <stop stop-opacity="1" stop-color="rgb(183,201,227)" offset="100%"/>
      </linearGradient>
      <linearGradient x1="173.3763" gradientUnits="userSpaceOnUse" x2="371.7763" y1="67.3561" y2="151.3561" id="linearGradient7" spreadMethod="reflect">
        <stop stop-opacity="1" stop-color="rgb(232,238,247)" offset="0%"/>
        <stop stop-opacity="1" stop-color="rgb(183,201,227)" offset="100%"/>
      </linearGradient>
      <linearGradient x1="643.5081" gradientUnits="userSpaceOnUse" x2="947.0081" y1="56.2311" y2="162.4811" id="linearGradient8" spreadMethod="reflect">
        <stop stop-opacity="1" stop-color="rgb(232,238,247)" offset="0%"/>
        <stop stop-opacity="1" stop-color="rgb(183,201,227)" offset="100%"/>
      </linearGradient>
      <linearGradient x1="596.8918" gradientUnits="userSpaceOnUse" x2="864.8918" y1="497.5872" y2="588.5872" id="linearGradient9" spreadMethod="reflect">
        <stop stop-opacity="1" stop-color="rgb(232,238,247)" offset="0%"/>
        <stop stop-opacity="1" stop-color="rgb(183,201,227)" offset="100%"/>
      </linearGradient>
      <linearGradient x1="-153.4598" gradientUnits="userSpaceOnUse" x2="44.9402" y1="123.1315" y2="207.1315" id="linearGradient10" spreadMethod="reflect">
        <stop stop-opacity="1" stop-color="rgb(232,238,247)" offset="0%"/>
        <stop stop-opacity="1" stop-color="rgb(183,201,227)" offset="100%"/>
      </linearGradient>
      <linearGradient x1="-153.4598" gradientUnits="userSpaceOnUse" x2="44.9402" y1="302.907" y2="386.907" id="linearGradient11" spreadMethod="reflect">
        <stop stop-opacity="1" stop-color="rgb(232,238,247)" offset="0%"/>
        <stop stop-opacity="1" stop-color="rgb(183,201,227)" offset="100%"/>
      </linearGradient>
      <linearGradient x1="171.8763" gradientUnits="userSpaceOnUse" x2="370.2763" y1="223.3489" y2="307.3489" id="linearGradient12" spreadMethod="reflect">
        <stop stop-opacity="1" stop-color="rgb(232,238,247)" offset="0%"/>
        <stop stop-opacity="1" stop-color="rgb(183,201,227)" offset="100%"/>
      </linearGradient>
      <linearGradient x1="171.8763" gradientUnits="userSpaceOnUse" x2="370.2763" y1="360.6965" y2="444.6965" id="linearGradient13" spreadMethod="reflect">
        <stop stop-opacity="1" stop-color="rgb(232,238,247)" offset="0%"/>
        <stop stop-opacity="1" stop-color="rgb(183,201,227)" offset="100%"/>
      </linearGradient>
      <linearGradient x1="460.55" gradientUnits="userSpaceOnUse" x2="658.95" y1="223.3489" y2="307.3489" id="linearGradient14" spreadMethod="reflect">
        <stop stop-opacity="1" stop-color="rgb(232,238,247)" offset="0%"/>
        <stop stop-opacity="1" stop-color="rgb(183,201,227)" offset="100%"/>
      </linearGradient>
      <clipPath clipPathUnits="userSpaceOnUse" id="clipPath1">
        <path d="M0 0 L1429 0 L1429 1287 L0 1287 L0 0 Z"/>
      </clipPath>
      <clipPath clipPathUnits="userSpaceOnUse" id="clipPath2">
        <path d="M-171 -683 L1258 -683 L1258 604 L-171 604 L-171 -683 Z"/>
      </clipPath>
    </defs>
    <g fill="white" text-rendering="geometricPrecision" shape-rendering="geometricPrecision" transform="translate(171,683)" stroke="white">
      <rect x="-171" width="1429" height="1287" y="-683" clip-path="url(#clipPath2)" stroke="none"/>
    </g>
    <g fill="url(#linearGradient1)" text-rendering="geometricPrecision" shape-rendering="geometricPrecision" transform="matrix(1,0,0,1,171,683)" stroke="url(#linearGradient1)">
      <path d="M579.9612 -530.825 L824.7562 -530.825 L801.5513 -439.825 L556.7562 -439.825 Z" stroke="none" clip-path="url(#clipPath2)"/>
    </g>
    <g text-rendering="geometricPrecision" stroke-miterlimit="1.45" shape-rendering="geometricPrecision" transform="matrix(1,0,0,1,171,683)" stroke-linecap="butt">
      <path fill="none" d="M579.9612 -530.825 L824.7562 -530.825 L801.5513 -439.825 L556.7562 -439.825 Z" clip-path="url(#clipPath2)"/>
      <text x="631.5311" font-size="18px" y="-500.0467" clip-path="url(#clipPath2)" font-family="sans-serif" stroke="none" xml:space="preserve">Ввод целого</text>
      <text x="657.6522" font-size="18px" y="-479.0936" clip-path="url(#clipPath2)" font-family="sans-serif" stroke="none" xml:space="preserve"> числа </text>
      <text x="636.7914" font-size="18px" y="-458.1404" clip-path="url(#clipPath2)" font-family="sans-serif" stroke="none" xml:space="preserve">от 0 до 100</text>
    </g>
    <g fill="url(#linearGradient2)" text-rendering="geometricPrecision" shape-rendering="geometricPrecision" transform="matrix(1,0,0,1,171,683)" stroke="url(#linearGradient2)">
      <path d="M688.5031 -373.625 L822.5031 -328.125 L688.5031 -282.625 L554.5031 -328.125 Z" stroke="none" clip-path="url(#clipPath2)"/>
    </g>
    <g text-rendering="geometricPrecision" stroke-miterlimit="1.45" shape-rendering="geometricPrecision" transform="matrix(1,0,0,1,171,683)" stroke-linecap="butt">
      <path fill="none" d="M688.5031 -373.625 L822.5031 -328.125 L688.5031 -282.625 L554.5031 -328.125 Z" clip-path="url(#clipPath2)"/>
      <text x="609.7975" font-size="14px" y="-331.4268" clip-path="url(#clipPath2)" font-family="sans-serif" stroke="none" xml:space="preserve">Число в промежутке </text>
      <text x="646.5305" font-size="14px" y="-315.1299" clip-path="url(#clipPath2)" font-family="sans-serif" stroke="none" xml:space="preserve">от 0 до 100</text>
    </g>
    <g fill="url(#linearGradient3)" text-rendering="geometricPrecision" shape-rendering="geometricPrecision" transform="matrix(1,0,0,1,171,683)" stroke="url(#linearGradient3)">
      <path d="M239.1094 -248.2344 L390.8594 -195.1094 L239.1094 -141.9844 L87.3594 -195.1094 Z" stroke="none" clip-path="url(#clipPath2)"/>
    </g>
    <g text-rendering="geometricPrecision" stroke-miterlimit="1.45" shape-rendering="geometricPrecision" transform="matrix(1,0,0,1,171,683)" stroke-linecap="butt">
      <path fill="none" d="M239.1094 -248.2344 L390.8594 -195.1094 L239.1094 -141.9844 L87.3594 -195.1094 Z" clip-path="url(#clipPath2)"/>
      <text x="170.0342" font-size="13px" y="-205.7417" clip-path="url(#clipPath2)" font-family="sans-serif" stroke="none" xml:space="preserve">Остаток от деления</text>
      <text x="139.5813" font-size="13px" y="-190.6089" clip-path="url(#clipPath2)" font-family="sans-serif" stroke="none" xml:space="preserve">на 10 равен 1. Число больше</text>
      <text x="148.7664" font-size="13px" y="-175.4761" clip-path="url(#clipPath2)" font-family="sans-serif" stroke="none" xml:space="preserve">или равно 21 или равно 1.</text>
    </g>
    <g fill="url(#linearGradient4)" text-rendering="geometricPrecision" shape-rendering="geometricPrecision" transform="matrix(1,0,0,1,171,683)" stroke="url(#linearGradient4)">
      <rect x="556.7563" y="-667.3133" clip-path="url(#clipPath2)" width="268" rx="45.5" ry="45.5" height="91" stroke="none"/>
    </g>
    <g text-rendering="geometricPrecision" stroke-miterlimit="1.45" shape-rendering="geometricPrecision" transform="matrix(1,0,0,1,171,683)" stroke-linecap="butt">
      <rect x="556.7563" y="-667.3133" clip-path="url(#clipPath2)" fill="none" width="268" rx="45.5" ry="45.5" height="91"/>
      <text x="648.7435" font-size="22px" y="-614.1971" clip-path="url(#clipPath2)" font-family="sans-serif" stroke="none" xml:space="preserve">Начало</text>
    </g>
    <g fill="url(#linearGradient5)" text-rendering="geometricPrecision" shape-rendering="geometricPrecision" transform="matrix(1,0,0,1,171,683)" stroke="url(#linearGradient5)">
      <path d="M-153.4598 -99.7617 L44.9402 -99.7617 L44.9402 -15.7617 L-153.4598 -15.7617 Z" stroke="none" clip-path="url(#clipPath2)"/>
    </g>
    <g text-rendering="geometricPrecision" stroke-miterlimit="1.45" shape-rendering="geometricPrecision" transform="matrix(1,0,0,1,171,683)" stroke-linecap="butt">
      <path fill="none" d="M-153.4598 -99.7617 L44.9402 -99.7617 L44.9402 -15.7617 L-153.4598 -15.7617 Z" clip-path="url(#clipPath2)"/>
      <text x="-142.2208" font-size="16px" y="-61.5352" clip-path="url(#clipPath2)" font-family="sans-serif" stroke="none" xml:space="preserve">Удаление окончания</text>
      <text x="-111.9864" font-size="16px" y="-42.9102" clip-path="url(#clipPath2)" font-family="sans-serif" stroke="none" xml:space="preserve">слова "было".</text>
    </g>
    <g fill="url(#linearGradient6)" text-rendering="geometricPrecision" shape-rendering="geometricPrecision" transform="matrix(1,0,0,1,171,683)" stroke="url(#linearGradient6)">
      <path d="M533.1094 -110.8867 L684.8594 -57.7617 L533.1094 -4.6367 L381.3594 -57.7617 Z" stroke="none" clip-path="url(#clipPath2)"/>
    </g>
    <g text-rendering="geometricPrecision" stroke-miterlimit="1.45" shape-rendering="geometricPrecision" transform="matrix(1,0,0,1,171,683)" stroke-linecap="butt">
      <path fill="none" d="M533.1094 -110.8867 L684.8594 -57.7617 L533.1094 -4.6367 L381.3594 -57.7617 Z" clip-path="url(#clipPath2)"/>
      <text x="467.4404" xml:space="preserve" y="-67.5762" clip-path="url(#clipPath2)" font-family="sans-serif" stroke="none">Остаток от деления </text>
      <text x="451.8398" xml:space="preserve" y="-53.6074" clip-path="url(#clipPath2)" font-family="sans-serif" stroke="none">на 10 больше 1 и меньше</text>
      <text x="435.3164" xml:space="preserve" y="-39.6387" clip-path="url(#clipPath2)" font-family="sans-serif" stroke="none">5. Число больше или равно 21.</text>
    </g>
    <g fill="url(#linearGradient7)" text-rendering="geometricPrecision" shape-rendering="geometricPrecision" transform="matrix(1,0,0,1,171,683)" stroke="url(#linearGradient7)">
      <path d="M173.3763 67.3561 L371.7763 67.3561 L371.7763 151.3561 L173.3763 151.3561 Z" stroke="none" clip-path="url(#clipPath2)"/>
    </g>
    <g text-rendering="geometricPrecision" stroke-miterlimit="1.45" shape-rendering="geometricPrecision" transform="matrix(1,0,0,1,171,683)" stroke-linecap="butt">
      <path fill="none" d="M173.3763 67.3561 L371.7763 67.3561 L371.7763 151.3561 L173.3763 151.3561 Z" clip-path="url(#clipPath2)"/>
      <text x="186.6808" xml:space="preserve" y="106.526" clip-path="url(#clipPath2)" font-family="sans-serif" stroke="none">Удаление окончания слова</text>
      <text x="232.0792" xml:space="preserve" y="120.4948" clip-path="url(#clipPath2)" font-family="sans-serif" stroke="none">"верблюдов"</text>
    </g>
    <g fill="url(#linearGradient8)" text-rendering="geometricPrecision" shape-rendering="geometricPrecision" transform="matrix(1,0,0,1,171,683)" stroke="url(#linearGradient8)">
      <path d="M795.2581 56.2311 L947.0081 109.3561 L795.2581 162.4811 L643.5081 109.3561 Z" stroke="none" clip-path="url(#clipPath2)"/>
    </g>
    <g text-rendering="geometricPrecision" stroke-miterlimit="1.45" shape-rendering="geometricPrecision" transform="matrix(1,0,0,1,171,683)" stroke-linecap="butt">
      <path fill="none" d="M795.2581 56.2311 L947.0081 109.3561 L795.2581 162.4811 L643.5081 109.3561 Z" clip-path="url(#clipPath2)"/>
      <text x="724.1167" font-size="13px" y="98.7238" clip-path="url(#clipPath2)" font-family="sans-serif" stroke="none" xml:space="preserve">Остаток от деления </text>
      <text x="731.4958" font-size="13px" y="113.8566" clip-path="url(#clipPath2)" font-family="sans-serif" stroke="none" xml:space="preserve">на 10 равен 0 или </text>
      <text x="726.2146" font-size="13px" y="128.9894" clip-path="url(#clipPath2)" font-family="sans-serif" stroke="none" xml:space="preserve">больше или равен 5</text>
    </g>
    <g fill="url(#linearGradient9)" text-rendering="geometricPrecision" shape-rendering="geometricPrecision" transform="matrix(1,0,0,1,171,683)" stroke="url(#linearGradient9)">
      <rect x="596.8918" y="497.5872" clip-path="url(#clipPath2)" width="268" rx="45.5" ry="45.5" height="91" stroke="none"/>
    </g>
    <g text-rendering="geometricPrecision" stroke-miterlimit="1.45" shape-rendering="geometricPrecision" transform="matrix(1,0,0,1,171,683)" stroke-linecap="butt">
      <rect x="596.8918" y="497.5872" clip-path="url(#clipPath2)" fill="none" width="268" rx="45.5" ry="45.5" height="91"/>
      <text x="694.9055" font-size="22px" y="550.7034" clip-path="url(#clipPath2)" font-family="sans-serif" stroke="none" xml:space="preserve">Конец</text>
    </g>
    <g fill="url(#linearGradient10)" text-rendering="geometricPrecision" shape-rendering="geometricPrecision" transform="matrix(1,0,0,1,171,683)" stroke="url(#linearGradient10)">
      <path d="M-153.4598 123.1315 L44.9402 123.1315 L44.9402 207.1315 L-153.4598 207.1315 Z" stroke="none" clip-path="url(#clipPath2)"/>
    </g>
    <g text-rendering="geometricPrecision" stroke-miterlimit="1.45" shape-rendering="geometricPrecision" transform="matrix(1,0,0,1,171,683)" stroke-linecap="butt">
      <path fill="none" d="M-153.4598 123.1315 L44.9402 123.1315 L44.9402 207.1315 L-153.4598 207.1315 Z" clip-path="url(#clipPath2)"/>
      <text x="-153.4395" font-size="16px" y="170.6706" clip-path="url(#clipPath2)" font-family="sans-serif" stroke="none" xml:space="preserve">Вставка числа в строку</text>
    </g>
    <g fill="url(#linearGradient11)" text-rendering="geometricPrecision" shape-rendering="geometricPrecision" transform="matrix(1,0,0,1,171,683)" stroke="url(#linearGradient11)">
      <path d="M-153.4598 302.907 L44.9402 302.907 L44.9402 386.907 L-153.4598 386.907 Z" stroke="none" clip-path="url(#clipPath2)"/>
    </g>
    <g text-rendering="geometricPrecision" stroke-miterlimit="1.45" shape-rendering="geometricPrecision" transform="matrix(1,0,0,1,171,683)" stroke-linecap="butt">
      <path fill="none" d="M-153.4598 302.907 L44.9402 302.907 L44.9402 386.907 L-153.4598 386.907 Z" clip-path="url(#clipPath2)"/>
      <text x="-149.3795" font-size="13px" y="341.8411" clip-path="url(#clipPath2)" font-family="sans-serif" stroke="none" xml:space="preserve">Удаление окончания слова </text>
      <text x="-98.1317" font-size="13px" y="356.9739" clip-path="url(#clipPath2)" font-family="sans-serif" stroke="none" xml:space="preserve">"верблюдов"</text>
    </g>
    <g fill="url(#linearGradient12)" text-rendering="geometricPrecision" shape-rendering="geometricPrecision" transform="matrix(1,0,0,1,171,683)" stroke="url(#linearGradient12)">
      <path d="M171.8763 223.3489 L370.2763 223.3489 L370.2763 307.3489 L171.8763 307.3489 Z" stroke="none" clip-path="url(#clipPath2)"/>
    </g>
    <g text-rendering="geometricPrecision" stroke-miterlimit="1.45" shape-rendering="geometricPrecision" transform="matrix(1,0,0,1,171,683)" stroke-linecap="butt">
      <path fill="none" d="M171.8763 223.3489 L370.2763 223.3489 L370.2763 307.3489 L171.8763 307.3489 Z" clip-path="url(#clipPath2)"/>
      <text x="171.8966" font-size="16px" y="270.8879" clip-path="url(#clipPath2)" font-family="sans-serif" stroke="none" xml:space="preserve">Вставка числа в строку</text>
    </g>
    <g fill="url(#linearGradient13)" text-rendering="geometricPrecision" shape-rendering="geometricPrecision" transform="matrix(1,0,0,1,171,683)" stroke="url(#linearGradient13)">
      <path d="M171.8763 360.6965 L370.2763 360.6965 L370.2763 444.6965 L171.8763 444.6965 Z" stroke="none" clip-path="url(#clipPath2)"/>
    </g>
    <g text-rendering="geometricPrecision" stroke-miterlimit="1.45" shape-rendering="geometricPrecision" transform="matrix(1,0,0,1,171,683)" stroke-linecap="butt">
      <path fill="none" d="M171.8763 360.6965 L370.2763 360.6965 L370.2763 444.6965 L171.8763 444.6965 Z" clip-path="url(#clipPath2)"/>
      <text x="182.3507" xml:space="preserve" y="399.8665" clip-path="url(#clipPath2)" font-family="sans-serif" stroke="none">Прибавление окончания "а"</text>
      <text x="210.549" xml:space="preserve" y="413.8352" clip-path="url(#clipPath2)" font-family="sans-serif" stroke="none"> к слову "верблюд"</text>
    </g>
    <g fill="url(#linearGradient14)" text-rendering="geometricPrecision" shape-rendering="geometricPrecision" transform="matrix(1,0,0,1,171,683)" stroke="url(#linearGradient14)">
      <path d="M460.55 223.3489 L658.95 223.3489 L658.95 307.3489 L460.55 307.3489 Z" stroke="none" clip-path="url(#clipPath2)"/>
    </g>
    <g text-rendering="geometricPrecision" stroke-miterlimit="1.45" shape-rendering="geometricPrecision" transform="matrix(1,0,0,1,171,683)" stroke-linecap="butt">
      <path fill="none" d="M460.55 223.3489 L658.95 223.3489 L658.95 307.3489 L460.55 307.3489 Z" clip-path="url(#clipPath2)"/>
      <text x="460.5703" font-size="16px" y="270.8879" clip-path="url(#clipPath2)" font-family="sans-serif" stroke="none" xml:space="preserve">Вставка числа в строку</text>
    </g>
    <g text-rendering="geometricPrecision" stroke-miterlimit="1.45" shape-rendering="geometricPrecision" transform="matrix(1,0,0,1,171,683)" stroke-linecap="butt">
      <path fill="none" d="M690.7562 -439.8467 L690.7562 -380.882" clip-path="url(#clipPath2)"/>
    </g>
    <g text-rendering="geometricPrecision" stroke-miterlimit="1.45" shape-rendering="geometricPrecision" transform="matrix(1,0,0,1,171,683)" stroke-linecap="butt">
      <path d="M690.7562 -372.882 L695.7562 -384.882 L690.7562 -381.882 L685.7562 -384.882 Z" stroke="none" clip-path="url(#clipPath2)"/>
      <path fill="none" d="M554.5088 -328.125 L239.1094 -328.125 L239.1094 -256.2052" clip-path="url(#clipPath2)"/>
      <path d="M239.1094 -248.2052 L244.1094 -260.2052 L239.1094 -257.2052 L234.1094 -260.2052 Z" clip-path="url(#clipPath2)" stroke="none"/>
      <text x="380.7599" xml:space="preserve" y="-353.9707" clip-path="url(#clipPath2)" font-family="sans-serif" stroke="none">Да</text>
      <path fill="none" d="M690.7562 -576.3283 L690.7562 -538.7822" clip-path="url(#clipPath2)"/>
      <path d="M690.7562 -530.7822 L695.7562 -542.7822 L690.7562 -539.7822 L685.7562 -542.7822 Z" clip-path="url(#clipPath2)" stroke="none"/>
      <path fill="none" d="M87.3753 -195.1094 L-54.2598 -195.1094 L-54.2598 -107.7775" clip-path="url(#clipPath2)"/>
      <path d="M-54.2598 -99.7775 L-49.2598 -111.7775 L-54.2598 -108.7775 L-59.2598 -111.7775 Z" clip-path="url(#clipPath2)" stroke="none"/>
      <text x="0.5034" xml:space="preserve" y="-220.9551" clip-path="url(#clipPath2)" font-family="sans-serif" stroke="none">Да</text>
      <path fill="none" d="M390.8826 -195.1094 L533.1094 -195.1094 L533.1094 -118.9102" clip-path="url(#clipPath2)"/>
      <path d="M533.1094 -110.9102 L538.1094 -122.9102 L533.1094 -119.9102 L528.1094 -122.9102 Z" clip-path="url(#clipPath2)" stroke="none"/>
      <path fill="none" d="M381.3756 -57.7617 L272.5763 -57.7617 L272.5763 59.3726" clip-path="url(#clipPath2)"/>
      <path d="M272.5763 67.3726 L277.5763 55.3726 L272.5763 58.3726 L267.5763 55.3726 Z" clip-path="url(#clipPath2)" stroke="none"/>
      <text x="310.9214" xml:space="preserve" y="-83.6074" clip-path="url(#clipPath2)" font-family="sans-serif" stroke="none">Да</text>
      <path fill="none" d="M684.8881 -57.7617 L795.2581 -57.7617 L795.2581 48.1934" clip-path="url(#clipPath2)"/>
      <path d="M795.2581 56.1934 L800.2581 44.1934 L795.2581 47.1934 L790.2581 44.1934 Z" clip-path="url(#clipPath2)" stroke="none"/>
      <text x="737.7096" xml:space="preserve" y="-83.6074" clip-path="url(#clipPath2)" font-family="sans-serif" stroke="none">Нет</text>
      <path fill="none" d="M822.5106 -328.125 L1242.5223 -328.125 L1242.5223 543.0872 L872.8888 543.0872" clip-path="url(#clipPath2)"/>
      <path d="M864.8888 543.0872 L876.8888 548.0872 L873.8888 543.0872 L876.8888 538.0872 Z" clip-path="url(#clipPath2)" stroke="none"/>
      <text x="1030.1636" xml:space="preserve" y="-353.9707" clip-path="url(#clipPath2)" font-family="sans-serif" stroke="none">Нет</text>
      <path fill="none" d="M947.0123 109.3561 L1242.5223 109.3561 L1242.5223 543.0872 L872.9025 543.0872" clip-path="url(#clipPath2)"/>
      <path d="M864.9025 543.0872 L876.9025 548.0872 L873.9025 543.0872 L876.9025 538.0872 Z" clip-path="url(#clipPath2)" stroke="none"/>
      <text x="1092.416" xml:space="preserve" y="83.5104" clip-path="url(#clipPath2)" font-family="sans-serif" stroke="none">Нет</text>
      <path fill="none" d="M-54.2598 -15.7788 L-54.2598 115.1282" clip-path="url(#clipPath2)"/>
      <path d="M-54.2598 123.1282 L-49.2598 111.1282 L-54.2598 114.1282 L-59.2598 111.1282 Z" clip-path="url(#clipPath2)" stroke="none"/>
      <path fill="none" d="M-54.2598 207.1347 L-54.2598 294.8959" clip-path="url(#clipPath2)"/>
      <path d="M-54.2598 302.8959 L-49.2598 290.8959 L-54.2598 293.8959 L-59.2598 290.8959 Z" clip-path="url(#clipPath2)" stroke="none"/>
      <path fill="none" d="M-54.2598 386.9525 L-54.2598 543.0872 L588.8544 543.0872" clip-path="url(#clipPath2)"/>
      <path d="M596.8544 543.0872 L584.8544 538.0872 L587.8544 543.0872 L584.8544 548.0872 Z" clip-path="url(#clipPath2)" stroke="none"/>
      <path fill="none" d="M272.1724 151.3629 L271.557 215.3559" clip-path="url(#clipPath2)"/>
      <path d="M271.4801 223.3555 L276.5953 211.4042 L271.5667 214.3559 L266.5957 211.308 Z" clip-path="url(#clipPath2)" stroke="none"/>
      <path fill="none" d="M271.0763 307.3647 L271.0763 352.663" clip-path="url(#clipPath2)"/>
      <path d="M271.0763 360.663 L276.0763 348.663 L271.0763 351.663 L266.0763 348.663 Z" clip-path="url(#clipPath2)" stroke="none"/>
      <path fill="none" d="M271.0763 444.6835 L271.0763 543.0872 L588.8819 543.0872" clip-path="url(#clipPath2)"/>
      <path d="M596.8819 543.0872 L584.8819 538.0872 L587.8819 543.0872 L584.8819 548.0872 Z" clip-path="url(#clipPath2)" stroke="none"/>
      <path fill="none" d="M643.4945 109.3561 L559.75 109.3561 L559.75 215.342" clip-path="url(#clipPath2)"/>
      <path d="M559.75 223.342 L564.75 211.342 L559.75 214.342 L554.75 211.342 Z" clip-path="url(#clipPath2)" stroke="none"/>
      <text x="585.5826" xml:space="preserve" y="83.5104" clip-path="url(#clipPath2)" font-family="sans-serif" stroke="none">Да</text>
      <path fill="none" d="M559.75 307.3554 L559.75 543.0872 L588.9033 543.0872" clip-path="url(#clipPath2)"/>
      <path d="M596.9033 543.0872 L584.9033 538.0872 L587.9033 543.0872 L584.9033 548.0872 Z" clip-path="url(#clipPath2)" stroke="none"/>
    </g>
  </g>
</svg>
