<?xml version="1.0" encoding="UTF-8"?><svg xmlns="http://www.w3.org/2000/svg" xmlns:xlink="http://www.w3.org/1999/xlink" fill-opacity="1" color-rendering="auto" color-interpolation="auto" text-rendering="auto" stroke="black" stroke-linecap="square" width="344" stroke-miterlimit="10" shape-rendering="auto" stroke-opacity="1" fill="black" stroke-dasharray="none" font-weight="normal" stroke-width="1" height="675" font-family="'Dialog'" font-style="normal" stroke-linejoin="miter" font-size="12px" stroke-dashoffset="0" image-rendering="auto">
  <!--Generated by ySVG 2.5-->
  <defs id="genericDefs"/>
  <g>
    <defs id="defs1">
      <linearGradient x1="510.5" gradientUnits="userSpaceOnUse" x2="623.5" y1="6" y2="56" id="linearGradient1" spreadMethod="reflect">
        <stop stop-opacity="1" stop-color="rgb(232,238,247)" offset="0%"/>
        <stop stop-opacity="1" stop-color="rgb(183,201,227)" offset="100%"/>
      </linearGradient>
      <linearGradient x1="503.5" gradientUnits="userSpaceOnUse" x2="630.5" y1="86" y2="136" id="linearGradient2" spreadMethod="reflect">
        <stop stop-opacity="1" stop-color="rgb(232,238,247)" offset="0%"/>
        <stop stop-opacity="1" stop-color="rgb(183,201,227)" offset="100%"/>
      </linearGradient>
      <linearGradient x1="503.5" gradientUnits="userSpaceOnUse" x2="630.5" y1="499" y2="549" id="linearGradient3" spreadMethod="reflect">
        <stop stop-opacity="1" stop-color="rgb(232,238,247)" offset="0%"/>
        <stop stop-opacity="1" stop-color="rgb(183,201,227)" offset="100%"/>
      </linearGradient>
      <linearGradient x1="503.5" gradientUnits="userSpaceOnUse" x2="630.5" y1="264" y2="339" id="linearGradient4" spreadMethod="reflect">
        <stop stop-opacity="1" stop-color="rgb(232,238,247)" offset="0%"/>
        <stop stop-opacity="1" stop-color="rgb(183,201,227)" offset="100%"/>
      </linearGradient>
      <linearGradient x1="510.5" gradientUnits="userSpaceOnUse" x2="623.5" y1="601" y2="651" id="linearGradient5" spreadMethod="reflect">
        <stop stop-opacity="1" stop-color="rgb(232,238,247)" offset="0%"/>
        <stop stop-opacity="1" stop-color="rgb(183,201,227)" offset="100%"/>
      </linearGradient>
      <linearGradient x1="381.5" gradientUnits="userSpaceOnUse" x2="508.5" y1="322" y2="372" id="linearGradient6" spreadMethod="reflect">
        <stop stop-opacity="1" stop-color="rgb(232,238,247)" offset="0%"/>
        <stop stop-opacity="1" stop-color="rgb(183,201,227)" offset="100%"/>
      </linearGradient>
      <linearGradient x1="503.5" gradientUnits="userSpaceOnUse" x2="630.5" y1="175" y2="225" id="linearGradient7" spreadMethod="reflect">
        <stop stop-opacity="1" stop-color="rgb(232,238,247)" offset="0%"/>
        <stop stop-opacity="1" stop-color="rgb(183,201,227)" offset="100%"/>
      </linearGradient>
      <clipPath clipPathUnits="userSpaceOnUse" id="clipPath1">
        <path d="M0 0 L344 0 L344 675 L0 675 L0 0 Z"/>
      </clipPath>
      <clipPath clipPathUnits="userSpaceOnUse" id="clipPath2">
        <path d="M364 -9 L708 -9 L708 666 L364 666 L364 -9 Z"/>
      </clipPath>
    </defs>
    <g fill="white" text-rendering="geometricPrecision" shape-rendering="geometricPrecision" transform="translate(-364,9)" stroke="white">
      <rect x="364" width="344" height="675" y="-9" clip-path="url(#clipPath2)" stroke="none"/>
    </g>
    <g fill="url(#linearGradient1)" text-rendering="geometricPrecision" shape-rendering="geometricPrecision" transform="matrix(1,0,0,1,-364,9)" stroke="url(#linearGradient1)">
      <rect x="510.5" y="6" clip-path="url(#clipPath2)" width="113" rx="25" ry="25" height="50" stroke="none"/>
    </g>
    <g text-rendering="geometricPrecision" stroke-miterlimit="1.45" shape-rendering="geometricPrecision" transform="matrix(1,0,0,1,-364,9)" stroke-linecap="butt">
      <rect x="510.5" y="6" clip-path="url(#clipPath2)" fill="none" width="113" rx="25" ry="25" height="50"/>
      <text x="544.084" xml:space="preserve" y="35.1543" clip-path="url(#clipPath2)" font-family="sans-serif" stroke="none">Начало</text>
    </g>
    <g fill="url(#linearGradient2)" text-rendering="geometricPrecision" shape-rendering="geometricPrecision" transform="matrix(1,0,0,1,-364,9)" stroke="url(#linearGradient2)">
      <path d="M513.5 86 L620.5 86 L630.5 96 L630.5 136 L503.5 136 L503.5 96 Z" stroke="none" clip-path="url(#clipPath2)"/>
    </g>
    <g text-rendering="geometricPrecision" stroke-miterlimit="1.45" shape-rendering="geometricPrecision" transform="matrix(1,0,0,1,-364,9)" stroke-linecap="butt">
      <path fill="none" d="M513.5 86 L620.5 86 L630.5 96 L630.5 136 L503.5 136 L503.5 96 Z" clip-path="url(#clipPath2)"/>
      <text x="543.6592" xml:space="preserve" y="115.1543" clip-path="url(#clipPath2)" font-family="sans-serif" stroke="none">Замена</text>
    </g>
    <g fill="url(#linearGradient3)" text-rendering="geometricPrecision" shape-rendering="geometricPrecision" transform="matrix(1,0,0,1,-364,9)" stroke="url(#linearGradient3)">
      <path d="M503.5 499 L630.5 499 L630.5 539 L620.5 549 L513.5 549 L503.5 539 Z" stroke="none" clip-path="url(#clipPath2)"/>
    </g>
    <g text-rendering="geometricPrecision" stroke-miterlimit="1.45" shape-rendering="geometricPrecision" transform="matrix(1,0,0,1,-364,9)" stroke-linecap="butt">
      <path fill="none" d="M503.5 499 L630.5 499 L630.5 539 L620.5 549 L513.5 549 L503.5 539 Z" clip-path="url(#clipPath2)"/>
      <text x="541.752" xml:space="preserve" y="521.1699" clip-path="url(#clipPath2)" font-family="sans-serif" stroke="none">Замена.</text>
      <text x="509.3467" xml:space="preserve" y="535.1387" clip-path="url(#clipPath2)" font-family="sans-serif" stroke="none">Пока есть "mephi"</text>
    </g>
    <g fill="url(#linearGradient4)" text-rendering="geometricPrecision" shape-rendering="geometricPrecision" transform="matrix(1,0,0,1,-364,9)" stroke="url(#linearGradient4)">
      <path d="M567 264 L630.5 301.5 L567 339 L503.5 301.5 Z" stroke="none" clip-path="url(#clipPath2)"/>
    </g>
    <g text-rendering="geometricPrecision" stroke-miterlimit="1.45" shape-rendering="geometricPrecision" transform="matrix(1,0,0,1,-364,9)" stroke-linecap="butt">
      <path fill="none" d="M567 264 L630.5 301.5 L567 339 L503.5 301.5 Z" clip-path="url(#clipPath2)"/>
      <text x="540.1348" xml:space="preserve" y="298.6699" clip-path="url(#clipPath2)" font-family="sans-serif" stroke="none">Позиция</text>
      <text x="540.0615" xml:space="preserve" y="312.6387" clip-path="url(#clipPath2)" font-family="sans-serif" stroke="none">найдена</text>
    </g>
    <g fill="url(#linearGradient5)" text-rendering="geometricPrecision" shape-rendering="geometricPrecision" transform="matrix(1,0,0,1,-364,9)" stroke="url(#linearGradient5)">
      <rect x="510.5" y="601" clip-path="url(#clipPath2)" width="113" rx="25" ry="25" height="50" stroke="none"/>
    </g>
    <g text-rendering="geometricPrecision" stroke-miterlimit="1.45" shape-rendering="geometricPrecision" transform="matrix(1,0,0,1,-364,9)" stroke-linecap="butt">
      <rect x="510.5" y="601" clip-path="url(#clipPath2)" fill="none" width="113" rx="25" ry="25" height="50"/>
      <text x="547.3711" xml:space="preserve" y="630.1543" clip-path="url(#clipPath2)" font-family="sans-serif" stroke="none">Конец</text>
    </g>
    <g fill="url(#linearGradient6)" text-rendering="geometricPrecision" shape-rendering="geometricPrecision" transform="matrix(1,0,0,1,-364,9)" stroke="url(#linearGradient6)">
      <path d="M381.5 322 L508.5 322 L508.5 372 L381.5 372 Z" stroke="none" clip-path="url(#clipPath2)"/>
    </g>
    <g text-rendering="geometricPrecision" stroke-miterlimit="1.45" shape-rendering="geometricPrecision" transform="matrix(1,0,0,1,-364,9)" stroke-linecap="butt">
      <path fill="none" d="M381.5 322 L508.5 322 L508.5 372 L381.5 372 Z" clip-path="url(#clipPath2)"/>
      <text x="401.7344" xml:space="preserve" y="344.1699" clip-path="url(#clipPath2)" font-family="sans-serif" stroke="none">Замена слова</text>
      <text x="381.6514" xml:space="preserve" y="358.1387" clip-path="url(#clipPath2)" font-family="sans-serif" stroke="none">"mephi" на "yandex"</text>
    </g>
    <g fill="url(#linearGradient7)" text-rendering="geometricPrecision" shape-rendering="geometricPrecision" transform="matrix(1,0,0,1,-364,9)" stroke="url(#linearGradient7)">
      <path d="M503.5 175 L630.5 175 L630.5 225 L503.5 225 Z" stroke="none" clip-path="url(#clipPath2)"/>
    </g>
    <g text-rendering="geometricPrecision" stroke-miterlimit="1.45" shape-rendering="geometricPrecision" transform="matrix(1,0,0,1,-364,9)" stroke-linecap="butt">
      <path fill="none" d="M503.5 175 L630.5 175 L630.5 225 L503.5 225 Z" clip-path="url(#clipPath2)"/>
      <text x="517.6143" xml:space="preserve" y="190.1855" clip-path="url(#clipPath2)" font-family="sans-serif" stroke="none">Поиск позиции </text>
      <text x="503.4902" xml:space="preserve" y="204.1543" clip-path="url(#clipPath2)" font-family="sans-serif" stroke="none">первой буквы слова</text>
      <text x="542.666" xml:space="preserve" y="218.123" clip-path="url(#clipPath2)" font-family="sans-serif" stroke="none">"mephi"</text>
    </g>
    <g text-rendering="geometricPrecision" stroke-miterlimit="1.45" shape-rendering="geometricPrecision" transform="matrix(1,0,0,1,-364,9)" stroke-linecap="butt">
      <path fill="none" d="M567 55.9609 L567 77.9798" clip-path="url(#clipPath2)"/>
    </g>
    <g text-rendering="geometricPrecision" stroke-miterlimit="1.45" shape-rendering="geometricPrecision" transform="matrix(1,0,0,1,-364,9)" stroke-linecap="butt">
      <path d="M567 85.9798 L572 73.9798 L567 76.9798 L562 73.9798 Z" stroke="none" clip-path="url(#clipPath2)"/>
      <path fill="none" d="M630.5229 301.5 L693 301.5 L693 453 L567 453 L567 491.0205" clip-path="url(#clipPath2)"/>
      <path d="M567 499.0205 L572 487.0205 L567 490.0205 L562 487.0205 Z" clip-path="url(#clipPath2)" stroke="none"/>
      <text x="659.4009" xml:space="preserve" y="275.6543" clip-path="url(#clipPath2)" font-family="sans-serif" stroke="none">Нет</text>
      <path fill="none" d="M567 548.9521 L567 592.982" clip-path="url(#clipPath2)"/>
      <path d="M567 600.982 L572 588.982 L567 591.982 L562 588.982 Z" clip-path="url(#clipPath2)" stroke="none"/>
      <path fill="none" d="M503.5278 301.5 L445 301.5 L445 313.9839" clip-path="url(#clipPath2)"/>
      <path d="M445 321.9839 L450 309.9839 L445 312.9839 L440 309.9839 Z" clip-path="url(#clipPath2)" stroke="none"/>
      <text x="458.2036" xml:space="preserve" y="275.6543" clip-path="url(#clipPath2)" font-family="sans-serif" stroke="none">Да</text>
      <path fill="none" d="M445 372.0249 L445 453 L567 453 L567 491.0044" clip-path="url(#clipPath2)"/>
      <path d="M567 499.0044 L572 487.0044 L567 490.0044 L562 487.0044 Z" clip-path="url(#clipPath2)" stroke="none"/>
      <path fill="none" d="M567 135.9878 L567 167.0265" clip-path="url(#clipPath2)"/>
      <path d="M567 175.0265 L572 163.0265 L567 166.0265 L562 163.0265 Z" clip-path="url(#clipPath2)" stroke="none"/>
      <path fill="none" d="M567 225.0146 L567 255.9873" clip-path="url(#clipPath2)"/>
      <path d="M567 263.9873 L572 251.9873 L567 254.9873 L562 251.9873 Z" clip-path="url(#clipPath2)" stroke="none"/>
    </g>
  </g>
</svg>
