<?xml version="1.0" encoding="UTF-8"?><svg xmlns="http://www.w3.org/2000/svg" xmlns:xlink="http://www.w3.org/1999/xlink" fill-opacity="1" color-rendering="auto" color-interpolation="auto" text-rendering="auto" stroke="black" stroke-linecap="square" width="345" stroke-miterlimit="10" shape-rendering="auto" stroke-opacity="1" fill="black" stroke-dasharray="none" font-weight="normal" stroke-width="1" height="771" font-family="'Dialog'" font-style="normal" stroke-linejoin="miter" font-size="12px" stroke-dashoffset="0" image-rendering="auto">
  <!--Generated by ySVG 2.5-->
  <defs id="genericDefs"/>
  <g>
    <defs id="defs1">
      <linearGradient x1="507.5" gradientUnits="userSpaceOnUse" x2="620.5" y1="84" y2="134" id="linearGradient1" spreadMethod="reflect">
        <stop stop-opacity="1" stop-color="rgb(232,238,247)" offset="0%"/>
        <stop stop-opacity="1" stop-color="rgb(183,201,227)" offset="100%"/>
      </linearGradient>
      <linearGradient x1="500.5" gradientUnits="userSpaceOnUse" x2="627.5" y1="256" y2="306" id="linearGradient2" spreadMethod="reflect">
        <stop stop-opacity="1" stop-color="rgb(232,238,247)" offset="0%"/>
        <stop stop-opacity="1" stop-color="rgb(183,201,227)" offset="100%"/>
      </linearGradient>
      <linearGradient x1="500.5" gradientUnits="userSpaceOnUse" x2="627.5" y1="669" y2="719" id="linearGradient3" spreadMethod="reflect">
        <stop stop-opacity="1" stop-color="rgb(232,238,247)" offset="0%"/>
        <stop stop-opacity="1" stop-color="rgb(183,201,227)" offset="100%"/>
      </linearGradient>
      <linearGradient x1="487.5" gradientUnits="userSpaceOnUse" x2="637.5" y1="352" y2="435" id="linearGradient4" spreadMethod="reflect">
        <stop stop-opacity="1" stop-color="rgb(232,238,247)" offset="0%"/>
        <stop stop-opacity="1" stop-color="rgb(183,201,227)" offset="100%"/>
      </linearGradient>
      <linearGradient x1="507.5" gradientUnits="userSpaceOnUse" x2="620.5" y1="775" y2="825" id="linearGradient5" spreadMethod="reflect">
        <stop stop-opacity="1" stop-color="rgb(232,238,247)" offset="0%"/>
        <stop stop-opacity="1" stop-color="rgb(183,201,227)" offset="100%"/>
      </linearGradient>
      <linearGradient x1="378.5" gradientUnits="userSpaceOnUse" x2="505.5" y1="492" y2="542" id="linearGradient6" spreadMethod="reflect">
        <stop stop-opacity="1" stop-color="rgb(232,238,247)" offset="0%"/>
        <stop stop-opacity="1" stop-color="rgb(183,201,227)" offset="100%"/>
      </linearGradient>
      <linearGradient x1="500.5" gradientUnits="userSpaceOnUse" x2="627.5" y1="170" y2="220" id="linearGradient7" spreadMethod="reflect">
        <stop stop-opacity="1" stop-color="rgb(232,238,247)" offset="0%"/>
        <stop stop-opacity="1" stop-color="rgb(183,201,227)" offset="100%"/>
      </linearGradient>
      <clipPath clipPathUnits="userSpaceOnUse" id="clipPath1">
        <path d="M0 0 L345 0 L345 771 L0 771 L0 0 Z"/>
      </clipPath>
      <clipPath clipPathUnits="userSpaceOnUse" id="clipPath2">
        <path d="M360 69 L705 69 L705 840 L360 840 L360 69 Z"/>
      </clipPath>
    </defs>
    <g fill="white" text-rendering="geometricPrecision" shape-rendering="geometricPrecision" transform="translate(-360,-69)" stroke="white">
      <rect x="360" width="345" height="771" y="69" clip-path="url(#clipPath2)" stroke="none"/>
    </g>
    <g fill="url(#linearGradient1)" text-rendering="geometricPrecision" shape-rendering="geometricPrecision" transform="matrix(1,0,0,1,-360,-69)" stroke="url(#linearGradient1)">
      <rect x="507.5" y="84" clip-path="url(#clipPath2)" width="113" rx="25" ry="25" height="50" stroke="none"/>
    </g>
    <g text-rendering="geometricPrecision" stroke-miterlimit="1.45" shape-rendering="geometricPrecision" transform="matrix(1,0,0,1,-360,-69)" stroke-linecap="butt">
      <rect x="507.5" y="84" clip-path="url(#clipPath2)" fill="none" width="113" rx="25" ry="25" height="50"/>
      <text x="541.084" xml:space="preserve" y="113.1543" clip-path="url(#clipPath2)" font-family="sans-serif" stroke="none">Начало</text>
    </g>
    <g fill="url(#linearGradient2)" text-rendering="geometricPrecision" shape-rendering="geometricPrecision" transform="matrix(1,0,0,1,-360,-69)" stroke="url(#linearGradient2)">
      <path d="M510.5 256 L617.5 256 L627.5 266 L627.5 306 L500.5 306 L500.5 266 Z" stroke="none" clip-path="url(#clipPath2)"/>
    </g>
    <g text-rendering="geometricPrecision" stroke-miterlimit="1.45" shape-rendering="geometricPrecision" transform="matrix(1,0,0,1,-360,-69)" stroke-linecap="butt">
      <path fill="none" d="M510.5 256 L617.5 256 L627.5 266 L627.5 306 L500.5 306 L500.5 266 Z" clip-path="url(#clipPath2)"/>
      <text x="549.0791" xml:space="preserve" y="271.1855" clip-path="url(#clipPath2)" font-family="sans-serif" stroke="none">Счёт</text>
      <text x="514.5762" xml:space="preserve" y="285.1543" clip-path="url(#clipPath2)" font-family="sans-serif" stroke="none">Пока счётчик &lt;</text>
      <text x="511.6113" xml:space="preserve" y="299.123" clip-path="url(#clipPath2)" font-family="sans-serif" stroke="none">кол-ва символов</text>
    </g>
    <g fill="url(#linearGradient3)" text-rendering="geometricPrecision" shape-rendering="geometricPrecision" transform="matrix(1,0,0,1,-360,-69)" stroke="url(#linearGradient3)">
      <path d="M500.5 669 L627.5 669 L627.5 709 L617.5 719 L510.5 719 L500.5 709 Z" stroke="none" clip-path="url(#clipPath2)"/>
    </g>
    <g text-rendering="geometricPrecision" stroke-miterlimit="1.45" shape-rendering="geometricPrecision" transform="matrix(1,0,0,1,-360,-69)" stroke-linecap="butt">
      <path fill="none" d="M500.5 669 L627.5 669 L627.5 709 L617.5 719 L510.5 719 L500.5 709 Z" clip-path="url(#clipPath2)"/>
      <text x="549.0791" xml:space="preserve" y="698.1543" clip-path="url(#clipPath2)" font-family="sans-serif" stroke="none">Счёт</text>
    </g>
    <g fill="url(#linearGradient4)" text-rendering="geometricPrecision" shape-rendering="geometricPrecision" transform="matrix(1,0,0,1,-360,-69)" stroke="url(#linearGradient4)">
      <path d="M562.5 352 L637.5 393.5 L562.5 435 L487.5 393.5 Z" stroke="none" clip-path="url(#clipPath2)"/>
    </g>
    <g text-rendering="geometricPrecision" stroke-miterlimit="1.45" shape-rendering="geometricPrecision" transform="matrix(1,0,0,1,-360,-69)" stroke-linecap="butt">
      <path fill="none" d="M562.5 352 L637.5 393.5 L562.5 435 L487.5 393.5 Z" clip-path="url(#clipPath2)"/>
      <text x="508.7783" xml:space="preserve" y="390.6699" clip-path="url(#clipPath2)" font-family="sans-serif" stroke="none">Символ не равен</text>
      <text x="532.7227" xml:space="preserve" y="404.6387" clip-path="url(#clipPath2)" font-family="sans-serif" stroke="none">' ' или '\n'</text>
    </g>
    <g fill="url(#linearGradient5)" text-rendering="geometricPrecision" shape-rendering="geometricPrecision" transform="matrix(1,0,0,1,-360,-69)" stroke="url(#linearGradient5)">
      <rect x="507.5" y="775" clip-path="url(#clipPath2)" width="113" rx="25" ry="25" height="50" stroke="none"/>
    </g>
    <g text-rendering="geometricPrecision" stroke-miterlimit="1.45" shape-rendering="geometricPrecision" transform="matrix(1,0,0,1,-360,-69)" stroke-linecap="butt">
      <rect x="507.5" y="775" clip-path="url(#clipPath2)" fill="none" width="113" rx="25" ry="25" height="50"/>
      <text x="544.3711" xml:space="preserve" y="804.1543" clip-path="url(#clipPath2)" font-family="sans-serif" stroke="none">Конец</text>
    </g>
    <g fill="url(#linearGradient6)" text-rendering="geometricPrecision" shape-rendering="geometricPrecision" transform="matrix(1,0,0,1,-360,-69)" stroke="url(#linearGradient6)">
      <path d="M378.5 492 L505.5 492 L505.5 542 L378.5 542 Z" stroke="none" clip-path="url(#clipPath2)"/>
    </g>
    <g text-rendering="geometricPrecision" stroke-miterlimit="1.45" shape-rendering="geometricPrecision" transform="matrix(1,0,0,1,-360,-69)" stroke-linecap="butt">
      <path fill="none" d="M378.5 492 L505.5 492 L505.5 542 L378.5 542 Z" clip-path="url(#clipPath2)"/>
      <text x="405.0977" xml:space="preserve" y="514.1699" clip-path="url(#clipPath2)" font-family="sans-serif" stroke="none">Количество</text>
      <text x="377.5967" xml:space="preserve" y="528.1387" clip-path="url(#clipPath2)" font-family="sans-serif" stroke="none"> увеличивается на 1</text>
    </g>
    <g fill="url(#linearGradient7)" text-rendering="geometricPrecision" shape-rendering="geometricPrecision" transform="matrix(1,0,0,1,-360,-69)" stroke="url(#linearGradient7)">
      <path d="M500.5 170 L627.5 170 L627.5 220 L500.5 220 Z" stroke="none" clip-path="url(#clipPath2)"/>
    </g>
    <g text-rendering="geometricPrecision" stroke-miterlimit="1.45" shape-rendering="geometricPrecision" transform="matrix(1,0,0,1,-360,-69)" stroke-linecap="butt">
      <path fill="none" d="M500.5 170 L627.5 170 L627.5 220 L500.5 220 Z" clip-path="url(#clipPath2)"/>
      <text x="513.3164" xml:space="preserve" y="192.1699" clip-path="url(#clipPath2)" font-family="sans-serif" stroke="none">Подсчёт кол-ва </text>
      <text x="505.0869" xml:space="preserve" y="206.1387" clip-path="url(#clipPath2)" font-family="sans-serif" stroke="none">символов в строке</text>
    </g>
    <g text-rendering="geometricPrecision" stroke-miterlimit="1.45" shape-rendering="geometricPrecision" transform="matrix(1,0,0,1,-360,-69)" stroke-linecap="butt">
      <path fill="none" d="M564 306.0356 L564 344.8457" clip-path="url(#clipPath2)"/>
    </g>
    <g text-rendering="geometricPrecision" stroke-miterlimit="1.45" shape-rendering="geometricPrecision" transform="matrix(1,0,0,1,-360,-69)" stroke-linecap="butt">
      <path d="M564 352.8457 L569 340.8457 L564 343.8457 L559 340.8457 Z" stroke="none" clip-path="url(#clipPath2)"/>
      <path fill="none" d="M637.4872 393.5 L690 393.5 L690 623 L564 623 L564 661.0205" clip-path="url(#clipPath2)"/>
      <path d="M564 669.0205 L569 657.0205 L564 660.0205 L559 657.0205 Z" clip-path="url(#clipPath2)" stroke="none"/>
      <text x="661.4009" xml:space="preserve" y="367.6543" clip-path="url(#clipPath2)" font-family="sans-serif" stroke="none">Нет</text>
      <path fill="none" d="M564 719.0249 L564 766.972" clip-path="url(#clipPath2)"/>
      <path d="M564 774.972 L569 762.972 L564 765.972 L559 762.972 Z" clip-path="url(#clipPath2)" stroke="none"/>
      <path fill="none" d="M487.5111 393.5 L442 393.5 L442 484.0045" clip-path="url(#clipPath2)"/>
      <path d="M442 492.0045 L447 480.0045 L442 483.0045 L437 480.0045 Z" clip-path="url(#clipPath2)" stroke="none"/>
      <text x="448.7036" xml:space="preserve" y="367.6543" clip-path="url(#clipPath2)" font-family="sans-serif" stroke="none">Да</text>
      <path fill="none" d="M442 542.0249 L442 623 L564 623 L564 661.0044" clip-path="url(#clipPath2)"/>
      <path d="M564 669.0044 L569 657.0044 L564 660.0044 L559 657.0044 Z" clip-path="url(#clipPath2)" stroke="none"/>
      <path fill="none" d="M564 133.9854 L564 162.0043" clip-path="url(#clipPath2)"/>
      <path d="M564 170.0043 L569 158.0043 L564 161.0043 L559 158.0043 Z" clip-path="url(#clipPath2)" stroke="none"/>
      <path fill="none" d="M564 219.9854 L564 248.0043" clip-path="url(#clipPath2)"/>
      <path d="M564 256.0043 L569 244.0043 L564 247.0043 L559 244.0043 Z" clip-path="url(#clipPath2)" stroke="none"/>
    </g>
  </g>
</svg>
