<?xml version="1.0" encoding="UTF-8"?><svg xmlns="http://www.w3.org/2000/svg" xmlns:xlink="http://www.w3.org/1999/xlink" fill-opacity="1" color-rendering="auto" color-interpolation="auto" text-rendering="auto" stroke="black" stroke-linecap="square" width="174" stroke-miterlimit="10" shape-rendering="auto" stroke-opacity="1" fill="black" stroke-dasharray="none" font-weight="normal" stroke-width="1" height="757" font-family="'Dialog'" font-style="normal" stroke-linejoin="miter" font-size="12px" stroke-dashoffset="0" image-rendering="auto">
  <!--Generated by ySVG 2.5-->
  <defs id="genericDefs"/>
  <g>
    <defs id="defs1">
      <linearGradient x1="656.75" gradientUnits="userSpaceOnUse" x2="799.25" y1="37.5" y2="95" id="linearGradient1" spreadMethod="reflect">
        <stop stop-opacity="1" stop-color="rgb(232,238,247)" offset="0%"/>
        <stop stop-opacity="1" stop-color="rgb(183,201,227)" offset="100%"/>
      </linearGradient>
      <linearGradient x1="656.75" gradientUnits="userSpaceOnUse" x2="799.25" y1="112.5" y2="170" id="linearGradient2" spreadMethod="reflect">
        <stop stop-opacity="1" stop-color="rgb(232,238,247)" offset="0%"/>
        <stop stop-opacity="1" stop-color="rgb(183,201,227)" offset="100%"/>
      </linearGradient>
      <linearGradient x1="656.75" gradientUnits="userSpaceOnUse" x2="799.25" y1="185.4375" y2="242.9375" id="linearGradient3" spreadMethod="reflect">
        <stop stop-opacity="1" stop-color="rgb(232,238,247)" offset="0%"/>
        <stop stop-opacity="1" stop-color="rgb(183,201,227)" offset="100%"/>
      </linearGradient>
      <linearGradient x1="656.75" gradientUnits="userSpaceOnUse" x2="799.25" y1="336.3125" y2="393.8125" id="linearGradient4" spreadMethod="reflect">
        <stop stop-opacity="1" stop-color="rgb(232,238,247)" offset="0%"/>
        <stop stop-opacity="1" stop-color="rgb(183,201,227)" offset="100%"/>
      </linearGradient>
      <linearGradient x1="656.75" gradientUnits="userSpaceOnUse" x2="799.25" y1="258.375" y2="315.875" id="linearGradient5" spreadMethod="reflect">
        <stop stop-opacity="1" stop-color="rgb(232,238,247)" offset="0%"/>
        <stop stop-opacity="1" stop-color="rgb(183,201,227)" offset="100%"/>
      </linearGradient>
      <linearGradient x1="656.75" gradientUnits="userSpaceOnUse" x2="799.25" y1="406.75" y2="464.25" id="linearGradient6" spreadMethod="reflect">
        <stop stop-opacity="1" stop-color="rgb(232,238,247)" offset="0%"/>
        <stop stop-opacity="1" stop-color="rgb(183,201,227)" offset="100%"/>
      </linearGradient>
      <linearGradient x1="656.75" gradientUnits="userSpaceOnUse" x2="799.25" y1="706" y2="763.5" id="linearGradient7" spreadMethod="reflect">
        <stop stop-opacity="1" stop-color="rgb(232,238,247)" offset="0%"/>
        <stop stop-opacity="1" stop-color="rgb(183,201,227)" offset="100%"/>
      </linearGradient>
      <linearGradient x1="656.75" gradientUnits="userSpaceOnUse" x2="799.25" y1="477.1875" y2="534.6875" id="linearGradient8" spreadMethod="reflect">
        <stop stop-opacity="1" stop-color="rgb(232,238,247)" offset="0%"/>
        <stop stop-opacity="1" stop-color="rgb(183,201,227)" offset="100%"/>
      </linearGradient>
      <linearGradient x1="656.75" gradientUnits="userSpaceOnUse" x2="799.25" y1="628.0625" y2="685.5625" id="linearGradient9" spreadMethod="reflect">
        <stop stop-opacity="1" stop-color="rgb(232,238,247)" offset="0%"/>
        <stop stop-opacity="1" stop-color="rgb(183,201,227)" offset="100%"/>
      </linearGradient>
      <linearGradient x1="656.75" gradientUnits="userSpaceOnUse" x2="799.25" y1="550.125" y2="607.625" id="linearGradient10" spreadMethod="reflect">
        <stop stop-opacity="1" stop-color="rgb(232,238,247)" offset="0%"/>
        <stop stop-opacity="1" stop-color="rgb(183,201,227)" offset="100%"/>
      </linearGradient>
      <clipPath clipPathUnits="userSpaceOnUse" id="clipPath1">
        <path d="M0 0 L174 0 L174 757 L0 757 L0 0 Z"/>
      </clipPath>
      <clipPath clipPathUnits="userSpaceOnUse" id="clipPath2">
        <path d="M641 22 L815 22 L815 779 L641 779 L641 22 Z"/>
      </clipPath>
    </defs>
    <g fill="white" text-rendering="geometricPrecision" shape-rendering="geometricPrecision" transform="translate(-641,-22)" stroke="white">
      <rect x="641" width="174" height="757" y="22" clip-path="url(#clipPath2)" stroke="none"/>
    </g>
    <g fill="url(#linearGradient1)" text-rendering="geometricPrecision" shape-rendering="geometricPrecision" transform="matrix(1,0,0,1,-641,-22)" stroke="url(#linearGradient1)">
      <rect x="656.75" y="37.5" clip-path="url(#clipPath2)" width="142.5" rx="28.75" ry="28.75" height="57.5" stroke="none"/>
    </g>
    <g text-rendering="geometricPrecision" stroke-miterlimit="1.45" shape-rendering="geometricPrecision" transform="matrix(1,0,0,1,-641,-22)" stroke-linecap="butt">
      <rect x="656.75" y="37.5" clip-path="url(#clipPath2)" fill="none" width="142.5" rx="28.75" ry="28.75" height="57.5"/>
      <text x="705.084" xml:space="preserve" y="70.4043" clip-path="url(#clipPath2)" font-family="sans-serif" stroke="none">Начало</text>
    </g>
    <g fill="url(#linearGradient2)" text-rendering="geometricPrecision" shape-rendering="geometricPrecision" transform="matrix(1,0,0,1,-641,-22)" stroke="url(#linearGradient2)">
      <path d="M671.4125 112.5 L799.25 112.5 L784.5875 170 L656.75 170 Z" stroke="none" clip-path="url(#clipPath2)"/>
    </g>
    <g text-rendering="geometricPrecision" stroke-miterlimit="1.45" shape-rendering="geometricPrecision" transform="matrix(1,0,0,1,-641,-22)" stroke-linecap="butt">
      <path fill="none" d="M671.4125 112.5 L799.25 112.5 L784.5875 170 L656.75 170 Z" clip-path="url(#clipPath2)"/>
      <text x="682.335" xml:space="preserve" y="138.4199" clip-path="url(#clipPath2)" font-family="sans-serif" stroke="none">Ввод размера </text>
      <text x="702.0869" xml:space="preserve" y="152.3887" clip-path="url(#clipPath2)" font-family="sans-serif" stroke="none">массива</text>
    </g>
    <g fill="url(#linearGradient3)" text-rendering="geometricPrecision" shape-rendering="geometricPrecision" transform="matrix(1,0,0,1,-641,-22)" stroke="url(#linearGradient3)">
      <path d="M666.75 185.4375 L789.25 185.4375 L799.25 195.4375 L799.25 242.9375 L656.75 242.9375 L656.75 195.4375 Z" stroke="none" clip-path="url(#clipPath2)"/>
    </g>
    <g text-rendering="geometricPrecision" stroke-miterlimit="1.45" shape-rendering="geometricPrecision" transform="matrix(1,0,0,1,-641,-22)" stroke-linecap="butt">
      <path fill="none" d="M666.75 185.4375 L789.25 185.4375 L799.25 195.4375 L799.25 242.9375 L656.75 242.9375 L656.75 195.4375 Z" clip-path="url(#clipPath2)"/>
      <text x="688.0127" xml:space="preserve" y="197.3887" clip-path="url(#clipPath2)" font-family="sans-serif" stroke="none">Заполнение </text>
      <text x="702.0869" xml:space="preserve" y="211.3574" clip-path="url(#clipPath2)" font-family="sans-serif" stroke="none">массива</text>
      <text x="661.3203" xml:space="preserve" y="225.3262" clip-path="url(#clipPath2)" font-family="sans-serif" stroke="none">Пока не заполняться</text>
      <text x="693.2979" xml:space="preserve" y="239.2949" clip-path="url(#clipPath2)" font-family="sans-serif" stroke="none">все ячейки</text>
    </g>
    <g fill="url(#linearGradient4)" text-rendering="geometricPrecision" shape-rendering="geometricPrecision" transform="matrix(1,0,0,1,-641,-22)" stroke="url(#linearGradient4)">
      <path d="M656.75 336.3125 L799.25 336.3125 L799.25 383.8125 L789.25 393.8125 L666.75 393.8125 L656.75 383.8125 Z" stroke="none" clip-path="url(#clipPath2)"/>
    </g>
    <g text-rendering="geometricPrecision" stroke-miterlimit="1.45" shape-rendering="geometricPrecision" transform="matrix(1,0,0,1,-641,-22)" stroke-linecap="butt">
      <path fill="none" d="M656.75 336.3125 L799.25 336.3125 L799.25 383.8125 L789.25 393.8125 L666.75 393.8125 L656.75 383.8125 Z" clip-path="url(#clipPath2)"/>
      <text x="689.9199" xml:space="preserve" y="362.2324" clip-path="url(#clipPath2)" font-family="sans-serif" stroke="none">Заполнение</text>
      <text x="702.0869" xml:space="preserve" y="376.2012" clip-path="url(#clipPath2)" font-family="sans-serif" stroke="none">массива</text>
    </g>
    <g fill="url(#linearGradient5)" text-rendering="geometricPrecision" shape-rendering="geometricPrecision" transform="matrix(1,0,0,1,-641,-22)" stroke="url(#linearGradient5)">
      <path d="M671.4125 258.375 L799.25 258.375 L784.5875 315.875 L656.75 315.875 Z" stroke="none" clip-path="url(#clipPath2)"/>
    </g>
    <g text-rendering="geometricPrecision" stroke-miterlimit="1.45" shape-rendering="geometricPrecision" transform="matrix(1,0,0,1,-641,-22)" stroke-linecap="butt">
      <path fill="none" d="M671.4125 258.375 L799.25 258.375 L784.5875 315.875 L656.75 315.875 Z" clip-path="url(#clipPath2)"/>
      <text x="680.4893" xml:space="preserve" y="291.2793" clip-path="url(#clipPath2)" font-family="sans-serif" stroke="none">Ввод элемента</text>
    </g>
    <g fill="url(#linearGradient6)" text-rendering="geometricPrecision" shape-rendering="geometricPrecision" transform="matrix(1,0,0,1,-641,-22)" stroke="url(#linearGradient6)">
      <rect x="656.75" width="142.5" height="57.5" y="406.75" clip-path="url(#clipPath2)" stroke="none"/>
    </g>
    <g text-rendering="geometricPrecision" stroke-miterlimit="1.45" shape-rendering="geometricPrecision" transform="matrix(1,0,0,1,-641,-22)" stroke-linecap="butt">
      <rect fill="none" x="656.75" width="142.5" height="57.5" y="406.75" clip-path="url(#clipPath2)"/>
      <path fill="none" d="M666.75 406.75 L666.75 464.25 M789.25 406.75 L789.25 464.25 M666.75 406.75 Z" clip-path="url(#clipPath2)"/>
      <text x="681.6113" xml:space="preserve" y="439.6543" clip-path="url(#clipPath2)" font-family="sans-serif" stroke="none">Нормализация</text>
    </g>
    <g fill="url(#linearGradient7)" text-rendering="geometricPrecision" shape-rendering="geometricPrecision" transform="matrix(1,0,0,1,-641,-22)" stroke="url(#linearGradient7)">
      <rect x="656.75" y="706" clip-path="url(#clipPath2)" width="142.5" rx="28.75" ry="28.75" height="57.5" stroke="none"/>
    </g>
    <g text-rendering="geometricPrecision" stroke-miterlimit="1.45" shape-rendering="geometricPrecision" transform="matrix(1,0,0,1,-641,-22)" stroke-linecap="butt">
      <rect x="656.75" y="706" clip-path="url(#clipPath2)" fill="none" width="142.5" rx="28.75" ry="28.75" height="57.5"/>
      <text x="708.3711" xml:space="preserve" y="738.9043" clip-path="url(#clipPath2)" font-family="sans-serif" stroke="none">Конец</text>
    </g>
    <g fill="url(#linearGradient8)" text-rendering="geometricPrecision" shape-rendering="geometricPrecision" transform="matrix(1,0,0,1,-641,-22)" stroke="url(#linearGradient8)">
      <path d="M666.75 477.1875 L789.25 477.1875 L799.25 487.1875 L799.25 534.6875 L656.75 534.6875 L656.75 487.1875 Z" stroke="none" clip-path="url(#clipPath2)"/>
    </g>
    <g text-rendering="geometricPrecision" stroke-miterlimit="1.45" shape-rendering="geometricPrecision" transform="matrix(1,0,0,1,-641,-22)" stroke-linecap="butt">
      <path fill="none" d="M666.75 477.1875 L789.25 477.1875 L799.25 487.1875 L799.25 534.6875 L656.75 534.6875 L656.75 487.1875 Z" clip-path="url(#clipPath2)"/>
      <text x="678.0518" xml:space="preserve" y="489.1387" clip-path="url(#clipPath2)" font-family="sans-serif" stroke="none">Вывод на экран</text>
      <text x="670.4316" xml:space="preserve" y="503.1074" clip-path="url(#clipPath2)" font-family="sans-serif" stroke="none">значений массива</text>
      <text x="667.4844" xml:space="preserve" y="517.0762" clip-path="url(#clipPath2)" font-family="sans-serif" stroke="none">Пока не выведутся</text>
      <text x="693.2979" xml:space="preserve" y="531.0449" clip-path="url(#clipPath2)" font-family="sans-serif" stroke="none">все ячейки</text>
    </g>
    <g fill="url(#linearGradient9)" text-rendering="geometricPrecision" shape-rendering="geometricPrecision" transform="matrix(1,0,0,1,-641,-22)" stroke="url(#linearGradient9)">
      <path d="M656.75 628.0625 L799.25 628.0625 L799.25 675.5625 L789.25 685.5625 L666.75 685.5625 L656.75 675.5625 Z" stroke="none" clip-path="url(#clipPath2)"/>
    </g>
    <g text-rendering="geometricPrecision" stroke-miterlimit="1.45" shape-rendering="geometricPrecision" transform="matrix(1,0,0,1,-641,-22)" stroke-linecap="butt">
      <path fill="none" d="M656.75 628.0625 L799.25 628.0625 L799.25 675.5625 L789.25 685.5625 L666.75 685.5625 L656.75 675.5625 Z" clip-path="url(#clipPath2)"/>
      <text x="678.0518" xml:space="preserve" y="640.0137" clip-path="url(#clipPath2)" font-family="sans-serif" stroke="none">Вывод на экран</text>
      <text x="660.7754" xml:space="preserve" y="653.9824" clip-path="url(#clipPath2)" font-family="sans-serif" stroke="none">значений элементов </text>
      <text x="702.0869" xml:space="preserve" y="667.9512" clip-path="url(#clipPath2)" font-family="sans-serif" stroke="none">массива</text>
      <text x="726.0928" xml:space="preserve" y="681.9199" clip-path="url(#clipPath2)" font-family="sans-serif" stroke="none"> </text>
    </g>
    <g fill="url(#linearGradient10)" text-rendering="geometricPrecision" shape-rendering="geometricPrecision" transform="matrix(1,0,0,1,-641,-22)" stroke="url(#linearGradient10)">
      <path d="M671.4125 550.125 L799.25 550.125 L784.5875 607.625 L656.75 607.625 Z" stroke="none" clip-path="url(#clipPath2)"/>
    </g>
    <g text-rendering="geometricPrecision" stroke-miterlimit="1.45" shape-rendering="geometricPrecision" transform="matrix(1,0,0,1,-641,-22)" stroke-linecap="butt">
      <path fill="none" d="M671.4125 550.125 L799.25 550.125 L784.5875 607.625 L656.75 607.625 Z" clip-path="url(#clipPath2)"/>
      <text x="680.4893" xml:space="preserve" y="583.0293" clip-path="url(#clipPath2)" font-family="sans-serif" stroke="none">Ввод элемента</text>
    </g>
    <g text-rendering="geometricPrecision" stroke-miterlimit="1.45" shape-rendering="geometricPrecision" transform="matrix(1,0,0,1,-641,-22)" stroke-linecap="butt">
      <path fill="none" d="M728 94.9976 L728 104.4777" clip-path="url(#clipPath2)"/>
    </g>
    <g text-rendering="geometricPrecision" stroke-miterlimit="1.45" shape-rendering="geometricPrecision" transform="matrix(1,0,0,1,-641,-22)" stroke-linecap="butt">
      <path d="M728 112.4777 L733 100.4777 L728 103.4777 L723 100.4777 Z" stroke="none" clip-path="url(#clipPath2)"/>
      <path fill="none" d="M728 169.9905 L728 177.399" clip-path="url(#clipPath2)"/>
      <path d="M728 185.399 L733 173.399 L728 176.399 L723 173.399 Z" clip-path="url(#clipPath2)" stroke="none"/>
      <path fill="none" d="M728 242.928 L728 250.3365" clip-path="url(#clipPath2)"/>
      <path d="M728 258.3365 L733 246.3365 L728 249.3365 L723 246.3365 Z" clip-path="url(#clipPath2)" stroke="none"/>
      <path fill="none" d="M728 315.8568 L728 328.2791" clip-path="url(#clipPath2)"/>
      <path d="M728 336.2791 L733 324.2791 L728 327.2791 L723 324.2791 Z" clip-path="url(#clipPath2)" stroke="none"/>
      <path fill="none" d="M728 393.7809 L728 398.7774" clip-path="url(#clipPath2)"/>
      <path d="M728 406.7774 L733 394.7774 L728 397.7774 L723 394.7774 Z" clip-path="url(#clipPath2)" stroke="none"/>
      <path fill="none" d="M728 464.2184 L728 469.2149" clip-path="url(#clipPath2)"/>
      <path d="M728 477.2149 L733 465.2149 L728 468.2149 L723 465.2149 Z" clip-path="url(#clipPath2)" stroke="none"/>
      <path fill="none" d="M728 685.5443 L728 697.9666" clip-path="url(#clipPath2)"/>
      <path d="M728 705.9666 L733 693.9666 L728 696.9666 L723 693.9666 Z" clip-path="url(#clipPath2)" stroke="none"/>
      <path fill="none" d="M728 534.678 L728 542.0865" clip-path="url(#clipPath2)"/>
      <path d="M728 550.0865 L733 538.0865 L728 541.0865 L723 538.0865 Z" clip-path="url(#clipPath2)" stroke="none"/>
      <path fill="none" d="M728 607.6068 L728 620.0291" clip-path="url(#clipPath2)"/>
      <path d="M728 628.0291 L733 616.0291 L728 619.0291 L723 616.0291 Z" clip-path="url(#clipPath2)" stroke="none"/>
    </g>
  </g>
</svg>
