<?xml version="1.0" encoding="UTF-8"?><svg xmlns="http://www.w3.org/2000/svg" xmlns:xlink="http://www.w3.org/1999/xlink" fill-opacity="1" color-rendering="auto" color-interpolation="auto" text-rendering="auto" stroke="black" stroke-linecap="square" width="961" stroke-miterlimit="10" shape-rendering="auto" stroke-opacity="1" fill="black" stroke-dasharray="none" font-weight="normal" stroke-width="1" height="2000" font-family="'Dialog'" font-style="normal" stroke-linejoin="miter" font-size="12px" stroke-dashoffset="0" image-rendering="auto">
  <!--Generated by ySVG 2.5-->
  <defs id="genericDefs"/>
  <g>
    <defs id="defs1">
      <linearGradient x1="684.1742" gradientUnits="userSpaceOnUse" x2="869.4039" y1="-2320.1475" y2="-2242.6475" id="linearGradient1" spreadMethod="reflect">
        <stop stop-opacity="1" stop-color="rgb(232,238,247)" offset="0%"/>
        <stop stop-opacity="1" stop-color="rgb(183,201,227)" offset="100%"/>
      </linearGradient>
      <linearGradient x1="864.4765" gradientUnits="userSpaceOnUse" x2="1040.7266" y1="-1984.1473" y2="-1906.6473" id="linearGradient2" spreadMethod="reflect">
        <stop stop-opacity="1" stop-color="rgb(232,238,247)" offset="0%"/>
        <stop stop-opacity="1" stop-color="rgb(183,201,227)" offset="100%"/>
      </linearGradient>
      <linearGradient x1="841.664" gradientUnits="userSpaceOnUse" x2="1063.5391" y1="-1870.6552" y2="-1793.1552" id="linearGradient3" spreadMethod="reflect">
        <stop stop-opacity="1" stop-color="rgb(232,238,247)" offset="0%"/>
        <stop stop-opacity="1" stop-color="rgb(183,201,227)" offset="100%"/>
      </linearGradient>
      <linearGradient x1="864.4765" gradientUnits="userSpaceOnUse" x2="1040.7266" y1="-1664.1473" y2="-1586.6473" id="linearGradient4" spreadMethod="reflect">
        <stop stop-opacity="1" stop-color="rgb(232,238,247)" offset="0%"/>
        <stop stop-opacity="1" stop-color="rgb(183,201,227)" offset="100%"/>
      </linearGradient>
      <linearGradient x1="665.8515" gradientUnits="userSpaceOnUse" x2="887.7265" y1="-2105.1475" y2="-2027.6473" id="linearGradient5" spreadMethod="reflect">
        <stop stop-opacity="1" stop-color="rgb(232,238,247)" offset="0%"/>
        <stop stop-opacity="1" stop-color="rgb(183,201,227)" offset="100%"/>
      </linearGradient>
      <linearGradient x1="479.6015" gradientUnits="userSpaceOnUse" x2="655.8515" y1="-1984.1473" y2="-1906.6473" id="linearGradient6" spreadMethod="reflect">
        <stop stop-opacity="1" stop-color="rgb(232,238,247)" offset="0%"/>
        <stop stop-opacity="1" stop-color="rgb(183,201,227)" offset="100%"/>
      </linearGradient>
      <linearGradient x1="1033.8516" gradientUnits="userSpaceOnUse" x2="1210.1016" y1="-1791.8973" y2="-1714.3973" id="linearGradient7" spreadMethod="reflect">
        <stop stop-opacity="1" stop-color="rgb(232,238,247)" offset="0%"/>
        <stop stop-opacity="1" stop-color="rgb(183,201,227)" offset="100%"/>
      </linearGradient>
      <linearGradient x1="688.664" gradientUnits="userSpaceOnUse" x2="864.914" y1="-1318.3817" y2="-1240.8817" id="linearGradient8" spreadMethod="reflect">
        <stop stop-opacity="1" stop-color="rgb(232,238,247)" offset="0%"/>
        <stop stop-opacity="1" stop-color="rgb(183,201,227)" offset="100%"/>
      </linearGradient>
      <linearGradient x1="700.539" gradientUnits="userSpaceOnUse" x2="853.039" y1="-765.4691" y2="-687.9691" id="linearGradient9" spreadMethod="reflect">
        <stop stop-opacity="1" stop-color="rgb(232,238,247)" offset="0%"/>
        <stop stop-opacity="1" stop-color="rgb(183,201,227)" offset="100%"/>
      </linearGradient>
      <linearGradient x1="705.9946" gradientUnits="userSpaceOnUse" x2="847.5835" y1="-554.3041" y2="-476.8041" id="linearGradient10" spreadMethod="reflect">
        <stop stop-opacity="1" stop-color="rgb(232,238,247)" offset="0%"/>
        <stop stop-opacity="1" stop-color="rgb(183,201,227)" offset="100%"/>
      </linearGradient>
      <linearGradient x1="688.664" gradientUnits="userSpaceOnUse" x2="864.914" y1="-661.8041" y2="-584.3041" id="linearGradient11" spreadMethod="reflect">
        <stop stop-opacity="1" stop-color="rgb(232,238,247)" offset="0%"/>
        <stop stop-opacity="1" stop-color="rgb(183,201,227)" offset="100%"/>
      </linearGradient>
      <linearGradient x1="688.664" gradientUnits="userSpaceOnUse" x2="864.914" y1="-2212.6475" y2="-2135.1475" id="linearGradient12" spreadMethod="reflect">
        <stop stop-opacity="1" stop-color="rgb(232,238,247)" offset="0%"/>
        <stop stop-opacity="1" stop-color="rgb(183,201,227)" offset="100%"/>
      </linearGradient>
      <linearGradient x1="456.789" gradientUnits="userSpaceOnUse" x2="678.664" y1="-1757.163" y2="-1679.663" id="linearGradient13" spreadMethod="reflect">
        <stop stop-opacity="1" stop-color="rgb(232,238,247)" offset="0%"/>
        <stop stop-opacity="1" stop-color="rgb(183,201,227)" offset="100%"/>
      </linearGradient>
      <linearGradient x1="491.4765" gradientUnits="userSpaceOnUse" x2="643.9765" y1="-1530.413" y2="-1452.913" id="linearGradient14" spreadMethod="reflect">
        <stop stop-opacity="1" stop-color="rgb(232,238,247)" offset="0%"/>
        <stop stop-opacity="1" stop-color="rgb(183,201,227)" offset="100%"/>
      </linearGradient>
      <linearGradient x1="280.539" gradientUnits="userSpaceOnUse" x2="456.789" y1="-1658.163" y2="-1580.663" id="linearGradient15" spreadMethod="reflect">
        <stop stop-opacity="1" stop-color="rgb(232,238,247)" offset="0%"/>
        <stop stop-opacity="1" stop-color="rgb(183,201,227)" offset="100%"/>
      </linearGradient>
      <linearGradient x1="491.4765" gradientUnits="userSpaceOnUse" x2="643.9765" y1="-1870.6552" y2="-1793.1552" id="linearGradient16" spreadMethod="reflect">
        <stop stop-opacity="1" stop-color="rgb(232,238,247)" offset="0%"/>
        <stop stop-opacity="1" stop-color="rgb(183,201,227)" offset="100%"/>
      </linearGradient>
      <linearGradient x1="694.6015" gradientUnits="userSpaceOnUse" x2="858.9765" y1="-1221.4093" y2="-1143.9093" id="linearGradient17" spreadMethod="reflect">
        <stop stop-opacity="1" stop-color="rgb(232,238,247)" offset="0%"/>
        <stop stop-opacity="1" stop-color="rgb(183,201,227)" offset="100%"/>
      </linearGradient>
      <linearGradient x1="694.6015" gradientUnits="userSpaceOnUse" x2="858.9765" y1="-869.134" y2="-791.634" id="linearGradient18" spreadMethod="reflect">
        <stop stop-opacity="1" stop-color="rgb(232,238,247)" offset="0%"/>
        <stop stop-opacity="1" stop-color="rgb(183,201,227)" offset="100%"/>
      </linearGradient>
      <linearGradient x1="665.8515" gradientUnits="userSpaceOnUse" x2="887.7265" y1="-1104.3973" y2="-1026.8973" id="linearGradient19" spreadMethod="reflect">
        <stop stop-opacity="1" stop-color="rgb(232,238,247)" offset="0%"/>
        <stop stop-opacity="1" stop-color="rgb(183,201,227)" offset="100%"/>
      </linearGradient>
      <linearGradient x1="887.7265" gradientUnits="userSpaceOnUse" x2="1063.9766" y1="-1015.8974" y2="-938.3974" id="linearGradient20" spreadMethod="reflect">
        <stop stop-opacity="1" stop-color="rgb(232,238,247)" offset="0%"/>
        <stop stop-opacity="1" stop-color="rgb(183,201,227)" offset="100%"/>
      </linearGradient>
      <linearGradient x1="684.1742" gradientUnits="userSpaceOnUse" x2="869.4039" y1="-429.0697" y2="-351.5697" id="linearGradient21" spreadMethod="reflect">
        <stop stop-opacity="1" stop-color="rgb(232,238,247)" offset="0%"/>
        <stop stop-opacity="1" stop-color="rgb(183,201,227)" offset="100%"/>
      </linearGradient>
      <clipPath clipPathUnits="userSpaceOnUse" id="clipPath1">
        <path d="M0 0 L961 0 L961 2000 L0 2000 L0 0 Z"/>
      </clipPath>
      <clipPath clipPathUnits="userSpaceOnUse" id="clipPath2">
        <path d="M265 -2336 L1226 -2336 L1226 -336 L265 -336 L265 -2336 Z"/>
      </clipPath>
    </defs>
    <g fill="white" text-rendering="geometricPrecision" shape-rendering="geometricPrecision" transform="translate(-265,2336)" stroke="white">
      <rect x="265" width="961" height="2000" y="-2336" clip-path="url(#clipPath2)" stroke="none"/>
    </g>
    <g fill="url(#linearGradient1)" text-rendering="geometricPrecision" shape-rendering="geometricPrecision" transform="matrix(1,0,0,1,-265,2336)" stroke="url(#linearGradient1)">
      <rect x="684.1742" y="-2320.1474" clip-path="url(#clipPath2)" width="185.2297" rx="38.75" ry="38.75" height="77.5" stroke="none"/>
    </g>
    <g text-rendering="geometricPrecision" stroke-miterlimit="1.45" shape-rendering="geometricPrecision" transform="matrix(1,0,0,1,-265,2336)" stroke-linecap="butt">
      <rect x="684.1742" y="-2320.1474" clip-path="url(#clipPath2)" fill="none" width="185.2297" rx="38.75" ry="38.75" height="77.5"/>
      <text x="753.873" xml:space="preserve" y="-2277.2432" clip-path="url(#clipPath2)" font-family="sans-serif" stroke="none">Начало</text>
    </g>
    <g fill="url(#linearGradient2)" text-rendering="geometricPrecision" shape-rendering="geometricPrecision" transform="matrix(1,0,0,1,-265,2336)" stroke="url(#linearGradient2)">
      <path d="M874.4765 -1984.1473 L1030.7266 -1984.1473 L1040.7266 -1974.1473 L1040.7266 -1906.6473 L864.4765 -1906.6473 L864.4765 -1974.1473 Z" stroke="none" clip-path="url(#clipPath2)"/>
    </g>
    <g text-rendering="geometricPrecision" stroke-miterlimit="1.45" shape-rendering="geometricPrecision" transform="matrix(1,0,0,1,-265,2336)" stroke-linecap="butt">
      <path fill="none" d="M874.4765 -1984.1473 L1030.7266 -1984.1473 L1040.7266 -1974.1473 L1040.7266 -1906.6473 L864.4765 -1906.6473 L864.4765 -1974.1473 Z" clip-path="url(#clipPath2)"/>
      <text x="882.6728" xml:space="preserve" y="-1962.1962" clip-path="url(#clipPath2)" font-family="sans-serif" stroke="none">Поиск максимального</text>
      <text x="923.1435" xml:space="preserve" y="-1948.2274" clip-path="url(#clipPath2)" font-family="sans-serif" stroke="none">значения</text>
      <text x="907.8271" xml:space="preserve" y="-1934.2587" clip-path="url(#clipPath2)" font-family="sans-serif" stroke="none">Перебор всех </text>
      <text x="891.1191" xml:space="preserve" y="-1920.2899" clip-path="url(#clipPath2)" font-family="sans-serif" stroke="none">элементов массива</text>
    </g>
    <g fill="url(#linearGradient3)" text-rendering="geometricPrecision" shape-rendering="geometricPrecision" transform="matrix(1,0,0,1,-265,2336)" stroke="url(#linearGradient3)">
      <path d="M952.6015 -1870.6552 L1063.5391 -1831.9052 L952.6015 -1793.1552 L841.664 -1831.9052 Z" stroke="none" clip-path="url(#clipPath2)"/>
    </g>
    <g text-rendering="geometricPrecision" stroke-miterlimit="1.45" shape-rendering="geometricPrecision" transform="matrix(1,0,0,1,-265,2336)" stroke-linecap="butt">
      <path fill="none" d="M952.6015 -1870.6552 L1063.5391 -1831.9052 L952.6015 -1793.1552 L841.664 -1831.9052 Z" clip-path="url(#clipPath2)"/>
      <text x="897.4296" xml:space="preserve" y="-1841.7196" clip-path="url(#clipPath2)" font-family="sans-serif" stroke="none">Элемент массива</text>
      <text x="896.6503" xml:space="preserve" y="-1827.7509" clip-path="url(#clipPath2)" font-family="sans-serif" stroke="none">&gt;максимального </text>
      <text x="923.1435" xml:space="preserve" y="-1813.7821" clip-path="url(#clipPath2)" font-family="sans-serif" stroke="none">значения</text>
    </g>
    <g fill="url(#linearGradient4)" text-rendering="geometricPrecision" shape-rendering="geometricPrecision" transform="matrix(1,0,0,1,-265,2336)" stroke="url(#linearGradient4)">
      <path d="M864.4765 -1664.1473 L1040.7266 -1664.1473 L1040.7266 -1596.6473 L1030.7266 -1586.6473 L874.4765 -1586.6473 L864.4765 -1596.6473 Z" stroke="none" clip-path="url(#clipPath2)"/>
    </g>
    <g text-rendering="geometricPrecision" stroke-miterlimit="1.45" shape-rendering="geometricPrecision" transform="matrix(1,0,0,1,-265,2336)" stroke-linecap="butt">
      <path fill="none" d="M864.4765 -1664.1473 L1040.7266 -1664.1473 L1040.7266 -1596.6473 L1030.7266 -1586.6473 L874.4765 -1586.6473 L864.4765 -1596.6473 Z" clip-path="url(#clipPath2)"/>
      <text x="880.7656" xml:space="preserve" y="-1628.2274" clip-path="url(#clipPath2)" font-family="sans-serif" stroke="none">Поиск максимального </text>
      <text x="923.1435" xml:space="preserve" y="-1614.2587" clip-path="url(#clipPath2)" font-family="sans-serif" stroke="none">значения</text>
    </g>
    <g fill="url(#linearGradient5)" text-rendering="geometricPrecision" shape-rendering="geometricPrecision" transform="matrix(1,0,0,1,-265,2336)" stroke="url(#linearGradient5)">
      <path d="M776.789 -2105.1475 L887.7265 -2066.3975 L776.789 -2027.6473 L665.8515 -2066.3975 Z" stroke="none" clip-path="url(#clipPath2)"/>
    </g>
    <g text-rendering="geometricPrecision" stroke-miterlimit="1.45" shape-rendering="geometricPrecision" transform="matrix(1,0,0,1,-265,2336)" stroke-linecap="butt">
      <path fill="none" d="M776.789 -2105.1475 L887.7265 -2066.3975 L776.789 -2027.6473 L665.8515 -2066.3975 Z" clip-path="url(#clipPath2)"/>
      <text x="724.2421" xml:space="preserve" y="-2069.2275" clip-path="url(#clipPath2)" font-family="sans-serif" stroke="none">Первый элемент</text>
      <text x="733.1894" xml:space="preserve" y="-2055.2588" clip-path="url(#clipPath2)" font-family="sans-serif" stroke="none">массива &gt;= 0</text>
    </g>
    <g fill="url(#linearGradient6)" text-rendering="geometricPrecision" shape-rendering="geometricPrecision" transform="matrix(1,0,0,1,-265,2336)" stroke="url(#linearGradient6)">
      <path d="M479.6015 -1984.1473 L655.8515 -1984.1473 L655.8515 -1906.6473 L479.6015 -1906.6473 Z" stroke="none" clip-path="url(#clipPath2)"/>
    </g>
    <g text-rendering="geometricPrecision" stroke-miterlimit="1.45" shape-rendering="geometricPrecision" transform="matrix(1,0,0,1,-265,2336)" stroke-linecap="butt">
      <path fill="none" d="M479.6015 -1984.1473 L655.8515 -1984.1473 L655.8515 -1906.6473 L479.6015 -1906.6473 Z" clip-path="url(#clipPath2)"/>
      <text x="489.7441" xml:space="preserve" y="-1948.2274" clip-path="url(#clipPath2)" font-family="sans-serif" stroke="none">Максимальное значение</text>
      <text x="482.9209" xml:space="preserve" y="-1934.2587" clip-path="url(#clipPath2)" font-family="sans-serif" stroke="none">=первый элемент массива</text>
    </g>
    <g fill="url(#linearGradient7)" text-rendering="geometricPrecision" shape-rendering="geometricPrecision" transform="matrix(1,0,0,1,-265,2336)" stroke="url(#linearGradient7)">
      <path d="M1033.8516 -1791.8973 L1210.1016 -1791.8973 L1210.1016 -1714.3973 L1033.8516 -1714.3973 Z" stroke="none" clip-path="url(#clipPath2)"/>
    </g>
    <g text-rendering="geometricPrecision" stroke-miterlimit="1.45" shape-rendering="geometricPrecision" transform="matrix(1,0,0,1,-265,2336)" stroke-linecap="butt">
      <path fill="none" d="M1033.8516 -1791.8973 L1210.1016 -1791.8973 L1210.1016 -1714.3973 L1033.8516 -1714.3973 Z" clip-path="url(#clipPath2)"/>
      <text x="1038.9668" xml:space="preserve" y="-1755.9774" clip-path="url(#clipPath2)" font-family="sans-serif" stroke="none">Максимальное значение=</text>
      <text x="1066.8047" xml:space="preserve" y="-1742.0087" clip-path="url(#clipPath2)" font-family="sans-serif" stroke="none">Элемент массива</text>
    </g>
    <g fill="url(#linearGradient8)" text-rendering="geometricPrecision" shape-rendering="geometricPrecision" transform="matrix(1,0,0,1,-265,2336)" stroke="url(#linearGradient8)">
      <path d="M688.664 -1318.3817 L864.914 -1318.3817 L864.914 -1240.8817 L688.664 -1240.8817 Z" stroke="none" clip-path="url(#clipPath2)"/>
    </g>
    <g text-rendering="geometricPrecision" stroke-miterlimit="1.45" shape-rendering="geometricPrecision" transform="matrix(1,0,0,1,-265,2336)" stroke-linecap="butt">
      <path fill="none" d="M688.664 -1318.3817 L864.914 -1318.3817 L864.914 -1240.8817 L688.664 -1240.8817 Z" clip-path="url(#clipPath2)"/>
      <text x="696.5566" xml:space="preserve" y="-1282.4618" clip-path="url(#clipPath2)" font-family="sans-serif" stroke="none">Минимальное значение=</text>
      <text x="726.5185" xml:space="preserve" y="-1268.493" clip-path="url(#clipPath2)" font-family="sans-serif" stroke="none">максимальному</text>
    </g>
    <g fill="url(#linearGradient9)" text-rendering="geometricPrecision" shape-rendering="geometricPrecision" transform="matrix(1,0,0,1,-265,2336)" stroke="url(#linearGradient9)">
      <path d="M710.539 -765.4691 L843.039 -765.4691 L853.039 -755.4691 L853.039 -687.9691 L700.539 -687.9691 L700.539 -755.4691 Z" stroke="none" clip-path="url(#clipPath2)"/>
    </g>
    <g text-rendering="geometricPrecision" stroke-miterlimit="1.45" shape-rendering="geometricPrecision" transform="matrix(1,0,0,1,-265,2336)" stroke-linecap="butt">
      <path fill="none" d="M710.539 -765.4691 L843.039 -765.4691 L853.039 -755.4691 L853.039 -687.9691 L700.539 -687.9691 L700.539 -755.4691 Z" clip-path="url(#clipPath2)"/>
      <text x="730.4003" xml:space="preserve" y="-736.5335" clip-path="url(#clipPath2)" font-family="sans-serif" stroke="none">Нормализация</text>
      <text x="732.0146" xml:space="preserve" y="-722.5648" clip-path="url(#clipPath2)" font-family="sans-serif" stroke="none">Перебор всех </text>
      <text x="715.3066" xml:space="preserve" y="-708.596" clip-path="url(#clipPath2)" font-family="sans-serif" stroke="none">элементов массива</text>
    </g>
    <g fill="url(#linearGradient10)" text-rendering="geometricPrecision" shape-rendering="geometricPrecision" transform="matrix(1,0,0,1,-265,2336)" stroke="url(#linearGradient10)">
      <path d="M705.9946 -554.3041 L847.5835 -554.3041 L847.5835 -486.8041 L837.5835 -476.8041 L715.9946 -476.8041 L705.9946 -486.8041 Z" stroke="none" clip-path="url(#clipPath2)"/>
    </g>
    <g text-rendering="geometricPrecision" stroke-miterlimit="1.45" shape-rendering="geometricPrecision" transform="matrix(1,0,0,1,-265,2336)" stroke-linecap="butt">
      <path fill="none" d="M705.9946 -554.3041 L847.5835 -554.3041 L847.5835 -486.8041 L837.5835 -476.8041 L715.9946 -476.8041 L705.9946 -486.8041 Z" clip-path="url(#clipPath2)"/>
      <text x="730.4003" xml:space="preserve" y="-511.3998" clip-path="url(#clipPath2)" font-family="sans-serif" stroke="none">Нормализация</text>
    </g>
    <g fill="url(#linearGradient11)" text-rendering="geometricPrecision" shape-rendering="geometricPrecision" transform="matrix(1,0,0,1,-265,2336)" stroke="url(#linearGradient11)">
      <path d="M688.664 -661.8041 L864.914 -661.8041 L864.914 -584.3041 L688.664 -584.3041 Z" stroke="none" clip-path="url(#clipPath2)"/>
    </g>
    <g text-rendering="geometricPrecision" stroke-miterlimit="1.45" shape-rendering="geometricPrecision" transform="matrix(1,0,0,1,-265,2336)" stroke-linecap="butt">
      <path fill="none" d="M688.664 -661.8041 L864.914 -661.8041 L864.914 -584.3041 L688.664 -584.3041 Z" clip-path="url(#clipPath2)"/>
      <text x="728.4931" xml:space="preserve" y="-625.8842" clip-path="url(#clipPath2)" font-family="sans-serif" stroke="none">Нормализация </text>
      <text x="746.6572" xml:space="preserve" y="-611.9154" clip-path="url(#clipPath2)" font-family="sans-serif" stroke="none">элемента</text>
    </g>
    <g fill="url(#linearGradient12)" text-rendering="geometricPrecision" shape-rendering="geometricPrecision" transform="matrix(1,0,0,1,-265,2336)" stroke="url(#linearGradient12)">
      <path d="M688.664 -2212.6475 L864.914 -2212.6475 L864.914 -2135.1475 L688.664 -2135.1475 Z" stroke="none" clip-path="url(#clipPath2)"/>
    </g>
    <g text-rendering="geometricPrecision" stroke-miterlimit="1.45" shape-rendering="geometricPrecision" transform="matrix(1,0,0,1,-265,2336)" stroke-linecap="butt">
      <path fill="none" d="M688.664 -2212.6475 L864.914 -2212.6475 L864.914 -2135.1475 L688.664 -2135.1475 Z" clip-path="url(#clipPath2)"/>
      <text x="729.5244" xml:space="preserve" y="-2190.6963" clip-path="url(#clipPath2)" font-family="sans-serif" stroke="none">Присваивание </text>
      <text x="729.2958" xml:space="preserve" y="-2176.7275" clip-path="url(#clipPath2)" font-family="sans-serif" stroke="none">минимальному</text>
      <text x="718.8046" xml:space="preserve" y="-2162.7588" clip-path="url(#clipPath2)" font-family="sans-serif" stroke="none">и максимальному </text>
      <text x="740.165" xml:space="preserve" y="-2148.79" clip-path="url(#clipPath2)" font-family="sans-serif" stroke="none">значению 0</text>
    </g>
    <g fill="url(#linearGradient13)" text-rendering="geometricPrecision" shape-rendering="geometricPrecision" transform="matrix(1,0,0,1,-265,2336)" stroke="url(#linearGradient13)">
      <path d="M567.7265 -1757.163 L678.664 -1718.413 L567.7265 -1679.663 L456.789 -1718.413 Z" stroke="none" clip-path="url(#clipPath2)"/>
    </g>
    <g text-rendering="geometricPrecision" stroke-miterlimit="1.45" shape-rendering="geometricPrecision" transform="matrix(1,0,0,1,-265,2336)" stroke-linecap="butt">
      <path fill="none" d="M567.7265 -1757.163 L678.664 -1718.413 L567.7265 -1679.663 L456.789 -1718.413 Z" clip-path="url(#clipPath2)"/>
      <text x="512.5546" xml:space="preserve" y="-1728.2274" clip-path="url(#clipPath2)" font-family="sans-serif" stroke="none">Элемент массива</text>
      <text x="511.7754" xml:space="preserve" y="-1714.2587" clip-path="url(#clipPath2)" font-family="sans-serif" stroke="none">&gt;максимального </text>
      <text x="538.2685" xml:space="preserve" y="-1700.2899" clip-path="url(#clipPath2)" font-family="sans-serif" stroke="none">значения</text>
    </g>
    <g fill="url(#linearGradient14)" text-rendering="geometricPrecision" shape-rendering="geometricPrecision" transform="matrix(1,0,0,1,-265,2336)" stroke="url(#linearGradient14)">
      <path d="M491.4765 -1530.413 L643.9765 -1530.413 L643.9765 -1462.913 L633.9765 -1452.913 L501.4765 -1452.913 L491.4765 -1462.913 Z" stroke="none" clip-path="url(#clipPath2)"/>
    </g>
    <g text-rendering="geometricPrecision" stroke-miterlimit="1.45" shape-rendering="geometricPrecision" transform="matrix(1,0,0,1,-265,2336)" stroke-linecap="butt">
      <path fill="none" d="M491.4765 -1530.413 L643.9765 -1530.413 L643.9765 -1462.913 L633.9765 -1452.913 L501.4765 -1452.913 L491.4765 -1462.913 Z" clip-path="url(#clipPath2)"/>
      <text x="495.8906" xml:space="preserve" y="-1494.493" clip-path="url(#clipPath2)" font-family="sans-serif" stroke="none">Поиск максимального </text>
      <text x="538.2685" xml:space="preserve" y="-1480.5243" clip-path="url(#clipPath2)" font-family="sans-serif" stroke="none">значения</text>
    </g>
    <g fill="url(#linearGradient15)" text-rendering="geometricPrecision" shape-rendering="geometricPrecision" transform="matrix(1,0,0,1,-265,2336)" stroke="url(#linearGradient15)">
      <path d="M280.539 -1658.163 L456.789 -1658.163 L456.789 -1580.663 L280.539 -1580.663 Z" stroke="none" clip-path="url(#clipPath2)"/>
    </g>
    <g text-rendering="geometricPrecision" stroke-miterlimit="1.45" shape-rendering="geometricPrecision" transform="matrix(1,0,0,1,-265,2336)" stroke-linecap="butt">
      <path fill="none" d="M280.539 -1658.163 L456.789 -1658.163 L456.789 -1580.663 L280.539 -1580.663 Z" clip-path="url(#clipPath2)"/>
      <text x="285.6543" xml:space="preserve" y="-1622.243" clip-path="url(#clipPath2)" font-family="sans-serif" stroke="none">Максимальное значение=</text>
      <text x="313.4922" xml:space="preserve" y="-1608.2743" clip-path="url(#clipPath2)" font-family="sans-serif" stroke="none">Элемент массива</text>
    </g>
    <g fill="url(#linearGradient16)" text-rendering="geometricPrecision" shape-rendering="geometricPrecision" transform="matrix(1,0,0,1,-265,2336)" stroke="url(#linearGradient16)">
      <path d="M501.4765 -1870.6552 L633.9765 -1870.6552 L643.9765 -1860.6552 L643.9765 -1793.1552 L491.4765 -1793.1552 L491.4765 -1860.6552 Z" stroke="none" clip-path="url(#clipPath2)"/>
    </g>
    <g text-rendering="geometricPrecision" stroke-miterlimit="1.45" shape-rendering="geometricPrecision" transform="matrix(1,0,0,1,-265,2336)" stroke-linecap="butt">
      <path fill="none" d="M501.4765 -1870.6552 L633.9765 -1870.6552 L643.9765 -1860.6552 L643.9765 -1793.1552 L491.4765 -1793.1552 L491.4765 -1860.6552 Z" clip-path="url(#clipPath2)"/>
      <text x="497.7978" xml:space="preserve" y="-1848.704" clip-path="url(#clipPath2)" font-family="sans-serif" stroke="none">Поиск максимального</text>
      <text x="538.2685" xml:space="preserve" y="-1834.7352" clip-path="url(#clipPath2)" font-family="sans-serif" stroke="none">значения</text>
      <text x="522.9521" xml:space="preserve" y="-1820.7665" clip-path="url(#clipPath2)" font-family="sans-serif" stroke="none">Перебор всех </text>
      <text x="506.2441" xml:space="preserve" y="-1806.7977" clip-path="url(#clipPath2)" font-family="sans-serif" stroke="none">элементов массива</text>
    </g>
    <g fill="url(#linearGradient17)" text-rendering="geometricPrecision" shape-rendering="geometricPrecision" transform="matrix(1,0,0,1,-265,2336)" stroke="url(#linearGradient17)">
      <path d="M704.6015 -1221.4093 L848.9765 -1221.4093 L858.9765 -1211.4093 L858.9765 -1143.9093 L694.6015 -1143.9093 L694.6015 -1211.4093 Z" stroke="none" clip-path="url(#clipPath2)"/>
    </g>
    <g text-rendering="geometricPrecision" stroke-miterlimit="1.45" shape-rendering="geometricPrecision" transform="matrix(1,0,0,1,-265,2336)" stroke-linecap="butt">
      <path fill="none" d="M704.6015 -1221.4093 L848.9765 -1221.4093 L858.9765 -1211.4093 L858.9765 -1143.9093 L694.6015 -1143.9093 L694.6015 -1211.4093 Z" clip-path="url(#clipPath2)"/>
      <text x="709.6376" xml:space="preserve" y="-1199.4581" clip-path="url(#clipPath2)" font-family="sans-serif" stroke="none">Поиск минимального</text>
      <text x="747.331" xml:space="preserve" y="-1185.4894" clip-path="url(#clipPath2)" font-family="sans-serif" stroke="none">значения</text>
      <text x="732.0146" xml:space="preserve" y="-1171.5206" clip-path="url(#clipPath2)" font-family="sans-serif" stroke="none">Перебор всех </text>
      <text x="715.3066" xml:space="preserve" y="-1157.5519" clip-path="url(#clipPath2)" font-family="sans-serif" stroke="none">элементов массива</text>
    </g>
    <g fill="url(#linearGradient18)" text-rendering="geometricPrecision" shape-rendering="geometricPrecision" transform="matrix(1,0,0,1,-265,2336)" stroke="url(#linearGradient18)">
      <path d="M694.6015 -869.134 L858.9765 -869.134 L858.9765 -801.634 L848.9765 -791.634 L704.6015 -791.634 L694.6015 -801.634 Z" stroke="none" clip-path="url(#clipPath2)"/>
    </g>
    <g text-rendering="geometricPrecision" stroke-miterlimit="1.45" shape-rendering="geometricPrecision" transform="matrix(1,0,0,1,-265,2336)" stroke-linecap="butt">
      <path fill="none" d="M694.6015 -869.134 L858.9765 -869.134 L858.9765 -801.634 L848.9765 -791.634 L704.6015 -791.634 L694.6015 -801.634 Z" clip-path="url(#clipPath2)"/>
      <text x="707.7304" xml:space="preserve" y="-833.2141" clip-path="url(#clipPath2)" font-family="sans-serif" stroke="none">Поиск минимального </text>
      <text x="747.331" xml:space="preserve" y="-819.2453" clip-path="url(#clipPath2)" font-family="sans-serif" stroke="none">значения</text>
    </g>
    <g fill="url(#linearGradient19)" text-rendering="geometricPrecision" shape-rendering="geometricPrecision" transform="matrix(1,0,0,1,-265,2336)" stroke="url(#linearGradient19)">
      <path d="M776.789 -1104.3973 L887.7265 -1065.6473 L776.789 -1026.8973 L665.8515 -1065.6473 Z" stroke="none" clip-path="url(#clipPath2)"/>
    </g>
    <g text-rendering="geometricPrecision" stroke-miterlimit="1.45" shape-rendering="geometricPrecision" transform="matrix(1,0,0,1,-265,2336)" stroke-linecap="butt">
      <path fill="none" d="M776.789 -1104.3973 L887.7265 -1065.6473 L776.789 -1026.8973 L665.8515 -1065.6473 Z" clip-path="url(#clipPath2)"/>
      <text x="721.6171" xml:space="preserve" y="-1075.4618" clip-path="url(#clipPath2)" font-family="sans-serif" stroke="none">Элемент массива</text>
      <text x="723.6152" xml:space="preserve" y="-1061.493" clip-path="url(#clipPath2)" font-family="sans-serif" stroke="none">&lt;минимального </text>
      <text x="747.331" xml:space="preserve" y="-1047.5243" clip-path="url(#clipPath2)" font-family="sans-serif" stroke="none">значения</text>
    </g>
    <g fill="url(#linearGradient20)" text-rendering="geometricPrecision" shape-rendering="geometricPrecision" transform="matrix(1,0,0,1,-265,2336)" stroke="url(#linearGradient20)">
      <path d="M887.7265 -1015.8974 L1063.9766 -1015.8974 L1063.9766 -938.3974 L887.7265 -938.3974 Z" stroke="none" clip-path="url(#clipPath2)"/>
    </g>
    <g text-rendering="geometricPrecision" stroke-miterlimit="1.45" shape-rendering="geometricPrecision" transform="matrix(1,0,0,1,-265,2336)" stroke-linecap="butt">
      <path fill="none" d="M887.7265 -1015.8974 L1063.9766 -1015.8974 L1063.9766 -938.3974 L887.7265 -938.3974 Z" clip-path="url(#clipPath2)"/>
      <text x="895.6191" xml:space="preserve" y="-979.9775" clip-path="url(#clipPath2)" font-family="sans-serif" stroke="none">Минимальное значение=</text>
      <text x="920.6796" xml:space="preserve" y="-966.0087" clip-path="url(#clipPath2)" font-family="sans-serif" stroke="none">Элемент массива</text>
    </g>
    <g fill="url(#linearGradient21)" text-rendering="geometricPrecision" shape-rendering="geometricPrecision" transform="matrix(1,0,0,1,-265,2336)" stroke="url(#linearGradient21)">
      <rect x="684.1742" y="-429.0697" clip-path="url(#clipPath2)" width="185.2297" rx="38.75" ry="38.75" height="77.5" stroke="none"/>
    </g>
    <g text-rendering="geometricPrecision" stroke-miterlimit="1.45" shape-rendering="geometricPrecision" transform="matrix(1,0,0,1,-265,2336)" stroke-linecap="butt">
      <rect x="684.1742" y="-429.0697" clip-path="url(#clipPath2)" fill="none" width="185.2297" rx="38.75" ry="38.75" height="77.5"/>
      <text x="753.873" xml:space="preserve" y="-386.1654" clip-path="url(#clipPath2)" font-family="sans-serif" stroke="none">Начало</text>
    </g>
    <g text-rendering="geometricPrecision" stroke-miterlimit="1.45" shape-rendering="geometricPrecision" transform="matrix(1,0,0,1,-265,2336)" stroke-linecap="butt">
      <path fill="none" d="M952.3298 -1906.6757 L952.3298 -1892.2137 L952.3665 -1892.2137 L952.3665 -1878.5907" clip-path="url(#clipPath2)"/>
    </g>
    <g text-rendering="geometricPrecision" stroke-miterlimit="1.45" shape-rendering="geometricPrecision" transform="matrix(1,0,0,1,-265,2336)" stroke-linecap="butt">
      <path d="M952.3665 -1870.5907 L957.3665 -1882.5907 L952.3665 -1879.5907 L947.3665 -1882.5907 Z" stroke="none" clip-path="url(#clipPath2)"/>
      <path fill="none" d="M952.6015 -1793.1598 L952.6015 -1672.1842" clip-path="url(#clipPath2)"/>
      <path d="M952.6015 -1664.1842 L957.6015 -1676.1842 L952.6015 -1673.1842 L947.6015 -1676.1842 Z" clip-path="url(#clipPath2)" stroke="none"/>
      <text x="910.9033" xml:space="preserve" y="-1724.4969" clip-path="url(#clipPath2)" font-family="sans-serif" stroke="none">Нет</text>
      <path fill="none" d="M887.7449 -2066.3975 L952.6015 -2066.3975 L952.6015 -1992.1256" clip-path="url(#clipPath2)"/>
      <path d="M952.6015 -1984.1256 L957.6015 -1996.1256 L952.6015 -1993.1256 L947.6015 -1996.1256 Z" clip-path="url(#clipPath2)" stroke="none"/>
      <text x="919.4819" xml:space="preserve" y="-2092.2432" clip-path="url(#clipPath2)" font-family="sans-serif" stroke="none">Да</text>
      <path fill="none" d="M665.8522 -2066.3975 L567.7265 -2066.3975 L567.7265 -1992.1256" clip-path="url(#clipPath2)"/>
      <path d="M567.7265 -1984.1256 L572.7265 -1996.1256 L567.7265 -1993.1256 L562.7265 -1996.1256 Z" clip-path="url(#clipPath2)" stroke="none"/>
      <text x="595.7416" xml:space="preserve" y="-2092.2432" clip-path="url(#clipPath2)" font-family="sans-serif" stroke="none">Нет</text>
      <path fill="none" d="M1063.5471 -1831.9052 L1121.9766 -1831.9052 L1121.9766 -1799.8726" clip-path="url(#clipPath2)"/>
      <path d="M1121.9766 -1791.8726 L1126.9766 -1803.8726 L1121.9766 -1800.8726 L1116.9766 -1803.8726 Z" clip-path="url(#clipPath2)" stroke="none"/>
      <text x="1092.0757" xml:space="preserve" y="-1857.7509" clip-path="url(#clipPath2)" font-family="sans-serif" stroke="none">Да</text>
      <path fill="none" d="M1121.9766 -1714.3862 L1121.9766 -1675.3973 L952.6015 -1675.3973 L952.6015 -1672.1473" clip-path="url(#clipPath2)"/>
      <path d="M952.6015 -1664.1473 L957.6015 -1676.1473 L952.6015 -1673.1473 L947.6015 -1676.1473 Z" clip-path="url(#clipPath2)" stroke="none"/>
      <path fill="none" d="M952.6015 -1586.6451 L952.6015 -1374.8381 L776.789 -1374.8381 L776.789 -1326.3701" clip-path="url(#clipPath2)"/>
      <path d="M776.789 -1318.3701 L781.789 -1330.3701 L776.789 -1327.3701 L771.789 -1330.3701 Z" clip-path="url(#clipPath2)" stroke="none"/>
      <path fill="none" d="M776.789 -687.9713 L776.789 -669.8206" clip-path="url(#clipPath2)"/>
      <path d="M776.789 -661.8206 L781.789 -673.8206 L776.789 -670.8206 L771.789 -673.8206 Z" clip-path="url(#clipPath2)" stroke="none"/>
      <path fill="none" d="M776.789 -584.29 L776.789 -562.3188" clip-path="url(#clipPath2)"/>
      <path d="M776.789 -554.3188 L781.789 -566.3188 L776.789 -563.3188 L771.789 -566.3188 Z" clip-path="url(#clipPath2)" stroke="none"/>
      <path fill="none" d="M776.789 -2242.6333 L776.789 -2220.6621" clip-path="url(#clipPath2)"/>
      <path d="M776.789 -2212.6621 L781.789 -2224.6621 L776.789 -2221.6621 L771.789 -2224.6621 Z" clip-path="url(#clipPath2)" stroke="none"/>
      <path fill="none" d="M776.789 -2135.1199 L776.789 -2113.1694" clip-path="url(#clipPath2)"/>
      <path d="M776.789 -2105.1694 L781.789 -2117.1694 L776.789 -2114.1694 L771.789 -2117.1694 Z" clip-path="url(#clipPath2)" stroke="none"/>
      <path fill="none" d="M567.7265 -1679.6895 L567.7265 -1538.4526" clip-path="url(#clipPath2)"/>
      <path d="M567.7265 -1530.4526 L572.7265 -1542.4526 L567.7265 -1539.4526 L562.7265 -1542.4526 Z" clip-path="url(#clipPath2)" stroke="none"/>
      <text x="586.0283" xml:space="preserve" y="-1600.8837" clip-path="url(#clipPath2)" font-family="sans-serif" stroke="none">Нет</text>
      <path fill="none" d="M567.7265 -1452.902 L567.7265 -1374.8381 L776.789 -1374.8381 L776.789 -1326.3558" clip-path="url(#clipPath2)"/>
      <path d="M776.789 -1318.3558 L781.789 -1330.3558 L776.789 -1327.3558 L771.789 -1330.3558 Z" clip-path="url(#clipPath2)" stroke="none"/>
      <path fill="none" d="M456.7744 -1718.413 L368.664 -1718.413 L368.664 -1666.1332" clip-path="url(#clipPath2)"/>
      <path d="M368.664 -1658.1332 L373.664 -1670.1332 L368.664 -1667.1332 L363.664 -1670.1332 Z" clip-path="url(#clipPath2)" stroke="none"/>
      <text x="396.6801" xml:space="preserve" y="-1744.2587" clip-path="url(#clipPath2)" font-family="sans-serif" stroke="none">Да</text>
      <path fill="none" d="M368.664 -1580.6519 L368.664 -1541.663 L567.7265 -1541.663 L567.7265 -1538.413" clip-path="url(#clipPath2)"/>
      <path d="M567.7265 -1530.413 L572.7265 -1542.413 L567.7265 -1539.413 L562.7265 -1542.413 Z" clip-path="url(#clipPath2)" stroke="none"/>
      <path fill="none" d="M567.7265 -1906.6338 L567.7265 -1878.6196" clip-path="url(#clipPath2)"/>
      <path d="M567.7265 -1870.6196 L572.7265 -1882.6196 L567.7265 -1879.6196 L562.7265 -1882.6196 Z" clip-path="url(#clipPath2)" stroke="none"/>
      <path fill="none" d="M568.3586 -1793.1407 L568.3586 -1764.9137" clip-path="url(#clipPath2)"/>
      <path d="M568.3586 -1756.9137 L573.3586 -1768.9137 L568.3586 -1765.9137 L563.3586 -1768.9137 Z" clip-path="url(#clipPath2)" stroke="none"/>
      <path fill="none" d="M776.789 -1240.8522 L776.789 -1229.3883" clip-path="url(#clipPath2)"/>
      <path d="M776.789 -1221.3883 L781.789 -1233.3883 L776.789 -1230.3883 L771.789 -1233.3883 Z" clip-path="url(#clipPath2)" stroke="none"/>
      <path fill="none" d="M776.789 -791.6362 L776.789 -773.4855" clip-path="url(#clipPath2)"/>
      <path d="M776.789 -765.4855 L781.789 -777.4855 L776.789 -774.4855 L771.789 -777.4855 Z" clip-path="url(#clipPath2)" stroke="none"/>
      <path fill="none" d="M776.789 -1143.8778 L776.789 -1142.7476 L776.0305 -1142.7476 L776.0305 -1112.1219" clip-path="url(#clipPath2)"/>
      <path d="M776.0305 -1104.1219 L781.0305 -1116.1219 L776.0305 -1113.1219 L771.0305 -1116.1219 Z" clip-path="url(#clipPath2)" stroke="none"/>
      <path fill="none" d="M776.789 -1026.9059 L776.789 -877.103" clip-path="url(#clipPath2)"/>
      <path d="M776.789 -869.103 L781.789 -881.103 L776.789 -878.103 L771.789 -881.103 Z" clip-path="url(#clipPath2)" stroke="none"/>
      <path fill="none" d="M887.7411 -1065.6473 L975.8515 -1065.6473 L975.8515 -1023.9094" clip-path="url(#clipPath2)"/>
      <path d="M975.8515 -1015.9094 L980.8515 -1027.9094 L975.8515 -1024.9094 L970.8515 -1027.9094 Z" clip-path="url(#clipPath2)" stroke="none"/>
      <path fill="none" d="M975.8515 -938.4178 L975.8515 -896.293 L776.789 -896.293 L776.789 -877.1635" clip-path="url(#clipPath2)"/>
      <path d="M776.789 -869.1635 L781.789 -881.1635 L776.789 -878.1635 L771.789 -881.1635 Z" clip-path="url(#clipPath2)" stroke="none"/>
      <path fill="none" d="M776.789 -476.8158 L776.789 -437.0487" clip-path="url(#clipPath2)"/>
      <path d="M776.789 -429.0487 L781.789 -441.0487 L776.789 -438.0487 L771.789 -441.0487 Z" clip-path="url(#clipPath2)" stroke="none"/>
    </g>
  </g>
</svg>
